<svg width="47" height="52" viewBox="0 0 47 52" fill="none" xmlns="http://www.w3.org/2000/svg">
<path d="M42.3 4.72727H39.95V2.36364C39.95 1.06364 38.8925 0 37.6 0C36.3075 0 35.25 1.06364 35.25 2.36364V4.72727H11.75V2.36364C11.75 1.06364 10.6925 0 9.4 0C8.1075 0 7.05 1.06364 7.05 2.36364V4.72727H4.7C2.115 4.72727 0 6.85455 0 9.45455V47.2727C0 49.8727 2.115 52 4.7 52H42.3C44.885 52 47 49.8727 47 47.2727V9.45455C47 6.85455 44.885 4.72727 42.3 4.72727ZM39.95 47.2727H7.05C5.7575 47.2727 4.7 46.2091 4.7 44.9091V16.5455H42.3V44.9091C42.3 46.2091 41.2425 47.2727 39.95 47.2727Z" fill="#CEC9B3"/>
</svg>
