<?xml version="1.0" encoding="utf-8"?>
<!-- Generator: Adobe Illustrator 25.4.1, SVG Export Plug-In . SVG Version: 6.00 Build 0)  -->
<svg version="1.1" id="Capa_1" xmlns="http://www.w3.org/2000/svg" xmlns:xlink="http://www.w3.org/1999/xlink" x="0px" y="0px"
	 viewBox="0 0 512 512" style="enable-background:new 0 0 512 512;" xml:space="preserve">
<style type="text/css">
	.st0{fill:#355A50;}
</style>
<path class="st0" d="M56.9,114.3c-11-7.4-22.8-14.8-34.3-22.6c-0.5-0.4-0.5-0.5,0.2-0.5h465.7c0.6,0,0.7,0.2,0.2,0.5L256.5,248.2
	c-0.3,0.2-0.6,0.2-0.9,0C189.3,203.6,123.1,159,56.9,114.3z"/>
<path class="st0" d="M512,122.3v306.5c-1.4,11.3-6.9,18.4-16.3,21.5c-3,1-7.9,1.5-14.5,1.5c-150.5,0-301,0-451.5,0
	c-5.9,0-10.3-0.5-13.2-1.4C6.8,447.2,1.3,439.9,0,428.4V122.6c0.3,0.1,0.3,0,0.6,0.2c61.6,41.6,123.3,83.1,185,124.6
	c18.8,12.6,36.5,24.1,58.4,38.9c7.8,5.3,15.7,5.2,23.8-0.2c81.3-54.7,162.6-109.4,243.8-164.1c0,0,0.1,0,0.1,0
	C511.8,122.2,511.9,122.2,512,122.3z"/>
</svg>
