<?xml version="1.0" encoding="utf-8"?>
<!-- Generator: Adobe Illustrator 25.4.1, SVG Export Plug-In . SVG Version: 6.00 Build 0)  -->
<svg version="1.1" id="Capa_1" xmlns="http://www.w3.org/2000/svg" xmlns:xlink="http://www.w3.org/1999/xlink" x="0px" y="0px"
	 viewBox="0 0 530 400" style="enable-background:new 0 0 530 400;" xml:space="preserve">
<style type="text/css">
	.st0{fill:#355A50;}
</style>
<path class="st0" d="M470.6,182.2l5.4-6.2c0.4-0.5,1.2-0.6,1.7-0.2c0.8,0.6-0.3,7.9-0.2,9.5c0,0.3,0.2,0.5,0.5,0.5
	c0.2,0,0.4-0.1,0.5-0.3l1.9-4c0.1-0.2,0.3-0.3,0.5-0.2c0.1,0.1,0.2,0.2,0.2,0.3c0.4,6.9-1.2,13.3-4.6,19.2c-0.2,0.3-0.2,0.6,0,0.9
	c1.9,3.3,4.2,6.2,6.9,8.8c1.8,1.6,0.3,7.2,0,9.8c-0.2,1.5-0.1,3.1,0.2,4.8c2,11.7,4.5,23.2,7.4,34.7c0.8,3.2,3.4,6.1,3.5,9.4
	c0.6,15.6-10.4,17.3-22.7,15.7c-0.3,0-0.6-0.2-0.9-0.5c-7.5-8.3-13.1-13.8-16.7-16.4c-14.4-10.4-24.6-24-30.5-40.8
	c-0.1-0.3-0.3-0.6-0.6-0.7c-15.6-7.1-31.6-13.5-47.7-19.2c-0.3-0.1-0.6,0-0.8,0.2c-3.8,5.2-6.5,10-13.1,11.9
	c-4.5,1.3-7.8,2.3-11.5,5.2c-4.8,3.6-8.9,6.8-14,9.9c-0.3,0.2-0.5,0.4-0.6,0.7c-2.9,6.9-7.3,15-8.1,22.5
	c-1.6,14.9-3.3,33.4,2.8,47.8c4.7,11.2,8.3,20.1,10.8,26.7c0.6,1.6,1,3.7,1,6.3c0,0.3-0.1,0.6-0.5,0.7c-5.9,2.3-18,0.9-24.4,0
	c-0.6-0.1-1.1-0.4-1.3-1c-3.5-8.8-3.3-16.7-3.3-26c0-2.4-0.7-4.5-2.2-6.3c-1.8-2.2-8-2.8-6.5-6.9c3.1-8.9,5.8-23.6,1.6-32.4
	c-3.2-6.7-5.6-13.6-7.3-20.8c-0.1-0.4-0.2-0.4-0.5-0.1c-5.6,10.9-11.4,21.6-17.3,32.3c-5.3,9.6-5.2,22.9-1.3,33.6
	c2.6,7.2,5.4,13.6,5.3,18.3c0,0.4-0.2,0.6-0.5,0.8c-6,3.5-19.8,1.6-26.1,0c-0.7-0.2-1-0.6-0.9-1.3c1.3-7.6,2-18.2-2.9-24.5
	c-1.6-2-1.7-4.2-0.5-6.3c9.3-17.2,8.7-41,4.8-59.5c-1.4-6.8-2.8-13.6-4.1-20.5c-0.1-0.3-0.3-0.4-0.6-0.3
	c-13.2,5.2-26.1,9.1-38.8,11.7c-18.7,3.9-39.2,0.4-57.4-4.9c-0.4-0.1-0.9,0.1-1,0.5c0,0,0,0,0,0.1c-2.1,10.5-3.4,20.7-3.9,30.7
	c-0.8,14.2,1.3,27.9,12.1,38c4.9,4.6,8.8,19.1,10.6,25.7c0.1,0.3-0.1,0.6-0.4,0.7c0,0,0,0-0.1,0c-9.2,1.5-19.8,2.9-28.8,0.3
	c-0.5-0.1-0.9-0.5-1.1-0.9c-5.2-9.7-10.8-21-9.3-32.3c0.6-4.1,0-8.1-1.6-11.9c-3.8-9.2-7.2-18.6-10.9-27.8c-0.1-0.3-0.3-0.3-0.4,0
	c-6.9,11.3-6.3,27.1-4.1,40.1c2.2,12.9,11.1,23.4,12.2,36.6c0,0.4-0.1,0.7-0.4,1c-4.7,4.6-21.2,2.6-26.5,1.4
	c-0.4-0.1-0.6-0.3-0.7-0.8c-0.6-7.2-1.5-14.5-3.4-22.9c-1.6-6.9-10.7-10.8-9.6-18c2.2-15.3,2.6-30.6,1.1-46
	c-0.6-5.9-2.9-11.8-2.7-18.4c0.1-3,2-6.2,2-9.1c-0.1-3.8-0.6-8.8-1.7-15.1c-0.8-4.8-3.9-9.2-4.7-13.9c-1.7-10.7-3.3-21.3-5-32
	c-0.5-3.2-1.3-6.6-2.5-10.3c-4.4-13.7-6-26.4-7.2-40.2c0-0.5-0.2-0.6-0.6-0.2c-6.3,6.4-5.5,27.8-5,36.4c1.1,17.7,3.4,38.7,6.8,62.8
	c1,6.8,1.7,9.6,5.6,15.7c4.2,6.7,8.2,14,8.9,22.1c0.1,0.7-0.1,0.8-0.5,0.2c-0.7-1-1-2.2-0.9-3.4c0-0.2-0.1-0.3-0.3-0.3
	c-0.1,0-0.2,0-0.3,0c-0.2,0-0.2,0.1-0.2,0.2c0.4,6,0,11.9-1.1,17.8c-0.1,0.6-0.2,0.6-0.3,0c-0.1-0.8,0-4-0.4-4.2
	c-0.2-0.1-0.3,0-0.3,0.1l-2.9,8.8c-0.5,1.5-0.6,1.5-0.4-0.1l1.9-13.1c0-0.1,0-0.1-0.1-0.1c-0.1,0-0.2,0.1-0.3,0.1
	c0,0-0.1,0.1-0.1,0.2c-2.3,9.6-5,19-8.2,28.3c-0.2,0.7-0.4,0.7-0.7,0c-6.6-19.9-7.8-40.2-6.8-61.3c0.2-3.8-0.6-11.4-2.2-22.8
	c-4.6-31.7-10.9-62.7-4.8-94.7c2.4-12.8,6-19.7,16.9-26c9.3-5.3,15.9-7.2,27.1-7.7c17.2-0.8,34.5,1.3,51.6,2.7
	c4.2,0.3,8.5,0.4,13.1,0.1c18.1-1.2,36.3-2.5,55.2,0.2c28.1,4.1,56.2,8.6,84.3,12.7c1.1,0.2,2.3,0.2,3.5,0.2
	c7.5-0.1,14.9-0.2,22.4-0.2c9,0,16,0,22.5,4.2c12.3,8.1,25.2,24.3,34.8,36.5c1.7,2.2,3.6,4.2,5.6,6.1c19.1,18.1,37.8,36.5,56.3,55.3
	c0.1,0.2,0.4,0.2,0.5,0c0,0,0.1-0.1,0.1-0.1c3.3-6.2,8.1-10.7,14.6-13.5c2.3-1,3.8-0.9,4,2c0.5,5.3,0.9,10.6,1.3,16
	C470,182.5,470.2,182.6,470.6,182.2z"/>
</svg>
