<svg width="18" height="18" viewBox="0 0 18 18" fill="none" xmlns="http://www.w3.org/2000/svg">
<g clip-path="url(#clip0_179_25)">
<path d="M12.18 8.63244L13.3575 7.45494L10.545 4.64244L9.3675 5.81994L6.2625 2.72244C5.6775 2.13744 4.725 2.13744 4.14 2.72244L2.715 4.14744C2.13 4.73244 2.13 5.68494 2.715 6.26994L5.8125 9.36744L2.25 12.9374V15.7499H5.0625L8.6325 12.1799L11.73 15.2774C12.4425 15.9899 13.4025 15.7274 13.8525 15.2774L15.2775 13.8524C15.8625 13.2674 15.8625 12.3149 15.2775 11.7299L12.18 8.63244ZM6.885 8.30244L3.78 5.20494L5.1975 3.77994L6.15 4.73244L5.265 5.62494L6.3225 6.68244L7.215 5.78994L8.3025 6.87744L6.885 8.30244ZM12.795 14.2199L9.6975 11.1224L11.1225 9.69744L12.21 10.7849L11.3175 11.6774L12.375 12.7349L13.2675 11.8424L14.22 12.7949L12.795 14.2199Z" fill="#EFEFEF"/>
<path d="M15.5325 5.28015C15.825 4.98765 15.825 4.51515 15.5325 4.22265L13.7775 2.46764C13.425 2.11514 12.9375 2.25014 12.72 2.46764L11.3475 3.84014L14.16 6.65265L15.5325 5.28015Z" fill="#EFEFEF"/>
</g>
<defs>
<clipPath id="clip0_179_25">
<rect width="18" height="18" fill="white"/>
</clipPath>
</defs>
</svg>
