<?xml version="1.0" encoding="UTF-8" standalone="no"?>
<!DOCTYPE svg PUBLIC "-//W3C//DTD SVG 1.1//EN" "http://www.w3.org/Graphics/SVG/1.1/DTD/svg11.dtd">
<svg xmlns="http://www.w3.org/2000/svg" version="1.1" viewBox="0 0 424 201">
<path fill="#043932" d="
  M 87.21 85.30
  Q 90.93 86.43 91.27 90.34
  C 92.14 100.30 88.64 106.25 82.41 113.92
  Q 81.19 115.42 80.21 115.86
  A 1.01 1.00 -3.9 0 0 79.65 116.50
  C 78.86 119.38 70.81 123.45 68.50 124.37
  Q 65.31 125.64 60.39 125.68
  Q 46.22 125.83 32.03 125.74
  C 17.66 125.65 27.31 144.18 22.78 152.04
  C 18.27 159.85 8.99 153.92 5.61 148.89
  C 4.47 147.21 4.00 144.00 4.00 141.63
  Q 3.99 97.89 4.00 54.15
  A 1.00 1.00 0.0 0 1 4.24 53.50
  Q 6.12 51.30 9.00 51.47
  Q 17.75 51.98 25.88 50.07
  Q 26.12 50.02 26.30 49.86
  Q 33.40 43.87 41.29 39.03
  C 46.15 36.04 51.08 38.24 55.89 41.38
  Q 67.62 49.05 70.53 51.48
  C 75.08 55.28 80.67 58.77 84.27 63.47
  Q 85.96 65.69 87.91 70.93
  A 1.00 0.97 44.1 0 1 87.93 71.57
  C 86.38 76.65 83.83 79.27 86.60 84.79
  A 1.05 1.05 0.0 0 0 87.21 85.30
  Z
  M 46.37 66.86
  Q 49.44 70.90 52.62 67.39
  A 0.98 0.98 0.0 0 0 52.76 66.25
  L 49.46 60.17
  Q 49.39 60.04 49.28 59.93
  L 45.13 55.92
  A 1.01 1.00 -43.5 0 0 43.77 55.89
  L 40.94 58.38
  A 1.01 1.00 -36.5 0 0 40.74 59.65
  L 44.04 65.13
  A 1.00 0.99 52.5 0 1 43.88 66.36
  L 15.65 93.95
  A 1.00 0.99 -29.9 0 0 15.38 94.92
  C 15.59 95.70 16.08 102.91 16.65 102.71
  A 0.52 0.52 0.0 0 0 17.00 102.22
  L 17.00 95.01
  A 1.02 0.98 68.2 0 1 17.29 94.30
  L 44.87 66.75
  A 1.00 0.99 49.1 0 1 46.37 66.86
  Z
  M 35.81 83.63
  A 1.01 1.01 0.0 0 0 34.52 84.28
  L 33.58 87.33
  A 1.01 1.01 0.0 0 0 33.75 88.24
  C 37.22 92.64 42.66 86.05 35.81 83.63
  Z"
/>
<path fill="#043932" d="
  M 282.03 68.78
  C 283.53 69.46 283.00 73.74 283.00 75.22
  C 283.03 89.38 256.03 87.75 255.72 77.00
  A 1.03 1.00 22.5 0 0 255.42 76.31
  Q 254.55 75.47 254.77 74.31
  A 1.00 0.99 5.2 0 1 255.75 73.50
  L 264.36 73.50
  A 1.00 0.99 -10.2 0 1 265.29 74.14
  Q 266.27 76.70 268.86 77.68
  A 1.07 1.05 45.4 0 0 269.54 77.69
  L 272.34 76.74
  A 1.01 1.01 0.0 0 0 272.96 76.12
  L 273.48 74.65
  A 1.03 1.03 0.0 0 0 273.33 73.71
  Q 270.99 70.66 267.27 69.87
  C 263.56 69.08 259.54 67.49 257.27 65.03
  C 255.32 62.91 254.44 59.14 255.19 56.21
  Q 256.67 50.52 262.42 47.99
  Q 264.70 46.99 265.72 46.99
  C 269.15 47.01 275.88 47.26 278.61 49.85
  Q 281.98 53.04 283.20 57.75
  A 1.00 0.99 82.6 0 1 282.24 59.00
  L 273.86 59.00
  A 1.00 1.00 0.0 0 1 272.96 58.43
  C 271.33 55.08 266.45 53.02 265.11 58.11
  A 1.02 1.02 0.0 0 0 265.42 59.12
  Q 268.54 61.89 271.21 62.48
  Q 278.08 64.02 281.66 68.49
  Q 281.81 68.68 282.03 68.78
  Z"
/>
<path fill="#043932" d="
  M 121.84 62.50
  L 131.91 62.50
  A 0.59 0.59 0.0 0 1 132.50 63.09
  L 132.50 69.41
  A 0.59 0.59 0.0 0 1 131.91 70.00
  L 121.84 70.00
  A 0.59 0.59 0.0 0 0 121.25 70.59
  L 121.25 84.16
  A 0.59 0.59 0.0 0 1 120.66 84.75
  L 111.59 84.75
  A 0.59 0.59 0.0 0 1 111.00 84.16
  L 111.00 48.59
  A 0.59 0.59 0.0 0 1 111.59 48.00
  L 135.42 48.00
  A 0.59 0.59 0.0 0 1 136.01 48.59
  L 135.98 54.95
  A 0.59 0.59 0.0 0 1 135.39 55.54
  L 121.84 55.48
  A 0.59 0.59 0.0 0 0 121.25 56.07
  L 121.25 61.91
  A 0.59 0.59 0.0 0 0 121.84 62.50
  Z"
/>
<path fill="#043932" d="
  M 149.55 70.53
  L 149.48 76.45
  A 0.54 0.54 0.0 0 0 150.02 77.00
  L 162.73 77.00
  A 0.54 0.54 0.0 0 1 163.27 77.55
  L 163.20 84.22
  A 0.54 0.54 0.0 0 1 162.66 84.75
  L 140.54 84.75
  A 0.54 0.54 0.0 0 1 140.00 84.21
  L 140.00 48.54
  A 0.54 0.54 0.0 0 1 140.54 48.00
  L 162.71 48.00
  A 0.54 0.54 0.0 0 1 163.25 48.54
  L 163.25 54.96
  A 0.54 0.54 0.0 0 1 162.71 55.50
  L 150.04 55.50
  A 0.54 0.54 0.0 0 0 149.50 56.04
  L 149.50 61.96
  A 0.54 0.54 0.0 0 0 150.04 62.50
  L 160.96 62.50
  A 0.54 0.54 0.0 0 1 161.50 63.04
  L 161.50 69.46
  A 0.54 0.54 0.0 0 1 160.96 70.00
  L 150.09 70.00
  A 0.54 0.54 0.0 0 0 149.55 70.53
  Z"
/>
<path fill="#043932" d="
  M 186.48 84.18
  C 184.51 79.88 181.55 75.56 179.26 71.38
  A 0.79 0.78 82.2 0 0 178.74 70.98
  Q 177.79 70.77 177.80 72.00
  Q 177.85 77.90 177.67 83.78
  A 0.99 0.99 0.0 0 1 176.67 84.75
  L 169.25 84.74
  A 1.00 1.00 0.0 0 1 168.25 83.74
  L 168.25 49.01
  A 1.00 0.99 -90.0 0 1 169.24 48.01
  Q 177.65 47.99 186.17 48.00
  C 188.53 48.01 193.41 49.91 194.84 51.88
  C 198.58 57.08 198.74 65.38 192.44 68.87
  Q 191.37 69.46 190.34 70.14
  A 0.99 0.99 0.0 0 0 190.10 71.59
  Q 191.40 73.25 192.31 75.11
  Q 193.50 77.56 194.58 79.19
  Q 195.88 81.17 196.86 83.34
  A 1.00 1.00 0.0 0 1 195.95 84.75
  L 187.39 84.76
  A 0.99 0.98 77.1 0 1 186.48 84.18
  Z
  M 184.33 55.97
  Q 181.62 54.98 178.53 55.65
  A 1.00 1.00 0.0 0 0 177.74 56.63
  L 177.76 63.13
  A 1.01 1.00 88.9 0 0 178.79 64.13
  L 184.82 63.95
  A 1.05 1.05 0.0 0 0 185.48 63.67
  C 188.19 61.12 188.24 57.39 184.33 55.97
  Z"
/>
<rect fill="#043932" x="201.75" y="48.00" width="10.26" height="36.74" rx="0.51"/>
<path fill="#043932" d="
  M 239.66 78.76
  L 227.77 78.79
  A 1.01 1.00 7.5 0 0 226.80 79.53
  L 225.63 84.03
  A 1.02 1.01 7.4 0 1 224.65 84.78
  L 216.61 84.69
  A 1.00 1.00 0.0 0 1 215.67 83.39
  Q 217.37 78.02 219.43 72.91
  Q 220.34 70.67 220.98 68.33
  C 222.17 63.91 224.23 60.45 225.52 56.38
  Q 226.75 52.48 228.18 48.65
  A 1.01 1.00 -79.4 0 1 229.12 48.00
  L 238.50 48.00
  A 1.00 0.98 -12.9 0 1 239.39 48.55
  Q 240.77 51.28 242.83 56.97
  Q 247.61 70.17 252.27 83.42
  A 1.00 1.00 0.0 0 1 251.33 84.75
  L 243.10 84.75
  A 1.01 1.00 80.7 0 1 242.15 84.06
  L 240.61 79.44
  A 1.00 1.00 0.0 0 0 239.66 78.76
  Z
  M 232.97 61.19
  Q 231.96 65.51 230.24 69.61
  A 1.00 1.00 0.0 0 0 231.16 71.00
  L 236.52 71.00
  A 1.00 1.00 0.0 0 0 237.46 69.67
  L 234.50 61.12
  Q 233.60 58.50 232.97 61.19
  Z"
/>
<path fill="#043932" d="
  M 227.28 127.34
  Q 231.72 128.20 235.88 126.38
  A 1.01 0.98 85.0 0 0 236.46 125.67
  C 237.25 121.88 243.04 122.87 247.11 123.14
  A 1.01 1.00 -87.3 0 1 248.04 124.17
  Q 247.97 126.96 245.86 129.02
  Q 245.70 129.18 245.62 129.39
  C 244.26 133.02 239.69 134.79 235.99 136.01
  C 229.49 138.17 223.00 136.00 217.93 131.98
  C 211.01 126.50 210.54 115.34 214.22 107.95
  Q 217.41 101.54 225.04 99.44
  Q 236.12 96.39 244.51 104.03
  Q 246.52 105.87 248.27 110.66
  A 1.00 1.00 0.0 0 1 247.33 112.00
  L 238.61 112.00
  A 1.01 1.00 72.8 0 1 237.78 111.56
  C 233.94 105.83 226.39 106.66 223.01 112.07
  C 222.07 113.59 222.47 115.31 221.48 117.06
  A 1.00 0.97 -39.1 0 0 221.39 117.83
  L 223.02 123.34
  A 0.99 0.95 15.4 0 0 223.29 123.79
  L 226.79 127.09
  A 0.97 0.94 71.0 0 0 227.28 127.34
  Z"
/>
<path fill="#043932" d="
  M 385.89 126.18
  Q 381.19 116.21 387.96 104.99
  Q 388.03 104.88 388.12 104.80
  Q 394.93 98.16 404.24 98.41
  Q 406.57 98.47 408.98 99.23
  C 421.56 103.21 425.78 117.17 419.48 128.22
  Q 418.00 130.81 416.90 131.65
  C 406.45 139.64 391.75 138.61 385.89 126.18
  Z
  M 412.0037 115.3974
  A 8.09 8.09 0.0 0 0 403.7322 107.4931
  L 402.0127 107.5321
  A 8.09 8.09 0.0 0 0 394.1083 115.8036
  L 394.1963 119.6826
  A 8.09 8.09 0.0 0 0 402.4678 127.5869
  L 404.1873 127.5479
  A 8.09 8.09 0.0 0 0 412.0917 119.2764
  L 412.0037 115.3974
  Z"
/>
<path fill="#043932" d="
  M 137.31 102.19
  C 149.45 110.79 147.10 129.47 133.68 134.80
  Q 130.52 136.06 125.61 136.04
  Q 118.80 136.02 111.98 135.89
  A 1.00 0.99 -89.7 0 1 111.00 134.89
  L 111.00 100.28
  A 1.00 0.99 -90.0 0 1 111.99 99.28
  Q 120.32 99.21 128.61 99.27
  C 131.61 99.29 135.27 100.74 137.31 102.19
  Z
  M 130.48 107.95
  A 0.99 0.98 66.5 0 0 129.76 107.66
  L 122.23 107.77
  A 1.00 1.00 0.0 0 0 121.25 108.77
  L 121.25 127.26
  A 1.01 1.00 -86.8 0 0 122.14 128.26
  Q 124.24 128.48 126.19 127.67
  Q 126.39 127.59 126.59 127.60
  C 130.53 127.66 133.19 125.61 134.45 121.88
  Q 136.99 114.38 130.48 107.95
  Z"
/>
<path fill="#043932" d="
  M 199.09 129.58
  L 199.06 135.40
  A 0.59 0.59 0.0 0 1 198.47 135.99
  L 178.34 136.00
  A 0.59 0.59 0.0 0 1 177.75 135.41
  L 177.75 99.78
  A 0.59 0.59 0.0 0 1 178.35 99.19
  L 186.69 99.27
  A 0.59 0.59 0.0 0 1 187.27 99.86
  L 187.22 128.47
  A 0.59 0.59 0.0 0 0 187.81 129.06
  L 198.49 128.98
  A 0.59 0.59 0.0 0 1 199.09 129.58
  Z"
/>
<path fill="#043932" d="
  M 262.98 128.25
  L 275.48 128.25
  A 0.48 0.48 0.0 0 1 275.96 128.72
  L 276.09 135.50
  A 0.48 0.48 0.0 0 1 275.61 135.99
  L 253.48 136.00
  A 0.48 0.48 0.0 0 1 253.00 135.52
  L 253.00 99.70
  A 0.48 0.48 0.0 0 1 253.48 99.22
  L 275.51 99.27
  A 0.48 0.48 0.0 0 1 275.98 99.74
  L 276.05 106.52
  A 0.48 0.48 0.0 0 1 275.57 107.00
  L 262.93 107.00
  A 0.48 0.48 0.0 0 0 262.46 107.48
  L 262.52 113.29
  A 0.48 0.48 0.0 0 0 263.00 113.77
  L 274.05 113.74
  A 0.48 0.48 0.0 0 1 274.53 114.23
  L 274.45 121.03
  A 0.48 0.48 0.0 0 1 273.96 121.51
  L 262.98 121.48
  A 0.48 0.48 0.0 0 0 262.50 121.96
  L 262.50 127.77
  A 0.48 0.48 0.0 0 0 262.98 128.25
  Z"
/>
<path fill="#043932" d="
  M 327.78 107.00
  L 319.47 107.00
  A 0.47 0.47 0.0 0 1 319.00 106.53
  L 319.00 99.69
  A 0.47 0.47 0.0 0 1 319.47 99.22
  L 347.53 99.26
  A 0.47 0.47 0.0 0 1 348.00 99.73
  L 348.00 106.53
  A 0.47 0.47 0.0 0 1 347.53 107.00
  L 338.22 107.00
  A 0.47 0.47 0.0 0 0 337.75 107.47
  L 337.75 135.53
  A 0.47 0.47 0.0 0 1 337.28 136.00
  L 328.72 136.00
  A 0.47 0.47 0.0 0 1 328.25 135.53
  L 328.25 107.47
  A 0.47 0.47 0.0 0 0 327.78 107.00
  Z"
/>
<path fill="#043932" d="
  M 159.69 113.82
  L 170.36 113.72
  A 0.63 0.63 0.0 0 1 171.00 114.35
  L 171.00 120.90
  A 0.63 0.63 0.0 0 1 170.36 121.53
  L 159.64 121.42
  A 0.63 0.63 0.0 0 0 159.00 122.05
  L 159.00 127.62
  A 0.63 0.63 0.0 0 0 159.63 128.25
  L 172.12 128.25
  A 0.63 0.63 0.0 0 1 172.75 128.88
  L 172.75 135.37
  A 0.63 0.63 0.0 0 1 172.12 136.00
  L 150.13 136.00
  A 0.63 0.63 0.0 0 1 149.50 135.37
  L 149.50 99.88
  A 0.63 0.63 0.0 0 1 150.13 99.25
  L 172.12 99.25
  A 0.63 0.63 0.0 0 1 172.75 99.88
  L 172.75 106.37
  A 0.63 0.63 0.0 0 1 172.12 107.00
  L 159.61 107.00
  A 0.63 0.63 0.0 0 0 158.98 107.64
  L 159.05 113.20
  A 0.63 0.63 0.0 0 0 159.69 113.82
  Z"
/>
<path fill="#043932" d="
  M 305.20 119.40
  Q 305.25 119.23 305.25 119.00
  Q 305.23 109.63 305.27 100.25
  A 1.00 1.00 0.0 0 1 306.27 99.25
  L 313.75 99.25
  A 1.00 1.00 0.0 0 1 314.75 100.25
  L 314.75 134.96
  A 1.00 0.99 -90.0 0 1 313.76 135.96
  L 305.59 136.01
  A 0.99 0.99 0.0 0 1 304.74 135.56
  L 292.21 116.26
  Q 290.74 114.00 290.74 116.70
  L 290.75 134.96
  A 1.00 1.00 0.0 0 1 289.76 135.96
  L 282.26 136.02
  A 1.01 1.00 -0.0 0 1 281.25 135.02
  L 281.25 100.29
  A 1.00 1.00 0.0 0 1 282.23 99.29
  Q 288.36 99.14 290.49 99.26
  Q 292.48 99.37 292.53 101.27
  A 1.02 1.01 -63.1 0 0 292.70 101.80
  L 304.47 119.49
  Q 304.93 120.19 305.20 119.40
  Z"
/>
<path fill="#043932" d="
  M 351.45 100.28
  A 1.00 0.99 89.7 0 1 352.43 99.28
  Q 361.01 99.16 369.77 99.32
  C 378.61 99.47 382.67 108.52 379.48 115.96
  C 378.48 118.28 376.27 120.64 373.93 121.27
  A 1.00 1.00 0.0 0 0 373.33 122.75
  L 380.29 134.48
  Q 381.19 135.99 379.44 135.99
  L 370.26 136.00
  A 0.99 0.99 0.0 0 1 369.34 135.38
  C 367.30 130.44 364.91 127.27 363.26 123.74
  C 362.67 122.47 361.01 120.88 360.90 124.02
  Q 360.71 129.44 361.05 134.90
  A 0.99 0.99 0.0 0 1 360.06 135.96
  L 352.51 136.01
  A 1.00 1.00 0.0 0 1 351.50 135.02
  L 351.45 100.28
  Z
  M 367.30 107.39
  Q 364.61 106.46 361.66 107.09
  A 0.99 0.98 -6.9 0 0 360.87 108.09
  L 361.04 114.52
  A 1.00 0.99 -89.7 0 0 361.99 115.49
  Q 363.88 115.58 365.68 115.50
  C 371.40 115.22 373.31 109.48 367.30 107.39
  Z"
/>
</svg>
