<?xml version="1.0" encoding="utf-8"?>
<!-- Generator: Adobe Illustrator 25.4.1, SVG Export Plug-In . SVG Version: 6.00 Build 0)  -->
<svg version="1.1" id="Capa_1" xmlns="http://www.w3.org/2000/svg" xmlns:xlink="http://www.w3.org/1999/xlink" x="0px" y="0px"
	 viewBox="0 0 1921 470" style="enable-background:new 0 0 1921 470;" xml:space="preserve">
<style type="text/css">
	.st0{fill:#213C36;}
	.st1{fill:none;stroke:#223C36;stroke-width:2.2976;stroke-miterlimit:10;}
	.st2{fill:none;stroke:#213C36;stroke-width:2;stroke-miterlimit:10;}
	.st3{fill:none;stroke:#213C36;stroke-miterlimit:10;}
</style>
<path class="st0" d="M447.9,118.4c0.1,0,0.2,0,0.2,0l0,0C448,118.4,448,118.4,447.9,118.4z"/>
<path class="st0" d="M1646.7,79.9L1646.7,79.9c-0.2,0-0.4,0-0.5,0.1C1646.3,80,1646.4,80,1646.7,79.9c0,0.1,0.1,0.1,0.3,0.1
	C1646.9,79.9,1646.8,79.9,1646.7,79.9z M1686,71.9c0.4,0,0.8-0.1,1.2-0.2C1686.8,71.7,1686.4,71.8,1686,71.9z M1658.7,77.2
	c-0.1-0.1-0.1-0.2-0.2-0.3c-0.2,0-0.3,0.1-0.3,0.1s0.1,1.4,0.5,1.2l1.8-1C1659.8,77.5,1659.2,77.5,1658.7,77.2z M1649,79.4
	c-0.7,0.2-1.4,0.4-2.1,0.5c0.7,0,1.3,0.1,1.8,0.4c0.3-0.1,0.4-0.1,0.4-0.1L1649,79.4z"/>
<path class="st0" d="M1684.8,76.2L1684.8,76.2l0.4-0.1L1684.8,76.2z"/>
<path class="st0" d="M392.7,200.9c0.4,0,0.7-0.1,1-0.2C393.4,200.7,393.1,200.8,392.7,200.9z M825.7,79.8l2.2-0.1
	C827.1,79.5,826.3,79.6,825.7,79.8z M993,99.9c0.4,1.5,1.3,4.2,2.6,8.1C995.3,106.9,994.2,103.8,993,99.9z M1105.8,82l1.2,0.1
	C1106.5,82,1106.2,82,1105.8,82z M1164.1,329l-0.2-0.3c-0.1-0.1-0.1-0.2-0.2-0.2l-0.9-0.1l0.4,0.7c0.1,0,0.4,0.1,1,0.2
	C1164.2,329.2,1164.2,329.1,1164.1,329z"/>
<path class="st0" d="M481.6,210.5l1.6,0.2C482.8,210.7,482.2,210.6,481.6,210.5z"/>
<path class="st0" d="M486.4,210.2c-0.1,0.2-0.2,0.5-0.3,0.7l-2.9-0.2c0.6-0.1,1.1-0.2,1.5-0.6L486.4,210.2z"/>
<path class="st0" d="M631.8,96.1c-0.1,0.2-0.2,0.4-0.5,0.3c-3-0.3-2.8-0.5,0.7-0.7c0.5,0,0.6,0,0.1,0.2H632
	C631.9,96,631.8,96,631.8,96.1z"/>
<path class="st0" d="M1398.8,153.8c-16.7-15.4-35.1-28.6-55-39.5c-4.1-2.3-8.2-4.7-12.6-7.5c-0.1-0.1-0.3-0.2-0.4-0.3l26.3,3.8
	c0.1,0,0.1,0,0.2,0l5,0.7c-0.3,0.1-0.6,0.2-1.1,0.1l-27.4-3.6l4.3,2.7c1.3,1.1,3.5,2.1,5.7,3.2c20.2,10.8,38.7,23.9,55.6,39.4
	c0.2,0.2,0.3,0.4,0.4,0.6C1400.4,154.8,1400,154.9,1398.8,153.8z"/>
<path class="st0" d="M201.5,123.1c0.6-2.6,0.7-4.2,0.5-4.9c-0.3-0.9-0.1-1.4,0.4-1.6c0.2-0.1,0.4,0.1,0.5,0.3v0.1l1,21.9
	c0,0.3-0.2,0.6-0.5,0.6c-1.9,0.5-2.9-0.2-2.8-2.1c0-1.2,0.1-1.9,0.1-1.9c-0.2-3.9-0.1-7.9,0.3-11.8c0-0.1,0.1-0.2,0.2-0.2
	C201.4,123.3,201.5,123.2,201.5,123.1z"/>
<path class="st0" d="M0,140.1l0.4,1.6c0.1,0.3,0.3,0.5,0.5,0.6c9.9,2.7,19.8,5.5,29.7,8.5c3.5,1,6.6,1.6,9.4,1.7
	c4.4,0.1,9.4-0.2,15-0.8c1.4-0.2,5-0.3,10.8-0.3c0.4,0.1,0.7,0.2,1,0.5c-6.7,0.7-12.1,1-16.1,1.1c-2.2,0-4.3,0.2-6.3,0.6
	c-1.4,0.3-2.9,1-4.3,2.1c-1.6,1.3-3.3,2.4-5,3.6C26.5,165,18,170.8,9.6,176.8c-0.6,0.4-0.5,0.6,0.2,0.7c8.1,0.7,16.3,0.9,24.4,0.7
	c0.3,0,0.6-0.1,0.9-0.3c13.1-10.7,26.5-19,40-25.1c0.9-0.4,1.3-0.7,1.2-1.1l2,0.5c-12.3,6-23.9,13-35,21c-1.5,1.1-3.1,2.3-4.7,3.6
	c-1.4,1.1-1.2,1.6,0.5,1.7c4.6,0.1,9,0.2,13.5,0.1c5,0,9.5,0,13.4,0.2c8.7,0.4,17.3,0.7,26,0.8c0.3,0,0.6-0.1,0.9-0.3
	c14.6-10.8,30.4-20.9,47.5-30.3c1.4-0.8,2.7-1.2,4-1.2c0.4,0,0.4,0.1,0.1,0.2c-11.1,6.2-22,12.7-32.7,19.6c-3.8,2.4-7.5,5-11.1,7.6
	c-0.1,0.1-0.8,0.5-2.1,1.2c-0.8,0.5-1.5,1.1-2,1.9c-0.6,0.9-0.4,1.4,0.7,1.4l29,0.9c0.6,0,1.1,0.1,1.7,0.4l51.3,2.3
	c0.6,0,1.2-0.2,1.7-0.6c6.6-6.3,13.5-12.1,20.4-17.5c-0.2,0.5-0.1,1.2,0.1,2.1c-2.9,1.7-5.5,3.6-8,5.8c-2.2,2-4,3.6-5.2,4.6
	c-1.7,1.5-3.4,3.1-5.1,4.8c-1,1-0.7,1.5,0.7,1.6l16.4,1c-0.3,0.7-0.8,1-1.5,0.9l-17.3-1c-0.6,0-1.2,0.1-1.7,0.5
	c-21,13.5-41.2,27.3-60.8,41.5c-24.1,17.5-43.8,32.8-59,45.7c-6.7,5.7-14.9,13-24.5,22C24.3,305.4,14.3,315.8,5.6,326
	c-2.2,2.5-3.9,4.4-5.3,5.7c-0.1-0.6-0.1-1,0.1-1.4c0.4-0.8,0.9-1.5,1.5-2.1c1.2-1.2,1.8-1.8,1.8-1.8c12.6-14.9,27.4-29.7,44.4-44.5
	c19.6-17,37-31.1,52.2-42.3c22-16.3,44.4-32.1,67-47.5c2.9-2,5.9-3.8,8.9-5.6c1.1-0.6,1-1.1-0.2-1.5c-1.5-0.4-3.1-0.7-5-0.7
	c-2.6,0-4-0.1-4-0.1c-13.4-0.7-32.5-1.7-57.2-2.8c-6.9-0.3-12.8-0.5-17.8-0.5c-2.5,0-3.9,0-4,0c-1.2,0.2-2.4,0.7-3.8,1.4
	c-19,10.4-33.6,18.8-43.6,25.1c-13,8.2-25.7,16.7-38.2,25.5c-1.3,0.9-1.8,0.8-1.3-0.4c0.1-0.3,0.3-0.5,0.6-0.7
	c26.1-18.1,53-34.7,80.9-50c1.3-0.7,1.3-1.2-0.3-1.3c-2.9-0.2-6-0.4-9.1-0.3c-4.3,0-7.4,0-9.1-0.1c-19.9-0.8-40.4-1.2-61.4-1.3
	c-1.6,0-2.3,0.8-2.3,2.4l-0.2,51.7c0.1-0.6,0-1.2-0.3-1.8v-55l0.5,1.3c0.1,0.3,0.4,0.4,0.6,0.4c1-0.2,1.9-0.2,2.7-0.1
	c1.6,0.2,3-0.1,4.1-1.1c0.9-0.8,1.4-1.2,1.5-1.2c9.7-6.8,18.8-13.1,27.2-18.9c2.6-1.8,2.3-2.6-0.8-2.3L0,156.8v-2.7
	c0.2,0.3,0.3,0.6,0.3,1c0,0.3,0.3,0.5,0.5,0.5l32.5-2.1c0.1,0,0.3-0.1,0.3-0.1l0.1-0.1c0.1-0.1,0.1-0.3,0-0.4c0,0-0.1,0-0.1-0.1
	c-11-3.6-22.2-6.6-33.5-9.2L0,140.1z"/>
<path class="st0" d="M1542.1,458.6c0.2,0.1,0.4,0.1,0.5,0.1c34.2,0,68.4,0,102.6-0.1H1542.1z M571.3,458.6
	c-45.2,0-90.5-0.1-135.7-0.1c0.4,0.3,1,0.5,1.7,0.4c0.9-0.1,1.4-0.1,1.4-0.1c44.3-0.1,88.7,0,133,0.2c0.2,0,0.4-0.1,0.5-0.3
	C571.9,458.7,571.6,458.7,571.3,458.6z M320.3,458.5l111.6,0.1c0.2,0,0.4,0,0.5-0.1C395,458.4,357.7,458.4,320.3,458.5z
	 M517.1,109.3l-13.3,1.7l14.4-0.7c0-0.1,0-0.1,0-0.2C518.1,109.6,517.6,109.2,517.1,109.3z M517.8,110.6c0.2,0,0.3-0.1,0.4-0.3
	C518.1,110.4,518,110.5,517.8,110.6z M1617.3,359.6c5.3-1.1,10.6-2.1,15.9-2.8c13.7-1.9,27.3-3.8,40.9-5.9
	c37.5-5.5,75.1-10.8,112.7-15.8c44.5-5.9,89.2-11.2,133.8-15.7c0.3,0,0.6,0.1,0.7,0.4l0.3,0.9v-2.5c-59.6,6.3-119.1,13.6-178.5,22
	c-41.3,5.8-82.5,11.7-123.8,17.7c-5.9,0.9-9.5,1.4-10.8,1.6c-6.1,0.8-12.2,1-18.4,0.5l8.9-0.1c0.3,0,0.3,0,0-0.1
	c-0.7-0.1-1.4-0.2-2.1-0.3c-0.7-0.1-1.4-0.2-2.1-0.2c-15.2,0.2-30.4,0.1-45.6-0.1c-1.4,0-4.3-0.2-8.9-0.5c-2.8-0.2-5.7-0.2-8.9-0.2
	c-7.5,0.2-14.9,0-22.4-0.4c-5.9-0.3-10.7-0.6-14.4-0.7c-4.8-0.1-9.6-0.3-14.4-0.6c-0.1,0-2.9-0.1-8.4-0.1c-3.3,0-6.5-0.4-9.4-1.2
	c-1.7-0.4-1.7-0.8,0-1c70.9-10.4,141.8-20.8,212.8-31c51-7.4,102-14.2,153.1-20.4c29.6-3.6,59.2-6.8,88.8-9.7c0.1,0,0.5,0,1.3,0.1
	c0.5,0,0.8-0.1,1-0.5c0,0,0-0.1,0-0.2c0-0.2-0.2-0.3-0.4-0.3c-2.7-0.1-6.3,0.2-10.9,0.6c-60.2,6.3-120.3,13.6-180.2,21.9
	c-50,7-100,14.2-150,21.6c-41.9,6.2-83.8,12.2-125.7,18.1c-0.1,0-0.6,0.1-1.6,0.3c-1.4,0.3-3.3,0.3-5.7,0c-5-0.5-10-0.6-15-0.2
	c-0.6,0-0.7,0.2-0.2,0.6c0.1,0.1,0.3,0.1,0.4,0.1c2.3,0.1,4.7,0.3,7,0.5c0.3,0,0.6,0.2,0.8,0.5c7.5,12.5,15.4,23.3,23.6,32.5
	c6.4,7.2,14,14.9,22.9,23.2c4.1,3.8,9.1,8.3,15,13.2c12.1,10.2,24.2,20.4,36.5,30.4c2.2,1.8,1.6,2.7-1.7,2.7l-108.4,0.1h110.8
	c0.4,0,0.6,0.1,0.7,0.2h0.5c0.3-0.2,0.9-0.2,1.8-0.2h2.5c-0.6-0.2-1.4-0.5-2.4-1.2c-3.7-2.2-7.1-4.7-10.3-7.4
	c-10.1-8.6-20.2-17.1-30.4-25.6c-11.6-9.6-22.5-20-32.8-31c-8.3-8.9-15.8-18.6-22.4-28.8c-0.1-0.1-0.8-1.2-2.2-3.2
	c-1-1.4-1.8-2.9-2.5-4.5v-0.1c0-0.2,0.1-0.4,0.3-0.4c4.9-0.3,9.8-0.2,14.7,0.4c2.5,0.3,5.2,0.5,8.1,0.5c2.1,0,4.8,0.1,8.2,0.3
	c10.1,0.5,30.6,1.2,61.4,2.1c0.3,0,0.6,0.1,0.9,0.3c2.1,2,5,5.2,8.7,9.6c6.3,7.4,13.5,14.8,21.6,22.3c4,3.7,9.1,8,15.2,13
	c22.1,17.8,44.7,34.9,68,51.1c0.5,0.4,0.8,0.8,0.9,1.2c0.1,0.6-0.1,1-0.7,1.2c-0.3,0.1-0.7,0.2-1.2,0.2h2.4c0.4,0,0.6,0.1,0.7,0.2
	h0.5c0.6-0.3,1.2-0.4,1.8-0.3c-0.1-1.3-0.8-2.3-2.2-3c-1.7-0.8-4.7-2.7-8.9-5.8c-18.2-13.2-36.2-26.8-54-40.6
	c-18.4-14.3-35-30.4-49.9-48.3c-0.1-0.1-0.1-0.2-0.1-0.2c-0.1-0.3,0.1-0.6,0.4-0.7c1.9-0.4,3.7-0.5,5.4-0.4c1.5,0.1,2.3,0.1,2.3,0.1
	c19.1,0.5,38.2,0.8,57.3,1c4.9,0,11.6,0.1,20,0.3c9.7,0.2,17.2,0.2,22.6-0.1c2.4-0.1,4.1,0.6,5.2,2.1c1.2,1.6,4.9,5.3,11.1,11.2
	c9.8,9.3,20,18,30.7,26.3c0.2,0.2,0.5,0.3,0.7,0.4c0.6,0.2,0.9,0,0.7-0.5c-0.1-0.2-0.2-0.4-0.4-0.5c-15.3-11.5-29.5-24.1-42.6-38
	c-0.5-0.6-0.4-0.9,0.4-0.9c16.9,0,33.9-0.1,50.8-0.2c2.4,0,9.1-0.1,20-0.3c8.6-0.1,17.2-0.1,25.8,0c0.3,0,0.6,0.1,0.9,0.3
	c17.2,13.7,35.1,26.2,53.9,37.6c33.9,20.6,68.7,39.7,104.2,57.3c0.5,0.3,0.9,0.6,1,0.9c0.4,0.8,0,1.3-1.3,1.3c-0.2,0-0.6,0.1-1,0.3
	c-0.4,0.1-0.7,0.2-1.1,0.2c-40-0.3-80-0.3-120.1,0l93.2,0.3l30.9,0.3h2.2l12.3-0.5l-9.2-0.3c-0.3,0-0.6-0.1-0.8-0.4
	c-0.6-0.7-1.5-1.2-2.6-1.7c-4.4-1.8-9.8-4.4-16.1-7.9c-6.8-3.6-13.6-7.2-20.4-10.8c-16.2-8.5-33.8-18.2-52.8-29.2
	c-7.7-4.5-14.7-8.8-21.2-12.9c-8.9-5.7-14.5-9.3-16.8-10.8c-9.1-5.9-17.9-12.2-26.4-19c-1.1-0.8-2.7-1.9-4.8-3.2
	c-0.9-0.5-1.1-1.1-0.4-1.7c0.2-0.2,0.5-0.3,0.9-0.3c8-0.3,13.1-0.5,15.3-0.4c4,0.1,7.5,0.1,10.6-0.1c6.5-0.4,9.7-0.5,9.8-0.5
	c21.6-0.5,43-1.2,64.2-2.1c0.7,0,1.4,0.2,2,0.7c19.9,15.9,40.6,29.4,62.3,40.4c1.7,0.9,3.1,1.7,4.2,2.6c0.2,0.2,0.5,0.3,0.9,0.3
	c0.9,0,1.4,0.5,1.7,1.4l-0.1-2.3c-23.5-11-45.6-24.9-66.2-41.6c-1.3-1-1.1-1.6,0.6-1.7c14.1-0.5,28.5-1.1,43.3-1.8
	c1,0,4.4-0.3,9.9-0.7c3.3-0.2,6.6-0.3,10-0.4c0.1,0,0.1,0,0.2,0c0.3-0.1,0.4-0.3,0.3-0.5s-0.3-0.3-0.6-0.3
	c-5.8-0.1-11.6,0.1-17.3,0.6c-2.8,0.2-7.2,0.5-13.3,0.6c-5,0.1-9.4,0.3-13.3,0.5c-18.1,0.9-36.2,1.7-54.3,2.3c-0.9,0-7,0.3-18.4,0.8
	c-6.5,0.3-12.7,0.4-18.4,0.3c-5.7-0.1-11.1,0-16.2,0.3c-5.7,0.3-10.1,0.5-13.4,0.5h-13.4c-0.3,0-0.6-0.1-0.7-0.2
	c-0.2-0.2,0-0.4,0.6-0.5c6.5-1.1,12.1-1.9,16.7-2.5c6.3-0.8,9.4-1.1,9.5-1.1c50.2-6.7,100.4-12.6,150.8-17.6c0,0,0.4,0,1.1,0.1
	c0.4,0,0.7-0.1,0.8-0.5v-0.1c0-0.2-0.2-0.4-0.4-0.4c-2.4,0.1-5.4,0.3-9.2,0.7c-61.4,6.4-120.6,13.5-177.8,21.5
	c-6.9,1-14.7,1.4-23.5,1.5c-25.6,0-41.1,0.1-46.5,0.3c-2.7,0.1-5.1,0.1-7.2,0c-3.4-0.1-5.8-0.2-7.2-0.1c-10.4,0.2-20.5,0.3-30.4,0.2
	C1615,360.4,1615,360.1,1617.3,359.6z M872.2,77.3h-3.8l0.3,0.5l0.1,0.1c0.9,0,1.9,0,2.8,0c0.3,0,0.5,0,0.8-0.1
	C872.9,77.7,872.8,77.5,872.2,77.3z M959.3,76.3c0.9,0.3,1.4,0.7,1.7,1.3c0,0,0,0.1,0.1,0.1h1.7v-0.3c0-0.4,0.2-0.6,0.5-0.8
	c0.2-0.1,0.4-0.1,0.6-0.1L959.3,76.3z M985.4,76.6L985.4,76.6c-0.3,0-0.5,0.3-0.5,0.5c0,0.1,0.1,0.5,0.3,1h0.8
	C985.7,77.2,985.4,76.6,985.4,76.6z M1030.7,79.2c-0.4-0.2-0.6-0.1-0.8,0.2v0.1h1.2C1031,79.4,1030.9,79.2,1030.7,79.2z
	 M1051.7,80.4c-0.5-0.1-0.9-0.1-1.3-0.1L1051.7,80.4h0.3C1051.9,80.4,1051.8,80.4,1051.7,80.4z M1102.3,81.7c-4.1,0-4.4,0.3-0.9,0.9
	c0.2,0.1,0.5,0.2,0.7,0.3c0,0,0.1,0.1,0.2,0.1c0.7,0,1.5,0.1,2.2,0.1c0.1,0,0.1,0,0.2,0c0-0.2,0.1-0.5,0.3-0.7
	c0.2-0.2,0.5-0.4,0.9-0.4L1102.3,81.7z M1122.1,83.1c0.6,0.4,1.1,0.9,1.7,1.3h0.1c2.2,0.2,4.3,0.3,6.5,0.4c0.3,0,0.6,0,0.8,0.1
	c1.6-0.4,3.2-0.6,4.8-0.6L1122.1,83.1z M1174,87.5l-2.5,0.4c-0.3,0.1-0.3,0.1,0,0.2c0.1,0,0.2,0,0.2,0c2.2,0.5,4.3,0.6,6.5,0.6h0.3
	c1.1-0.1,2.1,0,2.8,0.3c0.2,0,0.5,0,0.7,0.1c1.3,0.1,2.5,0.2,3.8,0.3h0.1c0-0.2,0.2-0.3,0.6-0.2c1.1,0.2,2.1,0.4,3.1,0.5
	c0.3,0,0.6,0.1,0.9,0.1c1.2,0.1,2.5,0,3.7-0.1L1174,87.5z M1420.7,173.9l-0.5-0.5c-0.7,0-0.8,0.3-0.2,0.9c0.1,0.1,0.2,0.3,0.4,0.4
	l0,0l0.7-0.4L1420.7,173.9z M1423.2,124.4l-0.7-0.6c-0.2,0-0.3,0.1-0.3,0.3c-0.1,0.2,0,0.4,0.1,0.6l0.1,0.1c0.2,0.1,0.3,0.2,0.5,0.3
	c0,0,0,0,0.1,0.1c0.2,0.1,0.3,0.2,0.5,0.3v-0.9L1423.2,124.4z M542.6,104.1l-27.4,3.8c2.6-0.1,5.2-0.3,7.8-0.7
	c3.5-0.5,6.8-0.9,9.8-1.2c3.3-0.3,6.6-0.8,9.8-1.6C542.9,104.3,542.9,104.2,542.6,104.1z M510.7,108.3c-0.1-0.2-0.2-0.4-0.5-0.4
	l0.1,0.5l0.2,0.4c0.1-0.1,0.2-0.2,0.2-0.3C510.7,108.4,510.7,108.4,510.7,108.3z"/>
<path class="st0" d="M1714.7,418.8c-2.6-1.8-5.1-3.6-7.7-5.4c-0.2-0.1-0.2-0.4-0.1-0.5l0.1-0.1c0.4-0.3,0.8-0.2,1.2,0.2
	c0.6,0.5,0.8,0.8,0.8,0.8c20.3,14.2,41.1,27.7,62.5,40.3c0.3,0.2,0.3,0.4,0,0.5c-0.5,0.1-1.1,0-1.7-0.3
	C1751,443,1732.6,431.3,1714.7,418.8z"/>
<path class="st0" d="M839.3,459.2l-2.7-0.1c-0.5-0.2-0.5-0.4-0.1-0.6c0.8-0.3,0.9-0.7,0.2-1.2c-0.2-0.2-0.3-0.4-0.4-0.8
	c0-0.4-0.1-0.9-0.4-1.5c-4.2-11.2-7.6-22.7-10.2-34.4c-0.3-1.1-0.1-1.6,0.4-1.2c0.2,0.1,0.4,0.4,0.5,0.8
	C829.1,433.9,833.3,446.8,839.3,459.2z"/>
<path class="st0" d="M1431.7,122.3c-0.2,0-0.4-0.1-0.6-0.1"/>
<path class="st0" d="M1181.4,89c-1.1-0.1-2.1-0.2-3.2-0.3l0,0c-2.2-0.2-4.3-0.4-6.5-0.6l0,0c-13.7-1.2-27.1-2.2-40.5-3.2l0,0
	L1181.4,89z"/>
<path class="st0" d="M1123.8,84.5L1123.8,84.5c-6.4-0.5-12.8-0.9-19.1-1.3L1123.8,84.5z"/>
<path class="st0" d="M1399.1,153.2"/>
<polygon class="st0" points="1421.1,174.3 1420.4,174.7 1420.2,174.8 1399.5,154.4 1399.4,154.3 1398.3,153.2 1399.2,152.7 
	1399.2,152.7 1399.4,152.9 1420.2,173.4 "/>
<polygon class="st0" points="988.8,297.3 1008.5,301.2 1008,302 988.9,298.5 "/>
<path class="st0" d="M1164.2,329.2c-0.6-0.1-0.9-0.2-1-0.2l-0.4-0.7l0.9,0.1c0.1,0.1,0.2,0.1,0.2,0.2l0.2,0.3
	C1164.2,329.1,1164.2,329.2,1164.2,329.2z"/>
<polygon class="st0" points="824.8,412.5 826.7,421 825.9,421.1 824.1,412.6 "/>
<path class="st0" d="M1432.2,354.7l-21.3-1.2c0,0,0.4,0.1,1.5,0.8c1.1,0.7,18.1,1.5,18.1,1.5L1432.2,354.7z"/>
<polygon class="st0" points="1690.2,399.6 1709,413.7 1708.3,414.4 1688.8,399.8 "/>
<path class="st0" d="M388.9,201.1l82.1,8.5l-0.2-1.3l-76.1-8c0,0-4.1,0.5-6.5-0.1L388.9,201.1z"/>
<path class="st0" d="M484.7,210.1c-0.4,0.3-0.9,0.5-1.5,0.6l2.9,0.2c0.1-0.2,0.2-0.5,0.3-0.7L484.7,210.1z M483.2,210.6l-1.6-0.2
	C482.2,210.6,482.8,210.7,483.2,210.6z"/>
<path class="st0" d="M1919.2,20.5c-44,9.6-88,19.3-132,29.2c-20,4.5-49.3,10.9-87.9,19.1h-0.1c-0.2,0-0.4-0.2-0.4-0.4
	c0.1-1.6-0.1-3.1-0.5-4.6c-0.7-2.7-1-4.4-1.1-4.9c-0.3-2.9-0.2-5.6,0.3-8.1c0.3-1.7,0.6-1.7,0.9,0c0.3,2.4,0.4,4.7,0,7.1
	c-0.2,1.7,0.2,2.8,1.4,3.2h0.3c0.4-0.1,0.7-0.4,0.7-0.8c-0.6-5.7-1.1-10.9-1.4-15.5c-0.2-2.3-0.5-3.9-1.1-4.8
	c-1-1.5-2.6-2.4-4.8-2.4c-4.2-0.1-9.2,0.2-15,0.9c-6.6,0.8-11,1-13.3,0.6c-5.9-1-11.2-1-15.8-0.2c-4.4,0.8-8.9,0.6-13.5-0.5
	c-1.6-0.4-2.9-1.2-3.8-2.3c-0.2-0.3-0.5-0.4-0.8-0.3c-0.8,0.2-1.2,0.8-1.4,1.6c-0.1,0.4-0.2,0.7-0.4,0.9c-3.1,3.8-5.4,7.2-6.8,10
	c-1.3,2.7-0.5,4,2.6,3.9c2.5,0,5.1-0.5,7.7-1.5c0.8-0.3,1.6-0.2,2.3,0.3c1.8,1.4,2.9,2.7,3.5,3.8c0.8,1.5,3.3,5.5,7.7,11.8
	c0.2,0.2,0.4,0.4,0.8,0.6l1.4,0.8c0.2,0.1,0.4,0.4,0.5,0.8c0.8,3.1,1.2,6.2,1.2,9.3c0,0.4-0.1,0.7-0.4,0.8c-0.3,0.2-0.7,0.3-1,0.4
	l0.2,0.8c0,0-0.1,0-0.4,0.1c0.1,0,0.2,0.1,0.2,0.2c0.2,0.2,0.3,0.5,0.3,0.8c-0.3,2,0.5,2.7,2.4,1.9c0.5-0.2,0.9-0.6,1-1.2
	c0.4-1.8,1-2.5,1.8-2c0.4,0.2,0.7,0.4,0.9,0.4c1.3,0.2,2.2-0.3,2.7-1.5c0.2-0.3,0.4-0.6,0.6-0.7c-0.4,0.2-0.5-1.2-0.5-1.2
	s0.1,0,0.3-0.1c-0.1-0.2-0.2-0.3-0.2-0.5l0.1-11c0-0.4,0.4-0.8,0.9-0.8c3,0.1,5.7,0.4,7.9,0.9c4.3,1,8.3,0.6,11.8-1.3
	c1.9-1,3.7-1.2,5.5-0.5c0.3,0.1,0.7,0.1,1,0.1c1.3-0.2,2.2,0.4,2.6,1.8c0.6,2,1,3.5,1.1,4.7c0,0.3-0.1,0.6-0.3,0.8
	c-1.5,0.3-8.3,1.6-15.1,3c-6.9,1.3-13.7,2.6-15.3,2.9c0.1,0.1,0.1,0.2,0.2,0.3c0.5,0.3,1.1,0.3,1.8,0l-1.8,1
	c0.4-0.1,25.5-5.3,30.1-6c0.3,0.2,0.5,0.6,0.6,1c0.1,0.3,0,0.6-0.3,0.7l-3.3,1l-0.6,0.2c0,0,0,0,0-0.1c-8.3,2.3-16.7,4.7-25,7
	c-1.1,0.3-3.1,1-6,2c-1.5,0.5-3.6,1.1-6.1,1.7c-2.4,0.6-5.5,1.5-9.1,2.6c-45.9,14.2-89.2,29.1-129.9,44.5c-0.3,0.1-0.6,0.2-1,0.1
	c-6.6-1.2-13.3-2.1-20-2.8c-1.7-0.2-3-0.5-3.9-0.9c-1.3-0.7-1.3-1.2,0.1-1.8c24.4-9.4,48.9-18.1,73.4-26.2c0.2-0.1,0.4-0.2,0.4-0.3
	c12.5-3.6,55.2-13,55.2-13s0.1-0.1,0.1-0.3c1.1-0.3,2.2-0.5,3.1-0.6c1.5-0.2,2.9-0.5,3.9-0.8c2.3-0.7,4.9-1.2,7.8-1.4
	c1.2-0.1,2.5-0.4,3.8-0.9c0,0,0,0,0.1,0c3.7-0.8,14.3-3.2,16.6-3.7c-0.6-0.3-1.1-0.5-1.8-0.4h-0.4c-4.8,1.2-14.6,3.3-17.1,3.8
	c-0.1,0-0.2,0.1-0.3,0.1l-16.3,3.2h-0.1l-30.1,7.2c0.1,0,0.1,0,0.2,0.1c-13,3.2-27.5,6.6-27.5,6.6c-1.2,0.3-2.4,0.6-3.5,1
	c-2.8,1.1-4.2,1.6-4.3,1.6c-13.3,4.4-26.6,9.1-39.8,14c-7.8,2.9-15.7,5.9-23.5,8.7c-2.2,0.8-3.8,1.5-4.8,2.1
	c-0.3,0.2-0.6,0.2-0.9,0.2l-19.2-2.9c-0.5,0.1-0.8-0.1-0.8-0.3l-7.1-0.8l-0.6-0.1c-6.2-1-12.5-1.9-18.7-2.7c-0.2,0-0.5,0-0.7,0.1
	s-0.3,0.1-0.4,0.2c-0.4,0.2-0.6,0.3-0.6,0.4c0,0.1,0.4,0.2,1.2,0.3c0.2,0,0.5,0,0.7,0.1c6.2,1,12.3,1.9,18.4,2.7
	c0.9,0.1,1.8,0.4,2.6,0.9c20,13,39.1,26,57.4,39.2c9.4,6.8,18.5,14,27.3,21.7c0.6,0.5,0.5,0.8-0.3,0.9l-35.9,5.2
	c-0.5,0.1-1-0.1-1.4-0.5c-7.7-8-15.2-15.8-22.6-23.6c-5.4-5.6-10.1-10.3-14.3-14c-12.7-11.3-26.2-21.6-40.3-31.1
	c-0.1-0.1-0.3-0.2-0.5-0.4c-0.1-0.1-0.2-0.2-0.3-0.2l0.9,0.8v0.9c0.1,0.1,0.2,0.1,0.3,0.2c13.6,9.3,26.6,19.6,38.8,30.6
	c0.2,0.2,0.3,0.5,0.4,0.8c0,0.5,0.3,0.8,0.7,1c0.4,0.2,0.7,0.3,0.9,0.4c3.2,2.8,6.3,5.7,9.4,8.7c8.6,8.5,17.1,17.1,25.3,26
	c0.6,0.7,0.5,1-0.4,1.2l-52.1,7.7c-0.9,0.1-1.9-0.2-2.5-1l-23.4-27.3c-0.2-0.3-0.4-0.4-0.7-0.4l0.9,0.9h-0.1l-0.6,0.4
	c0.1,0.1,0.2,0.2,0.3,0.4c7.7,8.4,15.3,17.2,22.8,26.6l0.1,0.1c0,0.2-0.1,0.3-0.2,0.4c-9.7,2-19,3.4-28,4.2c-0.3,0-0.6-0.1-0.8-0.3
	c-12.3-13.8-23.1-25-32.2-33.8c-25.1-24.2-53-46.3-83.5-66.5c-1.1-0.7-2-1.3-2.7-1.6c-0.6-0.3-1-0.5-1.2-0.8c-1-1.1-0.5-1.6,1.5-1.5
	l-5.5-0.8c-0.3,0.3-0.2,0.6,0.5,1c29.1,18,56.7,39.2,82.8,63.8c5.6,5.2,10.4,9.8,14.4,13.8c8.6,8.4,16.6,17.1,24.1,26.1
	c0.5,0.6,0.4,1-0.4,1.1l-55.8,8.2c-0.3,0-0.6,0-0.9-0.3c-1.3-1.2-2.7-2.8-4.2-4.8c-14.2-19.6-30.2-38-48.1-55.2
	c-4.7-4.5-9.6-8.9-14.9-13.4c-19.2-16.1-38.9-30.2-58.9-42.2c-2.6-1.5-4.4-2.8-5.5-3.6c-0.2-0.1-0.3-0.2-0.4-0.2l-3.7-2.7l-2.3-0.2
	l7.2,5l0.7,0.5c0.4,0.2,0.7,0.4,1,0.6c22.2,13.3,43.9,28.9,64.8,46.8c11,9.4,20.5,18.5,28.6,27.4c11.9,13,23.1,26.8,33.5,41.3
	c0.8,1.2,0.5,1.9-0.9,2.1l-43.2,6.1c-1.4,0.2-2.5-0.3-3.3-1.5c-15-22.5-31.6-44.1-49.8-64.8c-21-23.9-42.9-44.4-65.7-61.4
	c0,0-0.5-0.3-1.4-0.9c-1.3-0.9-2.4-2.1-3.1-3.8c0,0,0-0.1-0.1-0.1c-0.1-0.1-0.1-0.2-0.1-0.3c-1.5-0.1-3-0.3-4.5-0.4
	c0.2,0.1,0.5,0.2,0.7,0.3c0,0,0.1,0,0.1,0.1c0.7,0.4,1.3,0.9,1.9,1.3c0.9,0.8,1.5,1.3,1.8,1.6c22.5,16.2,43.7,35.2,63.6,57.2
	c20.6,22.7,39.3,46.8,56.2,72.3c0.1,0.1,0.1,0.2,0.1,0.3c0.1,0.3-0.2,0.7-0.5,0.7l-59.6,8.4c-0.5,0.1-1-0.2-1.2-0.6
	c-10.7-19.1-22.1-37.7-34.2-55.8c-15.3-22.9-33.1-43.7-53.4-62.3c-9.4-8.6-18.7-17.3-28.1-26c-0.1-0.1-0.1-0.2-0.2-0.2
	c-0.1-0.3,0.1-0.6,0.4-0.7c0.6-0.1,1.1-0.3,1.6-0.5c0.2-0.1,0.4-0.1,0.6-0.1c-2.5-0.2-4.9-0.3-7.4-0.5c0.1,0.1,0.2,0.1,0.3,0.2
	c5.6,4.4,13,11,22.2,19.6c11.7,10.9,21.3,20.2,28.9,28c4.7,4.8,9.1,9.8,13.3,14.9c10.9,13.3,20.9,27.2,30,41.9
	c8.5,13.7,16.9,27.7,25,42.1c0,0.1,0,0.1,0,0.2c0,0.3-0.1,0.5-0.4,0.5l-32.8,4.5c-0.6,0.1-1.1-0.2-1.4-0.7
	c-6.3-12.3-12.6-24-18.9-35.4c-16.2-28.7-34.6-55.8-55.4-81.4c-9.1-11.2-18.9-22.7-29.5-34.4c-0.3-0.3-0.4-0.7-0.4-1.1v-0.1
	c-0.8,0-1.6-0.1-2.4-0.1l0,0c2.1,1.9,4.1,3.9,5.8,6c3.4,4,5.2,6.1,5.2,6.2c15.6,17.3,29.5,34.5,41.6,51.6
	c19.5,27.5,37.1,57.2,52.8,89.2v0.1c0,0.2-0.1,0.4-0.3,0.4l-55.6,7.5c-1.2,0.2-2-0.3-2.5-1.5c-6.9-16.7-14.2-32.7-21.9-48.2
	c-11.6-23.4-25.3-46.3-41.1-68.6c-11.4-16.1-22.8-31-34.2-44.6c-0.2-0.2-0.3-0.4-0.2-0.6l0,0c0,0,0,0,0-0.1c-0.5,0-1,0-1.6-0.1
	c24.9,29.2,46.7,60.6,65.6,93.9c3.2,5.7,6.3,11.6,9.4,17.7c8.5,17,16.2,34,23.1,51.3c0,0.1,0,0.1,0.1,0.2c0.1,0.5-0.3,0.9-0.8,1
	c-15.8,2.3-30.9,4.1-45.2,5.5c-0.3,0-0.6-0.1-0.8-0.4c-1-1.5-2.2-4.1-3.8-7.8c-12.9-30.7-25.3-61.6-37.3-92.6
	c-8.9-22.9-18.6-45.4-29.3-67.5c-0.3-0.5-0.4-1.1-0.3-1.7c0-0.1,0-0.2,0-0.3c0,0,0-0.1-0.1-0.1h-1.2c0,0.1,0,0.1-0.1,0.2
	c0,0.2,0,0.5,0.2,0.8c8.5,17.8,15.2,32.7,20.1,44.5c3,7.2,10.4,25.8,22.3,55.8c9,22.6,18.2,45.5,27.8,68.5c0,0.1,0.1,0.2,0.1,0.2
	c0,0.4-0.3,0.8-0.7,0.9c-2,0.2-3.9,0.4-5.8,0.7c-5.7,0.9-11.4,1.5-17.1,1.8c-0.4,0-0.8,0.1-1.3,0.2s-0.9,0.2-1.4,0.2
	c-5.5,0.4-11.1,1-16.6,1.8c-5.7,0.8-11.6,1.4-17.6,1.8c-0.6,0-1.1-0.3-1.2-0.8c-1-2.7-1.9-5.3-2.5-7.8c-0.8-2.9-1.1-4.3-1.2-4.4
	c-8.1-28.6-16.2-57.3-24.3-85.9c0,0-1.5-5.5-4.5-16.3c-9.4-33.9-14.7-47.6-13-41.8c-2.4-7.5-5.8-17.8-7.1-21.7h-0.8
	c1.6,5.6,10,31.8,10.2,32.3c0.5,1,0.8,1.6,0.9,1.9c5.2,16.8,10.2,33.7,15,50.6c5.3,18.9,10.6,37.7,16,56.5
	c3.6,12.3,6.9,24.6,10.1,37c0,0,0,0,0,0.1c0,0.2-0.2,0.4-0.4,0.5l-34.1,3.6c-0.5,0.1-1-0.3-1.1-0.8c-6.1-23-12.1-45.8-18-68.3
	c-5.5-21.1-10.4-42.3-14.5-63.8c-2.5-13.2-4.4-26.4-5.8-39.8c0-0.1-0.2-1.5-0.6-4.4c-0.3-2-0.3-3.9-0.1-5.8v-0.1h-1.7c0,0,0,0,0,0.1
	c0.7,2.1,1.2,4.7,1.5,7.7c1.6,16.8,4,33.5,7.4,50c4.3,21.2,9.2,42.2,14.7,63.1c5.4,20.5,10.8,41,16.2,61.4c0,0.1,0,0.1,0,0.2
	c0,0.4-0.3,0.7-0.7,0.7c-1.6,0-3.4,0.1-5.3,0.3c-17.3,1.7-34.7,3.2-52,4.5c-0.3,0-0.6-0.1-0.7-0.4c-1.3-3.7-2.4-7.4-3.2-11.3
	c-1.2-5.6-1.9-8.5-1.9-8.5c-1.2-5-2.4-10.1-3.5-15.1c-1.4-6.7-2.5-11.8-3.3-15.2c-7.8-34.6-14.2-68.8-19.1-102.6
	c-1.3-9.2-2.4-19.3-3.2-30.2v-0.8c0.1-1.1-0.6-4.3-1.1-3.8c-0.2,0.2,0.2,3.5,0.2,3.9c0.1,4.8,0.3,8.8,0.7,12
	c3.5,28.7,7.8,55.5,12.8,80.2c5.3,26.8,12,57.2,20.1,91.2c0.1,0.3-0.1,0.6-0.4,0.6c-1.4,0.4-2.7,0.6-4.1,0.7
	c-2.7,0.1-4.1,0.2-4.2,0.2c-7.1,0.7-14.1,1.3-21.2,1.7c-3,0.2-6.9,0.5-11.8,0.9c-3.8,0.3-7.7,0.6-11.8,0.7c-0.9,0-1.7-0.6-1.8-1.5
	c-0.4-2.9-0.7-5.6-0.8-8.2c-0.2-3.9-0.3-5.8-0.3-5.9c-1.6-21.7-3.4-43.3-5.5-65c-0.1-1.1-0.2-2.3-0.1-3.5c0-1.5,0-2.6-0.1-3.5
	c-2-23.7-4-47.4-5.9-71.1c-0.6-7.3-0.9-14.7-0.8-22c0-3-0.2-6-0.8-9c-0.1-0.3,0.1-0.9,0.4-1.8c0.1-0.2,0.2-0.3,0.5-0.4
	c0,0,0.1,0,0.1-0.1c0.1,0,0.2,0,0.3-0.1c-1.1,0-2.2,0-3.3,0.1c-0.1,0-0.2,0-0.3,0l1,1.3c0.2,0.3,0.4,0.6,0.4,0.8
	c0.9,20.1,1.7,32.5,2.2,37.2c0.9,7.9,1.5,15.7,1.9,23.6c0.1,1.5,0.3,3.7,0.6,6.8c0.2,1.7,0.4,4,0.6,6.8c0.8,9.9,1.6,19.7,2.3,29.6
	c0.5,6.8,1,13.5,1.6,19.9c1.9,21.2,3.7,42.3,5.2,63.5c0.1,2-0.6,3-2.2,2.9h-2.2c-6.7,0.6-13.4,1.1-20.1,1.5c-2.6,0.1-5.3-0.1-8-0.6
	c-9.9-2-17.3-3.4-22-4.2c-4.7-0.7-8.8-1.6-12.3-2.6c-0.3-0.1-0.5-0.3-0.5-0.6c-0.6-8.8-0.6-17.7,0-26.5c0.5-6.8,0.8-13.5,0.9-20.3
	c0.1-3.7,0.2-7.3,0.4-11c0.1-2.4,0.3-6.1,0.4-11c0.1-3.3,0.3-7,0.6-11.2c0.4-6,0.8-16.2,1.2-30.8c0.3-13.9,0.8-27.8,1.4-41.8
	c0-0.1,0.2-4.5,0.5-13.3c0.2-6.8,0.7-12.2,1.3-16.2c0.2-1.2,0.9-2,2-2.3l-7.2,0.3c1.2,0,2.3,0.5,3.1,1.2c0.2,0.2,0.4,0.5,0.4,0.9
	c0.2,4.2,0.2,7.3,0,9.2c-1.2,12.3-1.7,25.6-1.7,39.7c0,4-0.1,8.7-0.4,14c-0.2,4.9-0.4,9.6-0.5,14c-0.2,6.3-0.4,12.5-0.8,18.8
	c-0.2,3.6-0.4,7.6-0.5,12.1c-0.1,4-0.3,8.1-0.5,12.1c-1.3,20.8-1.8,41.5-1.6,62v0.1c-0.1,0.4-0.4,0.6-0.8,0.5l-47-8.7
	c-0.6-0.1-1.1-0.6-1.1-1.2c-0.5-7.4-0.5-14.7-0.1-22.1c0.6-11.2,1.2-22.4,1.8-33.6c0.5-9.6,2.1-23.3,4.9-41c0.2-1.3,0.5-2.9,0.9-4.7
	c0.5-2.1,0.8-3.7,0.9-4.7c0.2-2.3,0.6-4.6,1.2-6.9c4.5-18.5,10-36.6,16.5-54.4c0-0.1,0.2-0.9,0.6-2.4c0.6-2.2,2.1-3.5,4.5-4
	c-3.5-0.2-7.1,0-10.5,0.7c0.6,0.5,1.6,0.6,3,0.3c2.5-0.5,3.2,0.6,2.2,3.2C779,120.6,770.7,157.7,768,196
	c-1.2,18.1-2.1,36.3-2.5,54.5c0,0.1,0,0.8,0.1,2c0.1,1.8-0.7,2.5-2.5,2.1c-0.7-0.2-1.1-0.3-1.2-0.3c-1.4-0.2-2.8-0.5-4.2-0.8
	c-1.5-0.3-2.9-0.6-4.1-0.8c-5.1-0.7-10.2-1.6-15.3-2.6s-10.2-1.9-15.3-2.8c-6.2-1-12.5-2.2-18.9-3.7c-0.8-0.2-1.4-0.9-1.3-1.8
	c2.4-23.1,5.9-45.7,10.4-67.9c6.4-31.2,16.6-61.2,30.5-89.8l-8.4,0.9c1.2,0.5,2.5,0.7,4,0.4c1.6-0.3,2,0.2,1.4,1.7
	c-13.6,29.6-23.5,60.6-29.6,92.9c-4.4,23.3-7.4,43.1-9.1,59.6c0,0.5,0,1.3,0.2,2.3c0.3,1.5-0.4,2-2.1,1.5c-1-0.3-1.7-0.5-2.1-0.6
	c-11.3-1.9-22.4-3.8-33.4-5.8c-0.3-0.1-0.6-0.4-0.6-0.7c0,0,0-0.1,0-0.2c4.1-19.5,8.3-38.8,12.6-57.9c1.2-5.4,3-12,5.4-20
	c3.7-12.5,8.5-24.7,14.2-36.4c5.1-10.4,12.3-22.3,21.8-35.6l-8.8,1l4.3,0.3c1.3,0.1,1.6,0.7,0.9,1.7c-10.6,14.9-19.3,30.8-26.1,47.8
	c-2.2,5.4-4.3,11.7-6.5,18.9c-4,13.4-7.5,27-10.4,40.7c-2.8,13.2-5.5,26.2-8.3,39c-0.2,0.7-0.8,1.1-1.5,1l-60.8-10.2h-0.1
	c-0.8-0.2-1.3-1.1-1.1-1.9c8.2-32.2,19.5-62.3,33.9-90.3c7.6-14.9,16.5-29,26.6-42.4c-1.6-0.2-3.1-0.1-4.4,0.3c1-0.1,1.5,0.3,1.7,1
	c0.1,0.3,0,0.6-0.3,0.9c-7.7,10.2-14.2,20-19.4,29.4c-12.6,22.9-23.2,47.4-31.5,73.4c-1.1,3.5-2.5,8.3-4.2,14.3
	c-1.3,4.8-2.7,9.6-4.1,14.4c-0.1,0.3-0.4,0.6-0.8,0.5l-47.4-7.4h0.3c-0.4-0.1-0.7-0.6-0.6-1c1.1-4.2,2.3-8.4,3.8-12.6
	c0.9-2.6,2.4-6.8,4.5-12.4c13.7-36.7,35-68.7,63.9-95.9c0.3-0.2,0.6-0.4,1-0.4c4.2-0.3,4.4-0.6,0.5-0.9l-15,1.8l8.8-0.3
	c1.9-0.1,2.2,0.5,0.8,1.8c-6.8,6.6-13.3,13.7-19.5,21.1c-11,13.2-20.4,27.4-28.3,42.6c-8.7,16.7-16,35.2-21.9,55.5
	c-0.1,0.3-0.4,0.5-0.6,0.4l-61-8.2c-0.1,0.2-0.2,0.5-0.3,0.7l-2.9-0.2c-0.5,0-1,0-1.6-0.2l1.6,0.2c0.6-0.1,1.1-0.2,1.5-0.6l-2.8-0.2
	l-26-3.1c-0.1,0-0.2,0-0.3-0.1c-0.5-0.2-0.7-0.8-0.5-1.3c2.5-5.4,5-10.9,7.5-16.7c4.6-10.6,9.9-20.8,15.8-30.8
	c10.7-18.3,23.9-34.1,39.4-47.2h-0.4c-0.3,0-0.7,0.1-0.9,0.2c-7.1,5.7-13.3,11.7-18.6,17.9c-12.6,14.9-23,31.1-31.3,48.7
	c-4.4,9.3-8.7,18.8-12.9,28.5c-0.3,0.6-0.6,0.8-0.9,0.7c-3.5,0-6.8-0.2-9.8-0.7c-1.6-0.2-3.9-0.5-6.9-0.7c-2.3-0.2-4.6-0.6-6.8-1.2
	c-0.3-0.1-0.6-0.1-1,0c-1.1,0.2-2.2-0.1-3.1-0.8c-0.4-0.3-1-0.5-1.5-0.5c-4,0.2-8.1,0.2-12.2,0c-0.8,0-3.1-0.4-6.9-0.9
	c-2.3-0.4-4.6-0.5-7-0.4c-1.5,0.1-1.9-0.5-1.2-1.9c7.4-14.5,15.3-28.4,23.7-41.9c8.6-13.6,19.6-26.9,33.1-39.7
	c0.2-0.2,0.5-0.4,0.9-0.4l49.7-6.5l-5.1,0.3c14.3-1.9,35.4-4.5,50.1-6.3l2.9,0.2c0.8,0.3,1.7,0.4,2.5,0.2c0.7-0.1,1.1,0.1,1.1,0.6
	c0,0.2-0.1,0.5-0.4,0.8c-29.5,30-52.6,64-69.1,102c-0.3,0.5-0.6,1-1,1.2l1.7,0.1c7.2-17.1,16.5-34.2,27.9-51.3
	c10.3-15.4,21-29.2,32.1-41.4c0.8-0.9,2.7-3.1,5.5-6.4c2.3-2.6,4.3-4.6,6.1-5.9c1.6-1.2,4-1.8,7.2-1.9c0.1,0,0.2,0,0.3-0.1
	c0.2-0.2,0.3-0.3,0.1-0.3c0.1,0,0.2,0,0.2,0s-0.9-0.8-1.9-1.2c-0.4-0.2-0.7-0.2-1.1-0.2c-0.8,0-29.6,3.9-52.2,6.9
	c-0.1,0-0.2,0-0.3,0c-14.8,2-26.8,3.6-26.8,3.6s0,0.1-0.1,0.1H483c-8.3,1.4-16.9,2.5-25.9,3.4c-0.5,0.1-1.1,0-1.6-0.2
	c-79-29.2-159.1-53.5-240.2-73.1c-24-5.8-48.1-11.2-72.3-16.4c-6.2-1.3-12.5-2.7-18.7-4.1C124.3,21.6,5.7,5.1,0,4.7L0,6
	c0,0,123.5,16.9,123.9,16.8C197.4,37.7,270.2,56.1,342,78c36.8,11.2,73.1,23.4,108.9,36.7c1.1,0.4,1.1,0.7-0.1,1l-4.7,1.1h0.1
	c-1.2,0.3-2.7,0.7-3.7,1c-3.3,0.5-6.7,0.8-10.1,1.1c0,0-0.5,0.1-1.5,0.2c-1.5,0.2-3.2-0.1-5.3-0.9c-33.7-12.7-71.6-25.3-113.9-37.9
	c-41.8-12.4-84-23.6-126.5-33.6C125.3,32.6,64.9,20.4,4.2,10.2C2.8,9.9,1.4,9.6,0,9.2v12.1c0.1-0.2,0.2-0.4,0.3-0.5
	c0.2-0.1,0.5,0,0.8,0.2s0.6,0.3,0.9,0.3h0.9c7.3,1.1,19.1,3.3,35.3,6.3c68.3,12.9,135.9,28.6,202.9,47.1
	c31.2,8.6,60.3,17.3,87.3,26.2c0.4,0.2,0.7,0.4,0.7,0.8c0.1,0.3-0.2,0.5-0.5,0.6c-5.9,1-12.2,0.9-18.8-0.1c-1-0.1-4-0.5-8.9-1
	c0,0-1.6-0.1-4.6-0.2c-2-0.1-3.9-0.5-5.8-1.1c-2.2-0.8-3.4-1.2-3.4-1.2c-29.5-8.8-47.1-13.9-53-15.6C210,76.3,181.5,68.9,148.5,61
	C100.3,49.4,51.8,39.2,3,30.2c-0.3,0-0.6-0.1-0.9-0.3c-0.7-0.4-0.9-0.1-0.7,0.8c0,0.2,0.3,0.5,0.6,0.5c5.4,0.8,11.9,2,19.5,3.7
	c34.5,6.7,67.2,13.6,98.2,20.6C176,68.3,231.3,83,285.5,99.7c2,0.6,2,1.1-0.1,1.4c-7,1.1-13.9,1.6-20.9,1.5
	c-4.3-0.1-7.5-0.1-9.4-0.1c-1.3,0-2.5-0.2-3.6-0.6s-2.3-0.8-3.5-1.2c-0.1-0.1-0.4-0.1-1-0.2c-0.4-0.1-0.7-0.3-1-0.6
	c-0.3-0.3-0.5-0.5-0.8-0.5c-2.4-0.4-5.2-1-8.5-1.9c-10.1-2.8-17.5-4.9-22.2-6.2C143.8,71.2,72.4,54.2,0.3,40.4
	c-0.2,0.7-0.2,1.1-0.1,1.3c4,0.3,7.8,0.9,11.7,1.7c9.9,2,19.6,4,29.4,6.1c56.9,11.8,113.3,25.7,169.1,41.6c0,0,3.8,1.1,11.1,3.1
	c5,1.4,10,2.9,14.9,4.5c0.4,0.1,0.6,0.3,0.5,0.6c0,0.2-0.3,0.4-0.7,0.4c-5,0.2-10,0.1-15-0.5c-4.5-0.5-9-0.3-13.4,0.5
	c-1.5,0.2-2.9,0.2-4.2-0.2c-12.1-3.3-24.1-6.7-36.2-10c-8.2-2.2-16.4-4.4-24.7-6.4c0,0-1.8-0.6-5.4-1.7c-1.2-0.4-2.4-0.6-3.7-0.8
	c-1.5-0.2-2.7-0.4-3.7-0.7c-2.6-0.7-7.6-1.9-14.9-3.7C70.7,65.4,32.5,56.9,0.3,50.6L0,53.3v9.9c1.5-0.1,2.9,0,4,0.2
	c54.4,11.5,109.5,25.1,165.4,41.3c11.8,3.3,21.6,6.3,29.5,8.9c0.3,0,0.6,0.3,0.6,0.6c0.2,1.3,0.3,2.5,0.3,3.8c0,1.8-0.2,3.5-0.7,5.1
	c-0.2,0.6-0.8,0.9-1.4,0.7C148.6,108.6,100,95.4,51.8,84c-16.5-3.9-33-7.6-49.5-11.3c-0.3-0.1-0.7,0-0.8,0.3
	c-0.6,0.9-0.2,1.2,1.2,1.1c0.6-0.1,1.1-0.1,1.5,0c65.5,14,130.1,31,193.9,50.8c0.6,0.2,1,0.8,0.9,1.4l-1.5,10.3
	c-0.1,0.3-0.3,0.5-0.6,0.5c-2,0.1-4.1-0.3-6-1c-2-0.7-3-1.1-3-1.1C126.6,115.4,64.6,98.4,1.8,84c-0.2,0-0.5,0-1,0.1
	C0.3,84.2,0,83.7,0,82.8v2.8c3.4-0.1,6.7,0.3,9.9,1.2c2.7,0.7,4.1,1.1,4.2,1.1C36,93.1,59.4,99,84.5,105.6
	c38,10.1,74.8,21,110.5,32.7c0.8,0.2,1.4,0.6,1.8,1c1.2,1.3,0.5,2.1-2.1,2.3c-5.5,0.4-10.9,0.8-16.4,1.1c-2.1,0.1-4.1-0.1-6.1-0.7
	c-8.2-2.5-16.3-5-24.5-7.6c-8-2.5-14.3-4.5-19.1-5.9c-38.7-11.4-77.7-21.9-117-31.4c0,0-1.5-0.2-4.4-0.8c-1.8-0.3-3.6-0.9-5.3-1.7
	c-0.2-0.1-0.5-0.1-0.9,0c-0.6,0.2-0.9-0.2-1-1.1l0.1,2.3c5,0.8,13.4,2.7,25.3,5.6c49.1,12.1,97.4,25.6,144.8,40.8
	c1.5,0.5,1.4,0.8-0.1,1c-5.8,0.7-11.5,1.1-17,1.4c-0.1,0-2.5,0.2-7.2,0.6c-2,0.1-4.1,0.2-6.2,0.1c-1.9,0-3.9-0.4-6.1-1.1
	C94.8,132.1,55.8,121,16.4,110.9c-0.1,0-2-0.5-5.8-1.3c-3.7-0.8-7.3-2.1-10.7-3.7l0.1,9.2l-0.2,4.3c1.8,0.1,3.6,0.3,5.4,0.8
	c32.1,8.3,63.9,17.3,95.5,27c0.3,0.1,0.6,0.2,0.7,0.4c0.2,0.3,0.1,0.6-0.3,0.8c-0.2,0-0.4,0.1-0.7,0.1c-7.4,0.3-11.8,0.6-13.3,0.8
	c-5.8,0.8-11.7,1.1-17.5,1c-1,0-2.1-0.2-3.4-0.7c-0.9-0.3-2.1-0.7-3.4-1.1c-21.1-6.3-42.2-12.3-63.4-18.3l0.2,2.9
	c0-1.3,0.4-1.7,1.2-1.3c0.3,0.1,0.6,0.2,0.9,0.2c0.4-0.1,0.8,0,1.2,0.1c21.1,5.7,42.1,11.8,63,18.1c0.6,0.1,0.6,0.3,0.2,0.5
	l-0.6,0.3c0.4,0.1,0.7,0.2,1,0.5c3.1-0.5,6.3-0.5,9.5-0.2l2,0.5c1.6-0.8,3.1-1.2,4.5-1.3c19.5-1.3,38.9-2.7,58.4-4.2
	c0.1,0,0.6-0.1,1.6-0.3c0.8-0.2,1.6,0,2.4,0.4c0.3,0.2,0.6,0.3,0.9,0.2c4.7-1.2,9.5-1.8,14.4-1.9c1.9,0,4.1-0.1,6.6-0.4
	c2.3-0.3,4.5-0.3,6.6-0.1c1.2,0.1,1.3,0.5,0.3,1.1c-14.4,9-28.2,18.8-41.4,29.4c0,0-0.9,0.7-2.7,1.9c-1.4,1-2.6,2.3-3.6,3.8
	c0.6,0,1.1,0.1,1.7,0.4c1.5-2.3,2.8-3.7,3.8-4.2c1.3-0.6,2.5-1.4,3.6-2.3c1.9-1.7,3-2.6,3-2.6c12.4-9.4,25.1-18.4,38.2-26.8
	c1.3-0.8,2.8-1.3,4.3-1.5c5.2-0.6,10.2-1,15.1-1.2c0.1,0,0.1,0,0.2,0c0.6,0.1,1,0.7,0.9,1.3l-0.8,5.9c-0.2,1.6,0.4,1.9,1.7,0.9
	c2-1.5,3.1-3.5,3.3-5.9v-1c0-1.2,0.7-1.8,2.3-1.8c0.5,0,1.1,0.4,1.2,1c0.4,1.7,0.3,3.4-0.3,5c-1.5,4.3-2.7,8.5-3.7,12.9
	c-0.2,0.8-0.2,1.6,0,2.3s0.4,1.5,0.6,2.3c-0.2,0.6-0.1,1.3,0.1,2.1c1,7,1.3,12.7,1.1,17.3c-0.1,1.3-0.8,1.4-2.3,0.5
	c-0.3,0.7-0.8,1-1.5,0.9l3.2,0.4c0.3,0,0.5,0.3,0.4,0.6l-0.9,5.6c-0.1,0.3,0.1,0.6,0.3,0.8c3.2,2.1,6.7,2.6,10.5,1.6
	c0.3,0,0.5-0.3,0.5-0.6c0-0.7-0.4-1.3-1-1.6c-2.1-1.1-3.4-2.6-3.8-4.6c-0.3-1.4,0.2-2,1.6-1.8l5.2,0.8c0.5,0.1,0.8,0.6,0.7,1.1
	c-0.5,2.7,0.5,4.5,2.8,5.4c1.9,0.7,4.3,0.7,7.2-0.1c0.3,0,0.5-0.3,0.5-0.6c0-1.3-0.6-2.3-1.6-3c-0.8-0.5-1.2-1.2-1.2-2v-0.3
	c0.1-0.3,0.3-0.4,0.6-0.4c4.3,0.5,8.6,0.9,13,1.2c8,0.5,12,0.8,12.1,0.8c14.7,1.1,29.3,2.2,44,3.3c0.8,0.1,1.5,0.4,2,1.1
	c0.1,0.2,0,0.5-0.2,0.6c-38.8,23.5-75.6,49.8-110.5,78.8c-3.5,2.9-6.9,5.9-10.3,9c-4.7,4.3-8,7.4-10,9.3
	c-4.8,4.5-10.5,10.4-17.3,17.6c-14.7,15.7-27,30.8-36.8,45.2c-15.2,22.4-26.7,46.5-34.5,72.4c-1.2,4.1-2.4,9-3.5,14.6
	c-0.9,5-1.9,9.9-2.9,14.8c-0.1,0.1-0.1,0.4-0.3,0.7c-0.1,0.3-0.1,0.5,0.2,0.6c0.3,0.2,0.5,0.4,0.4,0.6c-0.2,0.6-0.6,0.9-1.4,0.9
	c-22,0-44,0.1-66,0.1l65.4,0.5h1.5c1-0.3,2-0.3,3-0.2c-1.6-1-2.2-2.3-1.8-3.9c0.4-1.8,0.7-2.7,0.7-2.8c0.3-2.6,0.9-5.6,1.6-9
	c5.2-23.8,13.7-46,25.5-66.8c15.8-27.9,35.4-53.4,59-76.5c18.7-18.3,37.5-34.7,56.5-49c26.7-20.2,54.7-39.1,83.9-56.8
	c0,0,0.1-0.1,0.2-0.1c0.7-0.2,1.4,0.2,1.6,0.8c0.6,1.9,1.8,2.9,3.5,2.9c1.2,0,2.7-0.2,4.5-0.5c0.1,0,0.1,0,0.1,0
	c0.3-0.1,0.4-0.4,0.3-0.6c-0.6-1.7-0.4-2.6,0.4-2.8c0,0,0.7,0,2,0.1c18.6,1.3,31.4,2.4,38.2,3.2c8.2,1,14.6,1.6,19,1.8
	c2.8,0.1,7.4,0.7,13.8,1.7c0.3,0.1,0.4,0.2,0.1,0.4c-7.8,5.5-18.7,13.6-32.9,24.4c-20.6,15.7-39,30.4-55.3,44.1
	c-5.9,5-10.9,9.4-15,13.2c-18.1,16.8-35.3,35.9-51.7,57.2c-14.4,18.7-26.1,38.9-35.2,60.6c-1.5,3.5-2.7,7.1-3.8,10.7
	c-4.5,15.1-7.4,30.6-8.9,46.3c0,0.3-0.2,0.6-0.5,0.6c-1.8,0.3-1.8,0.6-0.1,0.9v0.2h1.5l2.8-0.3l-1.4-0.4c-0.3-0.1-0.5-0.3-0.5-0.6
	c0.1-5.7,0.5-11,1.2-15.7c1-6.5,2.4-13.1,4.1-20c1.6-6.6,3.6-13,6-19.1c5.3-13.5,11.8-26.4,19.5-38.7c10.7-17,22.7-33,36.1-48
	c21.4-24.1,44-45.4,67.7-63.8c9.7-7.5,17.2-13.4,22.5-17.6c3-2.4,6.3-4.8,9.8-7.4c3.4-2.4,6.6-4.8,9.9-7.3c8.6-6.6,17-12.8,25-18.5
	c1.6-1.1,3.4-1.5,5.5-1.2l8.6,1.3c-0.1-1.3-1.1-1.7-2.7-1.2c-7.2-1-14.4-1.8-21.7-2.3c-2.2-0.1-5-0.4-8.4-0.9
	c-2.8-0.4-5.6-0.7-8.4-0.8c-1.2-0.1-1.4-0.6-0.8-1.5c10.1-15.1,21.6-29.1,34.6-41.9c10.3-10.1,21.1-20.5,32.5-31
	c0.6-0.6,1.4-0.9,2.2-1.1c8.1-1.5,16.3-2.4,24.6-3h0.6c0.1,0,0.2,0,0.2-0.1c0.7-0.2,1.6-0.4,2.1-0.5c0.1,0.1,0.1,0.2,0.2,0.3
	c0.1,0.3,0,0.6-0.2,0.8c-13.2,12.9-23.9,26.1-32.1,39.5c-9.5,15.7-17.1,29.2-22.8,40.7c-0.2,0.5-0.6,0.9-1,1.1
	c1-0.1,1.6,0.4,1.7,1.4c6.3,0.5,12.7,1.1,19,2c2.4,0.3,5.8,0.6,10.2,0.9c2.3,0.2,4.6,0.4,6.8,0.7c2.6,0.4,4.9,0.6,6.8,0.8
	c4,0.3,8,0.7,12,1.2c3.5,0.5,7.5,0.9,12,1.3c4.2,0.4,8.2,0.9,11.9,1.6c1.6,0.3,1.8,0.9,0.4,1.9c-25.7,18.1-49.4,38-71.3,59.7
	c-5.2,5.1-9.7,10-13.5,14.8c-6.2,7.6-11.9,15.5-17.2,23.7c-3.2,5-6.7,10.7-10.5,17c-11.2,19-20.3,38.7-27.4,59.1
	c-3.3,9.5-6.5,20.1-9.8,31.9c-3.3,11.7-5.7,23.6-7.2,35.7c0,0.2-0.1,0.5-0.4,0.9c-0.3,0.5-0.4,1.3-0.3,2.3c0,0.7-0.5,1.2-1.3,1.2
	l-4.5,0.1l5.9,0.3h0.2c0.1-0.2,0.4-0.2,0.8-0.2h1.7c-0.3,0-0.6-0.2-0.7-0.5c-0.7-2.3-0.9-4.3-0.7-6.2c2.2-14.1,5.6-29.1,10.3-44.8
	c9.8-33,24.8-65,44.9-96c9.4-14.4,19.4-27,30-37.8c3.2-3.2,8-7.9,14.3-14c5.6-5.4,11.4-10.5,17.4-15.4c3.2-2.6,8.4-6.7,15.6-12.5
	c8.7-6.9,17.7-13.5,27.1-20c0.3-0.2,0.6-0.3,0.9-0.2l79.7,10.8c1,0.1,1.1,0.5,0.3,1.1c-18.2,15.4-35.4,31.9-51.4,49.3
	c-4.9,5.3-9.2,10.4-12.9,15.2c-17.5,22.5-31.5,47.2-42.3,74.1c-8.2,20.4-13.7,41.2-16.7,62.3v0.9c0.1,1,0,1.4-0.1,1.2
	s-0.3-0.1-0.3,0.1c-0.4,3.4-0.7,6.8-1.1,10.2c-0.2,1.8-0.4,5.3-0.6,10.7c-0.2,3.5-0.5,7.1-1.1,10.8c-0.1,0.3-0.2,0.5-0.5,0.7h3.2
	c-0.4-0.3-0.6-0.8-0.6-1.5c-0.1-1.2-0.1-1.9-0.2-2c-0.2-1.3-0.3-2.2-0.3-2.8c0.7-18.7,3.3-37.1,8-55.3c4.9-18.9,11.6-37.1,20.2-54.6
	c3-6,6.1-11.9,9.3-17.7c13.1-23.4,29.6-45,49.5-64.7c14.8-14.6,28.1-27,40.1-37.2c0.2-0.2,0.6-0.3,0.9-0.2c31.7,4.7,63,9.7,94,15.1
	c0.9,0.1,1.1,0.5,0.4,1.2c-17.5,19.1-32.1,39.8-44,62.1c-8.2,15.4-15.3,31.3-21.4,47.6c-2.2,5.9-4.3,11.8-6.4,17.8
	c-1.3,3.7-2.5,7.8-3.6,12.2c-0.7,2.7-1.4,5.5-2.1,8.2c-0.9,3.3-1.5,6-2,8.3c-1.7,8.4-3.1,16.8-4.1,25.3c-0.7,5.8-1,12.1-1.1,19
	c-0.1,6.4,0,12.8,0.2,19c0,0.2-0.1,0.3-0.2,0.4h0.5l0.1-0.2c0.5-1,0.6-2.1,0.4-3.2c0-0.2,0-0.2,0.1,0c0.3,0.4,0.5,0.3,0.6-0.2
	c0-0.1,0.1-0.3,0-0.5c-0.5-5.2-0.7-10.5-0.6-15.8c0.7-22.7,4.4-44.9,11.2-66.6c4.6-14.7,10-29,16.1-43.1c8.4-19.5,18.8-38.4,31-56.5
	c8.5-12.5,17.7-24.1,27.7-34.6c0.2-0.2,0.5-0.3,0.8-0.3l87,15.2c0.1,0,0.2,0.1,0.2,0.1c0.3,0.2,0.4,0.6,0.2,0.9
	c-7.6,11.4-14.3,23.5-20.3,36.3c-0.2,0.4-0.5,0.9-0.9,1.4c-0.3,0.5-0.6,0.9-0.9,1.4c-4.3,8.8-8.5,17.6-12.4,26.5
	c-6.1,13.8-11.1,28-14.9,42.6c-5.6,21.4-8.5,42.7-8.5,63.8c0,9.2,0.8,19.2,2.4,30.1c0,0.3,0.2,0.6,0.5,0.7c0.4,0.1,0.5-0.1,0.3-0.7
	c-0.5-2-1.1-6.4-1.6-13.3c-0.4-4.8-0.6-9.3-0.6-13.3c-0.2-22.3,2.6-44.4,8.3-66.1c4.6-17.4,10.7-34.3,18.3-50.6
	c9.3-19.9,19.7-39.4,31.3-58.4c0.4-0.7,1.2-1,2-0.9l95.8,17.8c0.1,0,0.2,0,0.2,0.1c0.4,0.2,0.6,0.7,0.4,1.2
	c-5.2,10.8-9.7,22-13.5,33.3c-3.1,9.3-5.7,18.8-7.8,28.3c-5.6,26.2-6,52.5-1.2,78.9c0,0.2,0.1,0.3,0.2,0.5c0.6,1.2,0.9,1.2,0.7,0
	c-2.2-12.4-3.2-24.5-3-36.2c0-1.4,0.1-5.1,0.4-11.1c0.2-4.1,0.4-7.8,0.9-11.1c3.7-28.4,12-55.9,24.9-82.6c0.3-0.5,0.8-0.8,1.4-0.7
	c11.1,2.3,22.2,4.4,33.4,6.3c0.7,0.1,2.5,0.5,5.5,1.1c1.4,0.3,3.2,0.7,5.5,1.1c14.4,2.7,29.2,5.5,44.4,8.5c0,0,0,0,0.1,0
	c0.4,0.1,0.7,0.5,0.5,0.9c-4.5,16.4-7.6,32.8-9.3,49.1c-2.3,21.5-1.1,42.6,3.4,63.5c1.4,6.3,3.2,12.7,5.5,19.2
	c4.1,11.8,9.1,23.3,15,34.4c0.9,1.8,0.5,2.7-1.4,2.8v0.2c0.4,0.1,0.8,0,1.2-0.1c39.7-0.1,79.4-0.2,119.1-0.1c0.4,0,0.6,0.1,0.7,0.2
	l2.2-0.1c26.2-0.1,52.5-0.2,78.7-0.1l-76-0.2c-0.6,0-1.2-0.3-1.6-0.8c-2.5-3.4-4.7-6.5-6.5-9.6c-10.3-17.6-19.5-35.7-27.5-54.4
	l0.6,2.5c9.4,21.1,20.1,41.4,32.1,60.9c0.6,1,0.3,1.5-0.9,1.5H957.2c-0.9,0-1.7-0.5-2.1-1.3c-4.4-8.5-8.4-17.2-12-26.1
	c-6.1-15.2-10.3-30.9-12.5-47.1c-1.1-8.2-1.4-16.4-0.8-24.7c0.1-1,0.1-1.8,0.1-2.3c-0.3-5.4-0.2-10.7,0.4-16.1
	c1.7-16.6,4.9-33.6,9.6-50.8c0.2-0.7,0.9-1.2,1.7-1l48.7,9.3c0.4,0.1,0.7,0,0.8-0.2c0.2-0.2,0.1-0.5-0.1-0.7
	c-0.1-0.1-0.3-0.2-0.6-0.2c-19.4-3.4-38.8-7-58.2-10.9c-0.5-0.1-0.8-0.3-0.8-0.6c0-0.2,0.2-0.5,0.6-0.5c82.2-8,150.4-15,204.6-21.3
	c108.3-12.4,216.3-26.4,324.2-42c68.8-9.9,137.5-19.9,206.2-30c31.1-4.5,72.6-10.2,124.5-17c37.4-4.9,79.8-9.7,127-14.4h0.1
	c0.3-0.1,0.6-0.3,0.5-0.5l-0.1-0.2c0-0.1-0.2-0.2-0.4-0.2c-8,0.8-28.8,3-62.4,6.7c-10.6,1.2-19,2.1-25.1,2.9
	c-4.7,0.6-10.3,1.3-16.8,2c-4.4,0.5-10.1,1.2-16.8,2.1c-40.5,5.3-65.7,8.6-75.8,10c-40.8,5.7-81.5,11.5-122.2,17.5
	c-46.8,6.9-93.7,13.7-140.6,20.5c-126.6,18.3-250.4,33.9-371.2,47c-13,1.4-22.5,2.5-28.7,3.2c-1.8,0.2-4.9,0.5-9.1,0.9
	c-2.3,0.2-5.4,0.5-9.2,0.9c-21.4,2.2-42.8,4.4-64.2,6.6c-12.5,1.3-25,2.4-37.5,3.4c-1.8,0.1-4.5,0.5-8.1,1c-3.8,0.5-6.5,0.6-8.2,0.3
	c-7.6-1.4-15.2-2.8-22.9-4.1c-0.2,0-2.1-0.5-5.5-1.2c-1.4-0.3-3.2-0.7-5.5-1.1c-7.7-1.3-15.4-2.7-23.1-4.1c-0.3-0.1-0.5-0.3-0.5-0.6
	c0-0.3,0.2-0.5,0.4-0.8c0.2-0.2,0.5-0.3,0.9-0.3c7.5-0.2,15-0.7,22.5-1.3c12.2-1,18.8-1.5,19.9-1.6c14.5-1,31.2-2.4,50.3-4.1
	c68.4-5.9,135.1-13.2,200.1-21.7c67-8.8,137.1-18.6,210.5-29.5c21.7-3.2,76.4-11.2,163.9-24.1c57.1-8.4,114.2-16.4,171.3-24.1
	c0,0,3.9-0.4,11.5-1.2c2.8-0.3,5.5-0.7,8.2-1.2c3.4-0.7,6.2-1.1,8.2-1.3c13.1-1.5,26.2-3.1,39.3-4.8c44.5-5.6,93.2-11.1,146-16.3
	c0.3,0,0.5-0.2,0.5-0.5c0-0.2-0.3-0.4-0.6-0.4c-2.4,0.1-5.6,0.5-9.5,1c-2.9,0.4-6.8,0.7-11.7,0.9c-0.3,0-0.7-0.1-0.8-0.4
	c-0.4-0.6-0.1-0.8,0.7-0.7c0.3,0,0.6,0,0.9-0.1c6.5-1.8,12.9-3.7,19.4-5.6c0.3-0.1,0.6-0.1,0.9,0c0.6,0.2,0.9-0.1,0.8-0.7
	c-0.1-0.2-0.3-0.3-0.5-0.3h-0.1c-10.4,2.6-20.7,5.5-30.9,8.6c-1.7,0.5-4.4,0.9-8.2,1.3c-17.9,1.7-35.9,3.7-53.7,6
	c-1.1,0.1-1.5-0.1-1.1-0.9c0.2-0.2,0.4-0.5,0.8-0.6c30.7-9.4,61.5-18.2,92.5-26.5c2.1-0.5,2-0.8-0.1-0.9c-0.2,0-0.4,0-0.7,0.1
	c-33.5,8.9-66.8,18.5-99.9,28.6c-3.3,1-6.7,1.7-10.2,2.1c-13.3,1.5-26.6,3.1-39.8,5c-2.1,0.3-2.8,0-2-0.8c0.2-0.3,0.6-0.5,1.1-0.7
	c50.2-16.7,101-31.7,152.3-44.7c0.3-0.1,0.6-0.3,0.6-0.6c0-0.4-0.2-0.5-0.7-0.4c-51.9,13.1-104.8,28.7-158.7,46.7
	c-3.5,1.2-7,2-10.4,2.5c-3.5,0.5-7.1,1.1-10.7,1.5c-3.9,0.5-7.7,0.4-11.5-0.3c-1.3-0.2-2.6-0.4-3.9-0.3c-0.1,0-0.2,0-0.2,0
	c-0.2-0.1-0.1-0.2,0.1-0.2c0.1,0,0.1,0,0-0.1c-2.1-0.3-4.3-0.6-6.5-0.9c-2.1-0.2-2.2-0.6-0.3-1.2c0.4-0.1,0.7-0.2,0.8-0.3
	c66.1-23,133.4-42.7,201.9-58.9c1.4-0.3,1.4-0.6,0-1c-0.5-0.1-1.1,0-1.7,0.2c-0.8,0.3-1.3,0.5-1.6,0.6
	c-70.6,16.8-137.8,36.5-201.7,59c-2.9,1-5.4,1.4-7.4,1.1c-6.3-0.8-12.7-1.6-19-2.3c-1.4-0.2-1.5-0.5-0.2-0.9
	c22.7-8.1,45.5-15.8,68.5-23c54.1-17,108.7-31.9,163.9-44.8h0.1c0.3-0.1,0.5-0.4,0.4-0.6s-0.2-0.3-0.4-0.4h-0.5
	c-39.1,9.2-76.4,18.9-111.7,29c-39,11.2-78.8,23.9-119.6,38.2c0,0-0.8,0.4-2.4,1c-1.8,0.7-3.6,1-5.4,0.7s-2.7-0.4-2.8-0.4
	c-3.8-0.3-7.6-0.8-11.4-1.5c-0.1,0-1.7-0.2-5-0.5c-1.7-0.2-3.4-0.6-5.2-1.3c-0.9-0.3-0.9-0.7,0-1c21.6-7.7,43.4-15.1,65.3-22.1
	c64.7-20.6,130.2-38.1,196.5-52.7c2.1-0.4,2-0.7-0.1-0.8c-1.3,0-3,0.2-5,0.6c-20.4,4.7-40.8,9.6-61.2,14.7
	c-66.5,16.6-132,36.3-196.6,59.3c-0.1,0-0.8,0.4-2.1,1.1c-0.9,0.4-1.8,0.6-2.8,0.4c-1.8-0.3-2.6-0.4-2.7-0.5
	c-4.8-0.2-10.5-0.9-17.3-1.9h-0.6c-0.6,0.1-1,0.1-1,0c-0.2-0.6,0.2-1.2,0.8-1.5c30.2-10.9,59.8-20.8,88.8-29.8
	c65.9-20.5,132.6-37.9,200.1-52.4c0.2,0,0.4,0,0.7-0.1c0.5,0,0.7-0.1,0.6-0.4v-0.1c-0.1-0.4-0.5-0.7-0.9-0.6
	c-39.1,8.4-76.7,17.4-112.8,27c-60.7,16.1-120.5,34.8-179.5,56.3c-2.3,0.8-4.8,1-7.5,0.4c-2.6-0.6-4.4-0.9-5.6-1
	c-4.3-0.3-8.6-0.9-12.9-1.7c-0.5-0.1-1-0.1-1.5-0.1c-3.1,0.8-3.5,0.3-1.2-1c0.3-0.2,0.7-0.4,1.2-0.5c46.5-17.1,93.6-32.4,141.3-45.9
	c59.4-16.8,119.3-31.2,179.8-43.3c0.4-0.1,0.7,0,0.9,0.1c0.2,0.1,0.4,0.3,0.6,0.6v-1.8c-2.1,0.2-7.2,1.2-15.3,2.9
	c-58,11.9-115.5,26-172.4,42.2c-47.1,13.5-93.6,28.7-139.6,45.6c-1.3,0.5-2.7,0.6-4.1,0.4c-5.9-0.8-11.8-1.7-17.6-2.6
	c-1.7-0.3-1.8-0.6-0.2-1.1c0.3-0.1,0.5-0.3,0.8-0.5c0.3-0.3,0.6-0.5,0.9-0.7c67.1-24.7,135.2-45.9,204.5-63.6
	c46-11.8,92.3-22.3,138.8-31.5c0.2-0.1,0.4-0.2,0.4-0.5v-0.1c-0.1-0.3-0.4-0.4-0.8-0.3c-50.9,10.2-101.5,21.8-151.8,35
	c-35.4,9.3-70.6,19.5-105.5,30.5c-30.8,9.8-61.3,20.3-91.5,31.5c-1.3,0.5-2.6,0.6-3.9,0.4c-6.6-1-13.1-1.8-19.7-2.5
	c-0.8-0.1-1.7-0.3-2.6-0.5c-0.9-0.3-1.8-0.5-2.6-0.6c-1.1-0.2-1.1-0.4-0.1-0.8c51.6-19.4,104-36.6,157.1-51.5
	c73.2-20.6,147.1-37.7,221.9-51.4c0.3,0,0.5-0.1,0.7-0.2c0.9-0.3,0.9-0.6,0.2-0.9c-0.2-0.1-0.4-0.1-0.6,0
	c-61.8,11.4-124.7,25.5-188.6,42.2c-9.6,2.5-18,4.8-25.2,6.9c-6,1.7-12.4,3.5-19.2,5.4c-5.8,1.6-12.4,3.5-19.8,5.7
	c-43.6,13.1-85.5,27.2-125.8,42.3c-2.5,0.9-4.6,1.4-6.2,1.5c-1.5,0-2.9-0.1-4.4-0.4c-2.2-0.4-3.6-0.7-4.3-0.7
	c-2.8-0.3-5.7-0.6-8.6-0.9c-0.5,0-0.9-0.1-1.2-0.3c-1.2-0.5-1-1,0.4-1.6c31.3-12.3,63-23.5,95.1-33.7c24.7-7.8,49.5-15.3,74.4-22.5
	l0.2-0.1l0.4-0.1l3.4-0.7c0.6-0.1,0.8,0,0.6,0.5l-2.1,4.9c-0.1,0-0.1,0.1-0.1,0.2c-0.1,0.4,0.2,0.7,0.5,0.7c3.2,0.1,4.5-1.5,3.9-4.8
	c-0.3-1.5,0.3-2.4,1.7-2.9c1.8-0.5,2.5,0,2.2,1.7c-0.1,0.8-0.2,1.6-0.3,2.2c-0.1,0.8-0.3,1.6-0.6,2.4c-0.1,0.3-0.4,0.5-0.7,0.6
	c-0.7,0.3-0.8,0.7-0.3,1.3c0.2,0.1,0.5,0.2,0.9,0.2l2.3-0.2c1.4-0.1,1.9-0.7,1.5-1.9c-0.5-1.7-0.5-3.7-0.1-6.2
	c0.1-0.8,0.7-1.4,1.4-1.6c8.6-2.3,17.1-4.6,25.5-7c12.5-3.5,30.8-7.8,54.8-12.8c0.4,0,2.1-0.5,5-1.3c1.1-0.3,2.3-0.5,3.4-0.7
	c1.6-0.2,2.7-0.3,3.4-0.5c9.5-2.1,18.9-4.2,28.4-6.2c5.6-1.2,11.1-2.6,16.6-4c1.9-0.5,4.3-1,7.3-1.5c2.4-0.4,4.9-0.9,7.3-1.6
	c2.7-0.8,5.6-1.4,8.4-2c3.7-0.7,6.6-1.3,8.5-1.8c4.4-1.1,8.8-2,13.2-2.9c10.2-2,20.4-4,30.6-5.9c3.7-0.7,6.8-0.9,9.2-0.6v-1
	C1921.1,21.1,1920.4,20.5,1919.2,20.5z M1653.7,78.4c-0.3,0-0.5-0.2-0.6-0.5c-0.3-1.3-0.1-2.6,0.4-3.9c0.1-0.2,0.1-0.5,0.2-1
	l-0.1-1.9V71c0-0.3,0.2-0.4,0.5-0.4c0.4,0.1,0.6,0.5,0.5,1.2c-0.1,0.4-0.1,0.7,0,1c0.3,0.9,0.6,1.9,0.8,2.8
	C1655.9,77.5,1655.3,78.5,1653.7,78.4z M1686,71.9c0.4-0.1,0.8-0.2,1.2-0.2C1686.8,71.8,1686.4,71.9,1686,71.9z M131.1,146.4
	c-3.1,0.1-6.2,0.3-9.3,0.5c-0.1,0-1.7,0.2-4.9,0.6c-4.1,0.5-8.1,0.3-12.1-0.5c-0.4,0-4.3-1.2-11.5-3.3c-36-10.7-59.5-17.4-70.8-20.1
	c-7.1-1.7-14.3-3.6-21.5-5.8c-0.3-0.1-0.5-0.4-0.5-0.7l0.1-7.7c0-0.3,0.2-0.5,0.5-0.6c1.8-0.3,3.4-0.2,5.1,0.3
	c1.5,0.5,2.3,0.8,2.4,0.8c39.1,9.7,78.9,21,119.5,33.7c0.3,0,0.5,0.2,0.7,0.3c0.4,0.4,0.6,0.6,0.8,0.5c0.4,0.1,0.9,0.2,1.3,0.2
	c0.5,0.1,0.9,0.1,1.2,0.2C135.1,145.8,134.8,146.3,131.1,146.4z M199.9,111.3c-0.1,0.5-0.6,0.7-1.1,0.6c-27.3-8.1-54.6-15.8-82.1-23
	c-0.5-0.1-4.3-1.1-11.4-2.8c-2.6-0.6-5.1-1.3-7.6-2c-3-0.9-5.5-1.6-7.5-2C72.9,78,55.6,73.9,38.3,69.9c-3.5-0.8-9.7-2.2-18.7-4.1
	C13.4,64.5,7.2,63,1,61.5c-0.3-0.1-0.5-0.3-0.5-0.6v-4.4c0-0.1,0-0.6-0.1-1.7c-0.1-2.1,1-2.9,3.2-2.5C67.7,64.9,131.2,80.1,194,97.8
	c3.2,0.9,6.4,1.9,9.3,3.1c0.1,0,0.1,0.1,0.2,0.1c0.2,0.2,0.2,0.5,0,0.7c-2.4,2.6-3.6,5.7-3.6,9.3V111.3z M203.4,139.4
	c-1.9,0.5-2.9-0.2-2.8-2.1c0.1-1.2,0.1-1.8,0.1-1.9c-0.2-4-0.1-7.9,0.3-11.8c0-0.1,0.1-0.1,0.2-0.2c0.2-0.1,0.3-0.2,0.3-0.4
	c0.6-2.5,0.7-4.2,0.5-4.9c-0.3-0.9-0.2-1.4,0.4-1.6h0.1c0.2,0,0.4,0.2,0.4,0.4l1,21.9C203.9,139.1,203.7,139.3,203.4,139.4z
	 M207.4,181.3l0.1-8.4c0-0.7,0.2-1.4,0.6-2.1c1.3-2.4,2.3-3.8,3.1-4.1h0.1c0.2-0.1,0.5,0.1,0.5,0.4c0.5,2.8,1.1,5.6,1.9,8.3
	c0.3,1.1-0.2,1.9-1.5,2.6c-0.3,0.1-0.5,0.3-0.7,0.6c-0.6,1.1-1.7,2.2-3.3,3.1C207.7,182,207.5,181.9,207.4,181.3z M215,185.9
	c-3.4,0.1-5.5-0.1-6.2-0.4c-1.1-0.6-1-1.1,0.2-1.6c0.8-0.4,1.5-1.3,2.2-2.8c0.4-1,1.4-1.9,2.8-2.7c0.1-0.1,0.2-0.1,0.3-0.1
	c0.3,0,0.6,0.2,0.6,0.5l0.6,6.6C215.5,185.7,215.3,185.9,215,185.9z M221.8,163.8c0.5-1.6,0.8-2.4,0.8-2.4c0.4-1.7,0.9-3.5,1.4-5.2
	c0-0.3,0.3-0.5,0.6-0.5c3.5,0.1,6.9-0.5,10.2-1.9c0.1,0,0.1,0,0.1,0c0.3-0.1,0.6,0,0.7,0.2l0.1,0.3c0.1,0.2,0,0.3-0.2,0.5
	c-4,3.4-7.7,7-11.3,10.8c-0.5,0.5-0.9,1-1.3,1.5c-0.7,0.8-1.1,0.6-1.3-0.4C221.4,165.7,221.5,164.7,221.8,163.8z M265.6,189.5
	c-6.9-0.6-13.5-1.1-19.8-1.3c-0.4,0-1.4-0.2-2.9-0.6c-0.9-0.2-1.9-0.3-3.1-0.2c-2.1,0.1-6.8-0.2-14.2-0.9h-1.3
	c-1.5-0.1-2.5-0.9-2.7-2.5c-0.2-1-0.3-1.6-0.3-1.7c-0.8-3.3-1.2-6.7-1.3-10.1c0-0.4,0.1-0.7,0.3-0.9l16.6-16.1
	c0.9-0.9,1.9-1,2.9-0.2c9.2,5.2,18.7,6.5,28.7,4c3.4-0.8,6.8-1.4,10.2-1.7c2.8-0.2,5.5,0.1,8.2,0.9c0.3,0.1,0.5,0.3,0.5,0.6
	l-0.5,6.2c-0.1,0.5-0.4,1.1-0.9,1.6c-7,7.1-13.3,14.5-18.9,22.2C266.8,189.3,266.2,189.6,265.6,189.5z M288.4,191.6
	c-2.1-0.3-4.2-0.6-6.3-0.8c-1-0.1-2.9-0.2-5.7-0.2c-2.1,0-4-0.2-5.7-0.6c-1.5-0.4-1.8-1.2-0.9-2.4c5-6.7,10.4-12.9,16-18.5
	c0.1-0.1,0.2-0.2,0.3-0.2c0.3-0.1,0.7,0.1,0.8,0.4c1.4,5,1.7,10.2,0.8,15.7c-0.3,2,0,4,1,6.2C288.8,191.5,288.7,191.6,288.4,191.6z
	 M298.7,182.6c-0.2,2-1.3,3.9-3.5,5.5c-0.1,0-0.2,0.1-0.4,0.2c-0.6,0.2-1.2-0.1-1.4-0.7c-1.6-4.4-1.1-8.7,1.4-13.1
	c0.2-0.3,0.2-0.6,0.2-0.9c-0.2-1.5-0.1-2.7,0.4-3.4c0.8-1.1,1.4-1,1.7,0.3c0.4,1.7,0.4,3.3,0.1,5c-0.1,0.6,0.2,1.8,0.8,3.6
	C298.5,180.6,298.8,181.8,298.7,182.6z M304.9,173.9c0.3-0.8,0.4-1.4,0.4-1.7c0.1-1.6,0.2-3.2,0.3-4.7c0-1.3,0.6-2.2,1.7-2.7
	c4.8-2.3,7.9-5.6,9.5-9.8c0.6-1.6,1.1-2.7,1.5-3.2c0.8-1.1,1.6-1.9,2.5-2.6c1-0.7,1.7-1.6,2.2-2.7c2.4-5.2,5.2-10,8.4-14.3
	c0.8-1.1,1.8-1.7,3.1-1.8c3.4-0.3,6.6-0.7,9.9-1c2.4-0.3,4.6,0,6.6,0.9c0.1,0.1,0.2,0.1,0.3,0.2c0.2,0.3,0.2,0.7-0.1,1
	c-5.3,4.7-10.5,9.3-15.6,13.8c-9.4,8.2-18.2,17-26.6,26.3c-0.4,0.5-0.7,1.1-1.2,1.8c-0.2,0.6-0.5,1.1-0.8,1.6
	c-0.2,0.3-0.5,0.4-0.8,0.5C305,175.6,304.5,175.1,304.9,173.9z M336.4,127.6c1.9-1.2,3.8-1.2,5.8,0.1c0.5,0.3,0.5,0.5-0.2,0.6
	c-1.8,0.3-3.5,0.5-5.1,0.6C335.1,129,335,128.6,336.4,127.6z M418.9,123.1c-0.4,0.6-0.9,1-1.5,1.3c-0.8,0.5-1.4,0.8-1.6,1
	c-4.1,3.5-8,7.1-11.8,10.9c-4.3,4.4-8.2,8.1-11.5,11.2c-15,14.1-27.9,29-38.4,44.7c-0.6,0.9-1.1,1.5-1.4,1.9
	c-0.3,0.3-0.4,0.6-0.5,1.1c-0.4,1.4-1.3,2-2.7,1.7c-1.3-0.3-2-0.4-2.1-0.4c-1.7-0.1-3.4-0.3-5.1-0.5c-2-0.2-3.7-0.4-5.1-0.5
	c-10.5-0.6-20.9-1.5-31-2.8c-0.9-0.1-1.6-0.8-1.7-1.6l-0.6-9.8c-0.1-1.2,0.4-2.2,1.5-3c0.5-0.4,1.1-1,1.7-1.9s1.1-1.6,1.5-2
	c9.7-11.2,20.1-21.5,31.3-31.2c4.6-4,9.2-8,13.7-12c0.6-0.5,1.4-0.6,2.1-0.4c3.3,1.1,6.5,0.3,9.6-2.4c0.7-0.6,1.5-1,2.4-1.2
	c3.3-0.6,6.7-1.1,10.2-1.4c13.5-1.3,27-2.7,40.5-4.3C419.6,121.3,419.8,121.9,418.9,123.1z M358,110.7l33.4,11.8
	c0.3,0.1,0.3,0.2,0,0.3c-3.8,1.2-7.6,1.8-11.6,1.8c-1.1,0.1-2.5,0.2-4.1,0.5c-0.9,0.2-1.9,0.3-2.8,0.3c-0.5,0-1.5,0.1-2.8,0.3
	c-1.4,0.2-2.6,0-3.8-0.6c-0.8-0.4-1.7-1.3-2.4-2.6c-2.1-3.6-4.3-7.2-6.8-10.6C356.1,110.5,356.4,110.1,358,110.7z M421.7,120.3
	c-1.3,0.4-2.5,0.5-3.8,0.5c-1.7,0-3,0-3.7,0.1c-4.2,0.6-8.5,1.2-12.8,1.7c-1.7,0.2-3.5,0.3-5.2,0.2c-1.5-0.1-3.1-0.4-5-1.1
	c-10.9-4-21.9-7.9-32.8-11.9c0,0-0.7-0.2-2.2-0.6c-1.7-0.4-2.8-1.4-3.4-3c-0.8-2.2-2.1-3.8-3.8-4.8c-0.2-0.1-0.4-0.4-0.5-0.7
	c-0.4-2-0.7-3.2-1-3.7c-1.7-2.8-3.5-2.5-5.6,0.9c-0.4,0.8-1.2,1.5-2.1,1.8c-2.8,1.1-5.7,1.4-8.4,1c-0.2-0.1-2.8-0.8-7.9-2.4
	c-11.9-3.7-23.7-7.4-35.6-11.1c-1.2-0.4-3.8-1.1-7.6-2.1c-2.5-0.7-5-1.5-7.5-2.4c-1.3-0.5-2.6-0.9-3.8-1.2c-1.3-0.4-2.6-0.7-3.9-1.1
	c-21.4-6.2-42.9-12-64.4-17.5C135.7,46.3,70.1,32.1,4.1,20.2c-0.3,0-0.6-0.2-0.9-0.4c-0.6-0.4-1.4-0.6-2.2-0.4H0.9
	c-0.2,0-0.4-0.2-0.4-0.4v-7.2c0-0.2,0.2-0.4,0.5-0.4c5.1,0.3,10,0.8,14.7,1.6c61,10.6,121.5,23,181.3,37.5
	c76.1,18.3,151,40.8,224.7,67.4C424.1,118.8,424.1,119.6,421.7,120.3z M1685.1,157.4c0.2-0.2,0.5-0.3,0.9-0.2
	c12,1.6,24.1,3,36.2,4.2c0.3,0,0.5,0.1,0.6,0.3c0.1,0.1,0.1,0.2,0.2,0.3c0,0.2-0.1,0.4-0.3,0.4l-2.3,0.2c-0.3,0-0.6,0.2-0.8,0.3
	c-0.5,0.5-1.2,0.8-1.9,0.8h-2c-5.5,0.8-11,1.5-16.5,2.3c-0.3,0-0.6,0-0.9-0.2c-2.6-1.8-4.3-2.8-5.2-3.2c-2.2-0.8-4.1-1.9-5.9-3.4
	c-0.2-0.2-0.5-0.3-0.9-0.3C1684.4,158.9,1684,158.4,1685.1,157.4z M1657,154.4c2.2-0.2,4.4-0.1,6.5,0.2c5.6,0.8,11.3,1.5,17,2.1
	c0.8,0.1,1.9,0.7,3.3,1.8c1,0.8,2,1.4,3.1,1.9c1.9,0.9,3.6,2,5.2,3.3c0.5,0.4,1,0.7,1.5,1c0.6,0.2,1.2,0.5,1.7,0.7
	c0.4,0.2,0.6,0.4,0.5,0.7s-0.4,0.5-0.8,0.5l-17.8,2.2c-0.3,0-0.6,0-0.9-0.2l-19.6-13.4C1656.1,154.7,1656.2,154.5,1657,154.4z
	 M1537.2,138.4c2.2,0.1,4.3,0.3,6.5,0.7c2.9,0.5,5.1,0.9,6.5,1c4.7,0.5,9.5,1.1,14.2,1.8c0,0,0.6,0.1,1.7,0.2
	c1.7,0.2,3.5,0.8,5.5,1.9c0.6,0.3,0.9,0.2,1.1-0.4c0.1-0.3,0.4-0.5,0.6-0.4c19.6,2.6,39.3,5.2,58.9,7.7c8.7,1.1,14.8,1.9,18.1,2.4
	c1.6,0.2,3,0.8,4.4,1.7c6.6,4.5,12.8,8.7,18.6,12.8c1.5,1,1.3,1.7-0.5,1.9l-50.4,7c-1.4,0.2-2.6-0.1-3.6-1
	c-13.8-10.8-28.3-20.9-43.7-30.4c-0.2-0.1-0.4-0.3-0.6-0.5c-0.4-0.6-0.7-0.6-0.9,0c-0.1,0.3,0.1,0.6,0.3,0.8c2.8,2,5.7,3.8,8.6,5.7
	c9.4,5.9,18.5,12.2,27.4,18.9c2.8,2.1,5.5,4.2,8.1,6.2c0.7,0.5,0.6,0.9-0.3,1l-22.1,3c-0.4,0.1-0.7,0-1-0.3
	c-18.4-15-37.6-28.5-57.8-40.4C1535.3,138.8,1535.4,138.4,1537.2,138.4z M1529.2,137.3c1.7,0.2,3.3,0.8,4.8,1.7
	c16.7,10.1,32.9,21,48.6,32.6c3.2,2.4,6.2,5,9,7.8c1.1,1.1,0.9,1.8-0.7,1.9c-3.9,0.4-7.9,1-11.8,1.6c-12.7,1.9-25.4,3.7-38.1,5.3
	c-0.3,0-0.6,0-0.9-0.3c-12-10.3-23.8-19.6-35.6-28c-13.4-9.6-28.3-19.6-44.5-30.1c-0.6-0.4-1-0.7-1.3-1c-1.7-1.4-1-1.9,2.1-1.5
	C1483.6,130.7,1506.4,134,1529.2,137.3z M1693.8,70.7c-0.4,0.1-0.6-0.5-0.5-1.5c0.1-0.3,0.3-0.3,0.4-0.2c0.4,0.3,0.6,0.7,0.7,1
	C1694.4,70.4,1694.1,70.7,1693.8,70.7z M1027.3,301.9c1.2,0,1.9,0,1.9,0c123.6-12.5,246.9-27.1,370-44c56.2-7.7,112.4-15.7,168.5-24
	c36.2-5.3,72.4-10.6,108.6-15.9c37.9-5.5,75.9-10.8,113.9-15.9c30.3-4,71.9-8.9,124.7-14.8c2.8-0.3,4.9-0.3,6.3,0.1v-1.7
	c-21.3,2.1-42.5,4.4-63.7,7c-45.3,5.4-90.6,11.4-135.7,17.9c-77.2,11.1-154.4,22.3-231.5,33.6c-53.9,7.9-117.9,16.5-192,26
	c-89.8,11.4-183,22-279.8,31.8c-2.3,0.2-4.4,0-6.2-0.8c-0.9-0.4-3.2-0.7-7-0.8c-0.4,0-0.5,0.1-0.2,0.4c0.4,0.5,1,0.8,1.6,0.8
	c1,0,1.5,0.1,1.6,0.1c7.3,1.4,14.7,2.8,22,4.2c0.3,0.1,0.6,0.3,0.6,0.6c0.3,1.2-0.5,2.3-0.9,4.2l-1.1,1.8c0-0.1,1.5,0,1.6-1.8
	c0.1-1.4,1.4-2.5,2.4-3.5c0.2-0.2,0.5-0.3,0.9-0.2c5.1,0.9,10.1,1.8,15.2,2.8c25.9,5,51.9,9.6,77.9,13.9c0.4,0.1,0.8,0.4,0.8,0.9
	c2.9,25.1,9.8,48.7,20.8,70.9c10.6,21.3,22.6,41.7,36.2,61.3c0.9,1.2,0.5,1.9-1,1.9c0.4,0,0.6,0.1,0.7,0.2h0.2l0.1-0.1
	c0-0.1,0.1-0.1,0.2-0.1c39.9-0.1,79.9-0.1,119.8-0.1c0.4,0,0.6,0.1,0.7,0.2h0.2c0.1-0.2,0.4-0.2,0.8-0.2h119.2
	c-0.3,0-0.6-0.1-0.8-0.3c-17.3-17.5-33.1-36.1-47.5-55.9c-11.7-16-21.4-33-29.1-50.8c-0.1-0.1-0.1-0.3-0.1-0.5
	c0-0.6,0.5-1.1,1.1-1.1c6.8,0.2,13.6,0.7,20.4,1.6c3.9,0.5,7.8,0.8,11.6,0.8c5.8,0.1,11.5,0.4,17.2,0.9c6,0.5,12,0.9,18,1.2
	c0.4,0,0.6-0.1,0.4-0.5c-0.2-0.3-0.7-0.5-1.4-0.6c-12.9-0.9-25.8-1.7-38.7-2.5c-0.4,0-0.7-0.1-0.9-0.2c-0.9-0.4-0.7-0.9,0.6-1.2
	c0.8-0.2,1.5-0.4,2.3-0.5c22.1-2.9,44.1-5.9,65.9-9c15.4-2.2,30.8-4.3,46.2-6.5c6.9-0.9,13.5-1.9,19.8-2.8
	c73.2-10.9,146.3-21.5,219.6-32c62.9-9,126-16.8,189.2-23.5c0.1,0,0.1,0,0.2-0.1c0.2-0.1,0.3-0.3,0.2-0.5c-0.2-0.3-0.6-0.5-1.2-0.4
	c-47.7,5-95.2,10.8-142.7,17.2c-21.9,3-43.7,6-65.6,9.1c-25.7,3.7-51.4,7.4-77.1,11c-6.3,0.9-12.9,1.9-19.8,2.9
	c-73.1,11-155.5,22.7-247.2,35.2c-2.1,0.3-3.7,0.4-5,0.2c-7.2-0.7-14.5-1.4-21.8-1.9c-1.4-0.1-2.6-0.2-3.5-0.4
	c-2-0.3-3.1-0.5-3.4-0.5c-10-0.6-24.7-1.9-44.3-3.9c-14.8-1.5-26.3-2.9-34.4-4.2c-0.5-0.1-0.6-0.3-0.3-0.5c0.2-0.1,0.4-0.2,0.8-0.2
	c9.2-1,27.7-3.4,55.2-7c82.6-10.9,165.1-22.4,247.5-34.7c52.1-7.7,104.1-15.2,156.2-22.6c31.3-4.4,62.6-8.6,94-12.5
	c37.2-4.7,74.5-8.9,111.8-12.6c0.4,0,0.6-0.2,0.4-0.4c-0.1-0.1-0.3-0.2-0.5-0.2c-4.5,0.2-11.9,0.8-22.4,1.9
	c-60.6,6.4-117.5,13.4-170.8,21c-5.2,0.8-8.8,1.3-10.8,1.5c-55.5,7.8-111,15.8-166.5,24c-71.7,10.6-147.6,21.3-227.8,31.9
	c-24.7,3.3-46.2,6-64.6,8.1c-0.1,0-2.2,0.3-6.2,1c-4.5,0.7-9,0.6-13.6-0.2c-5.1-0.9-10.2-1.4-15.3-1.5c-0.6,0-1.1-0.2-1.5-0.5
	c-0.3-0.2-0.6-0.4-0.9-0.4c-8.3-0.6-16.5-1.6-24.7-2.9c-0.5-0.1-1-0.1-1.4-0.2l-15.4-2.1c6.8-0.8,29.7-3.7,32-4c0.2,0,0.6,0,1.1-0.1
	c38-4.2,75.9-8.8,113.8-13.8c77.9-10.2,155.6-21,233.3-32.5c37.1-5.5,74.3-10.9,111.4-16.4c0.1,0,0.2-0.1,0.3-0.1
	c0.1-0.2,0.2-0.2,0.3-0.3c6.9-0.7,16-1.8,27.4-3.5c71.1-10.6,145.3-20.1,222.7-28.3c0.1,0,0.1,0,0.2,0c0.2-0.1,0.3-0.3,0.2-0.5
	c-0.2-0.3-0.5-0.5-1.1-0.4c-62.6,6.6-125,14.4-187.3,23.2c-18.8,2.7-37.7,5.4-56.5,8.1c-53.6,7.9-107.2,15.7-160.8,23.5
	c-101.1,14.8-202.4,28.2-303.9,40.3l-0.6,0.1l-34.9,4.3l-10.9-1.5c0.1,0.1,0.2,0.1,0.2,0.2l0.2,0.3c0.1,0.1,0.1,0.2,0.1,0.2
	c3.9,0.6,18,2.6,24.5,3.5c0,0,0.1,0.1,0.4,0.1c27.8,3.9,55.5,7.3,83.2,10.2c28.7,3,50.8,5,66.3,6c3.4,0.2,5.8,0.5,7.3,0.9
	c0.3,0.1,0.6,0.3,0.7,0.6c8.7,20,19.6,38.7,32.7,56.2c12.3,16.5,25.6,32.1,39.9,46.9c1.1,1.1,1.9,2.4,2.5,3.8
	c0.1,0.1,0.1,0.2,0.1,0.4c0,0.5-0.4,0.9-0.9,0.9l-112.1-0.1c-0.3,0-0.6-0.1-0.9-0.3c-2.6-2.5-5.6-5.9-9-10.3
	c-11.9-15.2-22.2-30.5-31-45.8c-4.6-8-8.8-17.1-12.7-27.1c-4.2-10.9-7-22.1-8.4-33.7c0-0.2-0.1-0.3-0.2-0.5
	c-0.3-0.4-0.5-0.3-0.6,0.2v0.5c1.8,15.2,5.9,29.7,12.4,43.6c4.8,10.4,10.4,20.5,16.6,30.2c8.7,13.6,18.2,26.8,28.4,39.5
	c2,2.5,1.4,3.8-1.8,3.8l-113.3,0.2c-0.3,0-0.6-0.1-0.8-0.4c-12.8-18.1-24.3-37.1-34.5-56.8c-7.9-15.2-14-30.6-18.3-46.2
	c-2.6-9.4-4.3-19.5-5.3-30.3c0-0.3,0.2-0.5,0.4-0.5c2-0.1,3.9,0,5.8,0.3c9.4,1.7,18.9,3.2,28.4,4.4c0.1,0,0.2,0,0.2-0.1
	c-0.6-0.1-0.9-0.2-1-0.2l-0.4-0.7l0.9,0.1c-0.1-0.1-0.2-0.1-0.2-0.1l-78.7-13c-2.3-0.4-2.3-0.7,0-1.1c7.5-1.1,15.1-2.1,23-2.9
	c116-12.7,231.8-27.4,347.3-44c39.1-5.6,78.2-11.3,117.2-17.1c39.1-5.8,78.2-11.5,117.2-17c45.8-6.5,91.6-12.6,137.5-18.2
	c30.4-3.7,60.8-7,91.2-10c0.3,0,0.6-0.2,0.7-0.4c0.1-0.3-0.1-0.4-0.7-0.4c-13.9,1.2-22.2,2-24.9,2.3c-43.9,4.7-87.7,9.9-131.5,15.8
	c-57.7,7.8-115.4,15.9-173,24.5c-57.6,8.5-115.1,16.8-172.8,25c-3.1,0.4-5.3,0.7-6.9,0.8c-1.2,0.1-2.2,0.2-3,0.4
	c-1,0.2-2,0.4-3.1,0.6c-80.1,11.2-163.9,21.9-251.2,32c-27.1,3.1-49.5,5.6-67.4,7.4c0,0-0.9,0.1-2.7,0.4c-2.2,0.3-4.7,0.2-7.4-0.2
	c-16.5-2.9-33-5.9-49.5-8.9h-0.1c-0.2-0.1-0.2-0.3-0.2-0.5C1025.3,302.3,1026.1,301.9,1027.3,301.9z"/>
<path class="st0" d="M514.3,112.8c0,0,3.4-2.8,3.5-3.9l0.6-0.8h1.9c0,0-3.7,3.8-5.4,5.1L514.3,112.8z"/>
<path class="st0" d="M1423.5,124.6v1c0,0-0.2-0.1-0.5-0.4c0,0-0.1,0-0.1-0.1c-0.2-0.1-0.4-0.3-0.6-0.4c-2-1.5-6.1-4.6-6.6-5.2
	l-0.1-0.1c-0.1-0.2,0.9,0.1,1.6,0.4c0.4,0.1,0.7,0.3,0.7,0.3l4.7,3.8L1423.5,124.6z"/>
<path class="st0" d="M1224.8,97.4c0,0.1,0.1,0.1,0.2,0.2c0.2,0.1,0.3,0.2,0.5,0.3L1224.8,97.4z"/>
<path class="st0" d="M1649.2,80.2c0,0-0.1,0-0.4,0.1c-0.6-0.3-1.1-0.5-1.8-0.4c-0.1,0-0.2,0-0.4,0h0.1l0,0c1.1-0.3,1.9-0.5,2.3-0.6
	v0.1L1649.2,80.2z"/>
<path class="st0" d="M1660.5,77.2l-1.8,1c-0.4,0.2-0.5-1.2-0.5-1.2s0.1,0,0.3-0.1c0.1,0.1,0.1,0.2,0.2,0.3
	C1659.2,77.5,1659.8,77.5,1660.5,77.2z"/>
<path class="st0" d="M1687.2,71.7c-0.4,0.1-0.8,0.2-1.2,0.2C1686.4,71.8,1686.8,71.7,1687.2,71.7z"/>
<path class="st0" d="M1226.5,98.5L1226.5,98.5l-1-0.6C1225.8,98.1,1226.1,98.3,1226.5,98.5z"/>
<path class="st0" d="M447.9,118.4c-0.3,0.1-0.5,0.1-0.5,0.1l-0.1-0.1C447.5,118.4,447.7,118.4,447.9,118.4z"/>
<path class="st1" d="M-219.9-254.3L-219.9-254.3c-0.1,0-0.1-0.1-0.1-0.1c0-0.3-0.1-0.5-0.2-0.8c-0.1-0.1-0.1-0.1-0.1-0.2
	c0-0.2,0-0.4-0.1-0.5c-0.1-0.2-0.1-0.4-0.2-0.5c-0.2-1.5-0.3-3.5-0.3-6c0-35.3,0-70.7,0-106c0-8.1,0-16,0-24c0-0.2,0.1-0.3,0.2-0.4
	c1.1-0.7,2.1-1.2,3.1-1.4c1.2-0.3,2.4-0.5,3.7-0.6c0.1,0,1.2-0.1,3.3-0.2c1.6-0.1,2.7-0.1,3.3,0c1.2,0.2,2.5,0.2,3.7,0.1
	c0.8-0.1,1.6-0.1,2.3-0.1c0.9,0,1.8-0.1,2.6-0.2c0.1,0,0.4,0,1-0.1c0.3,0,0.6-0.1,1-0.1c2.9-0.5,5.6-1.3,7.9-2.5
	c0.3-0.1,0.6-0.4,1.1-0.7c0.2-0.2,0.5-0.3,0.7-0.5c0.3-0.2,0.5-0.3,0.7-0.5c1.9-1.5,3.8-2.9,5.7-4.4c0,0,0.1-0.1,0.3-0.3
	c0.1-0.1,0.3-0.2,0.4-0.2c0.1,0,0.2-0.1,0.2-0.1c0.2-0.2,0.3-0.3,0.5-0.5c0.4-0.2,0.6-0.4,0.6-0.4c1.1-0.9,3.1-2.3,5.9-4.4
	c2.8-2,5.6-3.6,8.4-4.7c0,0,0.2,0,0.5-0.1c0.1,0,0.2-0.1,0.3-0.2s0.1-0.1,0.2-0.1c0.3,0,0.7,0,1-0.1c0.4-0.1,0.7-0.2,1-0.2
	c0.6,0,1.1,0,1.7,0c0.6,0,1.1,0.1,1.6,0.2c2.7,0.6,5.4,1.8,7.9,3.4c2.4,1.6,3.9,2.6,4.5,3c4.5,3.2,9,6.3,13.5,9.5
	c6.4,4.4,12.6,9.3,18.8,14.6c1.5,1.3,2.9,2.6,4.2,4c1.5,1.5,2.6,2.8,3.4,3.9c1.3,1.7,2.3,3.5,3.2,5.5c1.4,3.2,1.4,6.2-0.2,9.2
	c-0.7,1.3-1.2,2.6-1.7,3.8c-0.6,1.6-0.9,2.9-1,4c-0.1,1.6,0.2,3.2,0.9,4.7c0.4,0.8,0.9,1.5,1.6,2.3c0.6,0.7,1.3,1.4,2,2
	c1,0.9,2,1.8,3,2.7c1,1,1.7,2,2.1,3.3c0.4,1,0.6,2.2,0.6,3.8c0,2.1-0.2,4.3-0.7,6.4c-0.3,1.2-0.6,2.3-1,3.4
	c-0.3,1.1-0.8,2.2-1.3,3.3c-3.9,8.8-9.4,16.5-16.5,22.9c-1.6,1.5-2.9,2.6-3.9,3.4c-3.1,2.4-6.5,4.2-10.2,5.4c-3.7,1.2-7,2-9.9,2.2
	c-1.2,0.1-4.2,0.2-9,0.2c-12.5,0.1-24.9,0.1-37.4,0.1c0,0-0.4,0-1.1,0c-1.3,0-2.5,0.2-3.6,0.6c-0.8,0.3-1.7,0.8-2.5,1.5
	c-0.9,0.8-1.6,1.5-2.1,2.1c-0.4,0.5-0.8,1.4-1.1,2.7c-0.2,0.8-0.4,1.7-0.5,2.9c-0.1,0.8-0.1,1.8-0.1,2.9c0,3.4,0.1,6.7,0.4,10.1
	c0.2,2.2,0.2,5,0.1,8.3c-0.1,1.9-0.3,3.8-0.8,5.5c-0.5,2-1.3,3.6-2.3,4.6c-1.3,1.4-3,2.3-5.2,2.5c-1.5,0.2-3,0.1-4.4-0.3
	c-1.2-0.3-2.4-0.9-3.9-1.9c-2.5-1.7-4.8-3.7-6.8-5.9c0,0-0.1-0.1-0.4-0.3c-0.2-0.2-0.3-0.3-0.3-0.6c0-0.1-0.1-0.1-0.1-0.2
	c-0.2-0.1-0.3-0.3-0.3-0.6C-219.8-254.2-219.9-254.2-219.9-254.3z M-207.5-329.4c-0.1,0.4,0.1,0.5,0.4,0.4c0.3,0.2,0.5,0.5,0.4,0.9
	c0,0.4,0,0.6,0,0.6c0.1,1.8,0.4,5.7,0.8,11.5c0.1,1.4,0.6,2.6,1.4,3.5c0.3,0.3,0.7,0.6,1.2,0.7s0.9,0.2,1.4,0.3
	c0.2,0,0.3-0.1,0.3-0.3l0,0l-0.8-19.3c0-0.1,0-0.2,0.1-0.2c13.4-13.4,26.8-26.9,40.1-40.4c0.2-0.2,0.5-0.3,0.7-0.1
	c0.1,0,0.2,0.2,0.3,0.5c0.1,0.2,0.2,0.3,0.4,0.5c0.7,0.6,1.7,1.4,2.8,2.4c0.4,0.3,0.7,0.5,1,0.6c0.4,0.1,0.8,0.1,1.2,0
	c1.1-0.3,2.1-0.8,3-1.4c0.7-0.5,1.3-1,1.9-1.5c0.5-0.5,1.1-1.1,1.6-1.8c0.3-0.4,0.5-0.8,0.6-1.2c0.1-0.3,0-0.7-0.2-1.2
	c-0.8-1.8-1.9-3.8-3.4-6c-2.5-3.8-5-7.1-7.6-9.8c-0.5-0.5-1.1-1-1.8-1.6c0,0-0.2-0.2-0.5-0.5c-0.3-0.2-0.6-0.4-1-0.5
	c-0.1,0-0.2,0-0.2,0c-0.4,0.2-0.9,0.5-1.3,0.7c-0.3,0.1-0.6,0.4-0.8,0.6c-0.1,0.1-0.1,0.1-0.2,0.2c-0.5,0.2-0.9,0.6-1.3,1.1
	c-1,1.2-1.9,2.5-2.5,3.7c-0.3,0.5-0.6,1.3-0.8,2.2c-0.2,0.6-0.1,1.2,0.2,1.6c0,0.1,0.1,0.1,0.1,0.2c0,0.2,0.1,0.4,0.2,0.6
	c1.2,2.4,2.6,4.5,4.1,6.5c0.2,0.3,0.2,0.6-0.1,0.8c-4.9,4.5-9.6,9.1-14.4,13.7c0,0-0.1,0.2-0.3,0.4c-0.1,0.2-0.3,0.3-0.5,0.3
	c-0.1,0-0.2,0.1-0.2,0.1c-7.9,7.8-15.9,15.6-24,23.2c-0.9,0.8-1.7,1.6-2.6,2.4c-1.1,1.1-1.4,2.4-0.9,3.8
	C-208.4-330.4-208-329.8-207.5-329.4z M-170.8-339.6c0.4-0.3,0.7-0.7,1-1.2c1.2-2,1.4-3.9,0.5-5.9c-0.4-1-1.1-1.8-1.9-2.4
	c-1.4-1.1-2.9-1.5-4.5-1.4c-1.2,0.1-2.2,0.5-3.2,1.2s-1.7,1.6-2.2,2.8c-1,2.5-0.6,4.7,1.3,6.7c1.2,1.3,2.7,2,4.5,2.1
	c0.4,0,1.1-0.1,1.9-0.3c0.6-0.2,1-0.4,1.4-0.6C-171.6-339.1-171.2-339.3-170.8-339.6z"/>
<rect x="-175" y="-143.9" class="st0" width="118.1" height="64"/>
<polygon class="st0" points="1122.1,83.1 1122.8,83.2 1191.6,89.2 1184,89.7 1125.9,85 "/>
<path class="st2" d="M559.1,101.9c-2.7,0.6,366.4-46.7,574.6-16.9"/>
<path class="st2" d="M1031.8,306.1c0,0-24.9,40.7,45.6,153.4"/>
<path class="st2" d="M939.9,288.6c0,0-33.3,84.4,15.4,170"/>
<path class="st0" d="M1186.4,89.2c0,0,205,23,245.8,33.4"/>
<line class="st2" x1="1.5" y1="458.8" x2="1921" y2="458.8"/>
<path class="st3" d="M1245.9,338.4c0,0,5,66,62.9,119.7"/>
<path class="st3" d="M1347.2,348.6c0,0,28.1,67.3,77.6,109.7"/>
<path class="st3" d="M1438.6,355.3c0,0,28.8,52.8,101.1,102.1"/>
</svg>
