<?xml version="1.0" encoding="utf-8"?>
<!-- Generator: Adobe Illustrator 25.4.1, SVG Export Plug-In . SVG Version: 6.00 Build 0)  -->
<svg version="1.1" id="Capa_1" xmlns="http://www.w3.org/2000/svg" xmlns:xlink="http://www.w3.org/1999/xlink" x="0px" y="0px"
	 viewBox="0 0 1921 470" style="enable-background:new 0 0 1921 470;" xml:space="preserve">
<style type="text/css">
	.st0{fill:none;stroke:#223C36;stroke-width:2.2976;stroke-miterlimit:10;}
	.st1{fill:#213C36;}
</style>
<path d="M447.9,129c0.1,0,0.2,0,0.2,0c0,0,0,0,0,0C448,129,448,129,447.9,129z"/>
<path d="M1646.7,90.5L1646.7,90.5c-0.2,0-0.4,0-0.5,0.1c0.1,0,0.2,0,0.4,0c0.1,0,0.2,0,0.4,0C1646.9,90.5,1646.8,90.5,1646.7,90.5z
	 M1686,82.5c0.4,0,0.8-0.1,1.2-0.2C1686.8,82.3,1686.4,82.4,1686,82.5z M1658.7,87.8c-0.1-0.1-0.1-0.2-0.2-0.3
	c-0.2,0-0.3,0.1-0.3,0.1s0.1,1.4,0.5,1.2l1.8-1C1659.8,88.1,1659.2,88.1,1658.7,87.8z M1649,90c-0.7,0.2-1.4,0.4-2.1,0.5
	c0.7,0,1.3,0.1,1.8,0.4c0.3-0.1,0.4-0.1,0.4-0.1L1649,90z"/>
<path d="M1684.8,86.8L1684.8,86.8l0.4-0.1L1684.8,86.8z"/>
<path d="M392.7,211.5c0.4,0,0.7-0.1,1-0.2C393.4,211.3,393.1,211.4,392.7,211.5z M825.7,90.4l2.2-0.1
	C827.1,90.1,826.3,90.2,825.7,90.4z M993,110.5c0.4,1.5,1.3,4.2,2.6,8.1C995.3,117.5,994.2,114.4,993,110.5z M1105.8,92.6l1.2,0.1
	C1106.5,92.6,1106.2,92.6,1105.8,92.6z M1164.1,339.6l-0.2-0.3c-0.1-0.1-0.1-0.2-0.2-0.2l-0.9-0.1l0.4,0.7c0.1,0,0.4,0.1,1,0.2
	C1164.2,339.8,1164.2,339.7,1164.1,339.6z"/>
<path d="M481.6,221.1l1.6,0.2C482.8,221.3,482.2,221.2,481.6,221.1z"/>
<path d="M486.4,220.8c-0.1,0.2-0.2,0.5-0.3,0.7l-2.9-0.2c0.6-0.1,1.1-0.2,1.5-0.6L486.4,220.8z"/>
<path d="M631.8,106.7c-0.1,0.2-0.2,0.4-0.5,0.3c-3-0.3-2.8-0.5,0.7-0.7c0.5,0,0.6,0,0.1,0.2H632
	C631.9,106.6,631.8,106.6,631.8,106.7z"/>
<path d="M1549.1,110.2c-0.1,0-0.6,0.2-1.4,0.3l-0.6-0.1C1548.2,110.3,1548.9,110.2,1549.1,110.2z"/>
<path d="M1548.1,110.6c-7.6,1.7-15.2,3-22.8,4c1.8-0.4,3.1-0.6,3.8-0.7c4-0.3,14.6-2.5,18.5-3.4L1548.1,110.6z"/>
<path d="M1398.8,164.4c-16.7-15.4-35.1-28.6-55-39.5c-4.2-2.4-8.5-4.8-13-7.8l31.5,4.5c-3.3,1.1-6.8,0.8-10-0.1
	c-0.3-0.1-0.6-0.1-1,0c-1,0.2-1.9,0-2.7-0.6c-0.3-0.2-0.6-0.3-0.9-0.4l-8.7-1.1c-1.6-0.2-1.7,0.2-0.6,1.2c1.3,1.1,3.1,2.3,5.4,3.5
	c20.2,10.8,38.7,23.9,55.6,39.4c0.2,0.2,0.3,0.4,0.4,0.6C1400.4,165.4,1400,165.5,1398.8,164.4z"/>
<path d="M201.5,133.7c0.6-2.6,0.7-4.2,0.5-4.9c-0.3-0.9-0.1-1.4,0.4-1.6c0.2-0.1,0.4,0.1,0.5,0.3v0.1l1,21.9c0,0.3-0.2,0.6-0.5,0.6
	c-1.9,0.5-2.9-0.2-2.8-2.1c0-1.2,0.1-1.9,0.1-1.9c-0.2-3.9-0.1-7.9,0.3-11.8c0-0.1,0.1-0.2,0.2-0.2
	C201.4,133.9,201.5,133.8,201.5,133.7z"/>
<path d="M0,150.7l0.4,1.6c0.1,0.3,0.3,0.5,0.5,0.6c9.9,2.7,19.8,5.5,29.7,8.5c3.5,1,6.6,1.6,9.4,1.7c4.4,0.1,9.4-0.2,15-0.8
	c1.4-0.2,5-0.3,10.8-0.3c0.4,0.1,0.7,0.2,1,0.5c-6.7,0.7-12.1,1-16.1,1.1c-2.2,0-4.3,0.2-6.3,0.6c-1.4,0.3-2.9,1-4.3,2.1
	c-1.6,1.3-3.3,2.4-5,3.6c-8.6,5.7-17.1,11.5-25.5,17.5c-0.6,0.4-0.5,0.6,0.2,0.7c8.1,0.7,16.3,0.9,24.4,0.7c0.3,0,0.6-0.1,0.9-0.3
	c13.1-10.7,26.5-19,40-25.1c0.9-0.4,1.3-0.7,1.2-1.1l2,0.5c-12.3,6-23.9,13-35,21c-1.5,1.1-3.1,2.3-4.7,3.6
	c-1.4,1.1-1.2,1.6,0.5,1.7c4.6,0.1,9,0.2,13.5,0.1c5,0,9.5,0,13.4,0.2c8.7,0.4,17.3,0.7,26,0.8c0.3,0,0.6-0.1,0.9-0.3
	c14.6-10.8,30.4-20.9,47.5-30.3c1.4-0.8,2.7-1.2,4-1.2c0.4,0,0.4,0.1,0.1,0.2c-11.1,6.2-22,12.7-32.7,19.6c-3.8,2.4-7.5,5-11.1,7.6
	c-0.1,0.1-0.8,0.5-2.1,1.2c-0.8,0.5-1.5,1.1-2,1.9c-0.6,0.9-0.4,1.4,0.7,1.4l29,0.9c0.6,0,1.1,0.1,1.7,0.4l51.3,2.3
	c0.6,0,1.2-0.2,1.7-0.6c6.6-6.3,13.5-12.1,20.4-17.5c-0.2,0.5-0.1,1.2,0.1,2.1c-2.9,1.7-5.5,3.6-8,5.8c-2.2,2-4,3.6-5.2,4.6
	c-1.7,1.5-3.4,3.1-5.1,4.8c-1,1-0.7,1.5,0.7,1.6l16.4,1c-0.3,0.7-0.8,1-1.5,0.9l-17.3-1c-0.6,0-1.2,0.1-1.7,0.5
	c-21,13.5-41.2,27.3-60.8,41.5c-24.1,17.5-43.8,32.8-59,45.7c-6.7,5.7-14.9,13-24.5,22C24.3,316,14.3,326.4,5.6,336.6
	c-2.2,2.5-3.9,4.4-5.3,5.7c-0.1-0.6-0.1-1,0.1-1.4c0.4-0.8,0.9-1.5,1.5-2.1c1.2-1.2,1.8-1.8,1.8-1.8c12.6-14.9,27.4-29.7,44.4-44.5
	c19.6-17,37-31.1,52.2-42.3c22-16.3,44.4-32.1,67-47.5c2.9-2,5.9-3.8,8.9-5.6c1.1-0.6,1-1.1-0.2-1.5c-1.5-0.4-3.1-0.7-5-0.7
	c-2.6,0-4-0.1-4-0.1c-13.4-0.7-32.5-1.7-57.2-2.8c-6.9-0.3-12.8-0.5-17.8-0.5c-2.5,0-3.9,0-4,0c-1.2,0.2-2.4,0.7-3.8,1.4
	c-19,10.4-33.6,18.8-43.6,25.1c-13,8.2-25.7,16.7-38.2,25.5c-1.3,0.9-1.8,0.8-1.3-0.4c0.1-0.3,0.3-0.5,0.6-0.7
	c26.1-18.1,53-34.7,80.9-50c1.3-0.7,1.3-1.2-0.3-1.3c-2.9-0.2-6-0.4-9.1-0.3c-4.3,0-7.4,0-9.1-0.1c-19.9-0.8-40.4-1.2-61.4-1.3
	c-1.6,0-2.3,0.8-2.3,2.4l-0.2,51.7c0.1-0.6,0-1.2-0.3-1.8v-55l0.5,1.3c0.1,0.3,0.4,0.4,0.6,0.4c1-0.2,1.9-0.2,2.7-0.1
	c1.6,0.2,3-0.1,4.1-1.1c0.9-0.8,1.4-1.2,1.5-1.2c9.7-6.8,18.8-13.1,27.2-18.9c2.6-1.8,2.3-2.6-0.8-2.3L0,167.4v-2.7
	c0.2,0.3,0.3,0.6,0.3,1c0,0.3,0.3,0.5,0.5,0.5l32.5-2.1c0.1,0,0.3-0.1,0.3-0.1l0.1-0.1c0.1-0.1,0.1-0.3,0-0.4c0,0-0.1,0-0.1-0.1
	c-11-3.6-22.2-6.6-33.5-9.2L0,150.7z"/>
<path d="M1542.1,469.2c0.2,0.1,0.4,0.1,0.5,0.1c34.2,0,68.4,0,102.6-0.1H1542.1z M571.3,469.2c-45.2,0-90.5-0.1-135.7-0.1
	c0.4,0.3,1,0.5,1.7,0.4c0.9-0.1,1.4-0.1,1.4-0.1c44.3-0.1,88.7,0,133,0.2c0.2,0,0.4-0.1,0.5-0.3
	C571.9,469.3,571.6,469.3,571.3,469.2z M320.3,469.1l111.6,0.1c0.2,0,0.4,0,0.5-0.1C395,469,357.7,469,320.3,469.1z M517.1,119.9
	l-13.3,1.7l14.4-0.7c0-0.1,0-0.1,0-0.2C518.1,120.2,517.6,119.8,517.1,119.9z M517.8,121.2c0.2,0,0.3-0.1,0.4-0.3
	C518.1,121,518,121.1,517.8,121.2z M1617.3,370.2c5.3-1.1,10.6-2.1,15.9-2.8c13.7-1.9,27.3-3.8,40.9-5.9
	c37.5-5.5,75.1-10.8,112.7-15.8c44.5-5.9,89.2-11.2,133.8-15.7c0.3,0,0.6,0.1,0.7,0.4l0.3,0.9v-2.5c-59.6,6.3-119.1,13.6-178.5,22
	c-41.3,5.8-82.5,11.7-123.8,17.7c-5.9,0.9-9.5,1.4-10.8,1.6c-6.1,0.8-12.2,1-18.4,0.5l8.9-0.1c0.3,0,0.3,0,0-0.1
	c-0.7-0.1-1.4-0.2-2.1-0.3c-0.7-0.1-1.4-0.2-2.1-0.2c-15.2,0.2-30.4,0.1-45.6-0.1c-1.4,0-4.3-0.2-8.9-0.5c-2.8-0.2-5.7-0.2-8.9-0.2
	c-7.5,0.2-14.9,0-22.4-0.4c-5.9-0.3-10.7-0.6-14.4-0.7c-4.8-0.1-9.6-0.3-14.4-0.6c-0.1,0-2.9-0.1-8.4-0.1c-3.3,0-6.5-0.4-9.4-1.2
	c-1.7-0.4-1.7-0.8,0-1c70.9-10.4,141.8-20.8,212.8-31c51-7.4,102-14.2,153.1-20.4c29.6-3.6,59.2-6.8,88.8-9.7c0.1,0,0.5,0,1.3,0.1
	c0.5,0,0.8-0.1,1-0.5c0,0,0-0.1,0-0.2c0-0.2-0.2-0.3-0.4-0.3c-2.7-0.1-6.3,0.2-10.9,0.6c-60.2,6.3-120.3,13.6-180.2,21.9
	c-50,7-100,14.2-150,21.6c-41.9,6.2-83.8,12.2-125.7,18.1c-0.1,0-0.6,0.1-1.6,0.3c-1.4,0.3-3.3,0.3-5.7,0c-5-0.5-10-0.6-15-0.2
	c-0.6,0-0.7,0.2-0.2,0.6c0.1,0.1,0.3,0.1,0.4,0.1c2.3,0.1,4.7,0.3,7,0.5c0.3,0,0.6,0.2,0.8,0.5c7.5,12.5,15.4,23.3,23.6,32.5
	c6.4,7.2,14,14.9,22.9,23.2c4.1,3.8,9.1,8.3,15,13.2c12.1,10.2,24.2,20.4,36.5,30.4c2.2,1.8,1.6,2.7-1.7,2.7l-108.4,0.1h110.8
	c0.4,0,0.6,0.1,0.7,0.2h0.5c0.3-0.2,0.9-0.2,1.8-0.2h2.5c-0.6-0.2-1.4-0.5-2.4-1.2c-3.7-2.2-7.1-4.7-10.3-7.4
	c-10.1-8.6-20.2-17.1-30.4-25.6c-11.6-9.6-22.5-20-32.8-31c-8.3-8.9-15.8-18.6-22.4-28.8c-0.1-0.1-0.8-1.2-2.2-3.2
	c-1-1.4-1.8-2.9-2.5-4.5v-0.1c0-0.2,0.1-0.4,0.3-0.4c4.9-0.3,9.8-0.2,14.7,0.4c2.5,0.3,5.2,0.5,8.1,0.5c2.1,0,4.8,0.1,8.2,0.3
	c10.1,0.5,30.6,1.2,61.4,2.1c0.3,0,0.6,0.1,0.9,0.3c2.1,2,5,5.2,8.7,9.6c6.3,7.4,13.5,14.8,21.6,22.3c4,3.7,9.1,8,15.2,13
	c22.1,17.8,44.7,34.9,68,51.1c0.5,0.4,0.8,0.8,0.9,1.2c0.1,0.6-0.1,1-0.7,1.2c-0.3,0.1-0.7,0.2-1.2,0.2h2.4c0.4,0,0.6,0.1,0.7,0.2
	h0.5c0.6-0.3,1.2-0.4,1.8-0.3c-0.1-1.3-0.8-2.3-2.2-3c-1.7-0.8-4.7-2.7-8.9-5.8c-18.2-13.2-36.2-26.8-54-40.6
	c-18.4-14.3-35-30.4-49.9-48.3c-0.1-0.1-0.1-0.2-0.1-0.2c-0.1-0.3,0.1-0.6,0.4-0.7c1.9-0.4,3.7-0.5,5.4-0.4c1.5,0.1,2.3,0.1,2.3,0.1
	c19.1,0.5,38.2,0.8,57.3,1c4.9,0,11.6,0.1,20,0.3c9.7,0.2,17.2,0.2,22.6-0.1c2.4-0.1,4.1,0.6,5.2,2.1c1.2,1.6,4.9,5.3,11.1,11.2
	c9.8,9.3,20,18,30.7,26.3c0.2,0.2,0.5,0.3,0.7,0.4c0.6,0.2,0.9,0,0.7-0.5c-0.1-0.2-0.2-0.4-0.4-0.5c-15.3-11.5-29.5-24.1-42.6-38
	c-0.5-0.6-0.4-0.9,0.4-0.9c16.9,0,33.9-0.1,50.8-0.2c2.4,0,9.1-0.1,20-0.3c8.6-0.1,17.2-0.1,25.8,0c0.3,0,0.6,0.1,0.9,0.3
	c17.2,13.7,35.1,26.2,53.9,37.6c33.9,20.6,68.7,39.7,104.2,57.3c0.5,0.3,0.9,0.6,1,0.9c0.4,0.8,0,1.3-1.3,1.3c-0.2,0-0.6,0.1-1,0.3
	c-0.4,0.1-0.7,0.2-1.1,0.2c-40-0.3-80-0.3-120.1,0l93.2,0.3l30.9,0.3h2.2l12.3-0.5l-9.2-0.3c-0.3,0-0.6-0.1-0.8-0.4
	c-0.6-0.7-1.5-1.2-2.6-1.7c-4.4-1.8-9.8-4.4-16.1-7.9c-6.8-3.6-13.6-7.2-20.4-10.8c-16.2-8.5-33.8-18.2-52.8-29.2
	c-7.7-4.5-14.7-8.8-21.2-12.9c-8.9-5.7-14.5-9.3-16.8-10.8c-9.1-5.9-17.9-12.2-26.4-19c-1.1-0.8-2.7-1.9-4.8-3.2
	c-0.9-0.5-1.1-1.1-0.4-1.7c0.2-0.2,0.5-0.3,0.9-0.3c8-0.3,13.1-0.5,15.3-0.4c4,0.1,7.5,0.1,10.6-0.1c6.5-0.4,9.7-0.5,9.8-0.5
	c21.6-0.5,43-1.2,64.2-2.1c0.7,0,1.4,0.2,2,0.7c19.9,15.9,40.6,29.4,62.3,40.4c1.7,0.9,3.1,1.7,4.2,2.6c0.2,0.2,0.5,0.3,0.9,0.3
	c0.9,0,1.4,0.5,1.7,1.4l-0.1-2.3c-23.5-11-45.6-24.9-66.2-41.6c-1.3-1-1.1-1.6,0.6-1.7c14.1-0.5,28.5-1.1,43.3-1.8
	c1,0,4.4-0.3,9.9-0.7c3.3-0.2,6.6-0.3,10-0.4c0.1,0,0.1,0,0.2,0c0.3-0.1,0.4-0.3,0.3-0.5c-0.1-0.2-0.3-0.3-0.6-0.3
	c-5.8-0.1-11.6,0.1-17.3,0.6c-2.8,0.2-7.2,0.5-13.3,0.6c-5,0.1-9.4,0.3-13.3,0.5c-18.1,0.9-36.2,1.7-54.3,2.3c-0.9,0-7,0.3-18.4,0.8
	c-6.5,0.3-12.7,0.4-18.4,0.3c-5.7-0.1-11.1,0-16.2,0.3c-5.7,0.3-10.1,0.5-13.4,0.5h-13.4c-0.3,0-0.6-0.1-0.7-0.2
	c-0.2-0.2,0-0.4,0.6-0.5c6.5-1.1,12.1-1.9,16.7-2.5c6.3-0.8,9.4-1.1,9.5-1.1c50.2-6.7,100.4-12.6,150.8-17.6c0,0,0.4,0,1.1,0.1
	c0.4,0,0.7-0.1,0.8-0.5v-0.1c0-0.2-0.2-0.4-0.4-0.4c-2.4,0.1-5.4,0.3-9.2,0.7c-61.4,6.4-120.6,13.5-177.8,21.5
	c-6.9,1-14.7,1.4-23.5,1.5c-25.6,0-41.1,0.1-46.5,0.3c-2.7,0.1-5.1,0.1-7.2,0c-3.4-0.1-5.8-0.2-7.2-0.1c-10.4,0.2-20.5,0.3-30.4,0.2
	C1615,371,1615,370.7,1617.3,370.2z M872.2,87.9h-3.8l0.4,0.6c1.2,0,2.4,0,3.6-0.1C872.9,88.3,872.8,88.1,872.2,87.9z M959.3,86.9
	c0.9,0.3,1.5,0.8,1.8,1.4c0.6,0,1.1,0,1.7,0c0-0.1,0-0.2,0-0.3c0-0.4,0.2-0.6,0.5-0.8c0.2-0.1,0.4-0.1,0.6-0.1L959.3,86.9z
	 M985.4,87.2h-0.1c-0.2,0-0.4,0.3-0.4,0.5c0,0.1,0.1,0.5,0.3,1c0.3,0,0.5,0,0.8,0C985.7,87.8,985.4,87.2,985.4,87.2z M1030.7,89.8
	c-0.4-0.2-0.7-0.1-0.8,0.3c0.4,0,0.8,0,1.2,0C1031,90,1030.9,89.8,1030.7,89.8z M1049.4,89.7c0.3,0.4,0.7,0.8,1,1.2
	c0.5,0,1,0,1.6,0.1c0-0.1,0-0.1,0-0.2c0.3-0.7,1-0.8,2.1-0.5c1.6,0.5,2.7,0.7,3.3,0.7l11.7-0.5C1062.8,89.6,1056.2,89.3,1049.4,89.7
	z M1102.3,92.3c-4.1,0-4.4,0.3-0.9,0.9c0.3,0.1,0.6,0.2,0.9,0.4c0,0,0,0,0,0c0.8,0,1.6,0.1,2.4,0.1c0-0.2,0.1-0.5,0.3-0.7
	c0.2-0.2,0.5-0.4,0.9-0.4L1102.3,92.3z M1122.1,93.7c0.6,0.4,1.1,0.9,1.7,1.3c0,0,0,0,0,0c2.5,0.2,4.9,0.3,7.4,0.5h0
	c1.6-0.4,3.2-0.6,4.8-0.6L1122.1,93.7z M1174,98.1l-2.5,0.4c-0.3,0.1-0.3,0.1,0,0.2c0.1,0,0.2,0,0.2,0h0c2.2,0.5,4.3,0.6,6.5,0.6h0
	c0.1,0,0.2,0,0.3,0c1.1-0.1,2.1,0,2.8,0.3c1.5,0.1,3,0.3,4.5,0.4c0-0.2,0.2-0.3,0.6-0.2c1.1,0.2,2.1,0.4,3.1,0.5
	c0.3,0,0.6,0.1,0.9,0.1c1.2,0.1,2.5,0,3.7-0.1L1174,98.1z M1420.2,184C1420.2,184,1420.1,184,1420.2,184c-0.7,0-0.8,0.3-0.2,0.9
	c0.1,0.1,0.2,0.3,0.4,0.4l0.7-0.4L1420.2,184z M1422.5,134.4c-0.2,0-0.3,0.1-0.3,0.3c-0.1,0.2,0,0.4,0.1,0.6c0,0,0.1,0.1,0.1,0.1
	c0.2,0.1,0.3,0.2,0.5,0.3c0,0,0,0,0.1,0.1c0.2,0.1,0.3,0.2,0.5,0.3v-0.9L1422.5,134.4z M1486.7,122.8c-0.3,0.1-0.5,0.3-0.7,0.4
	c0.3-0.1,0.9-0.3,1.6-0.5C1487.3,122.6,1487,122.6,1486.7,122.8z M542.6,114.7l-27.4,3.8c2.6-0.1,5.2-0.3,7.8-0.7
	c3.5-0.5,6.8-0.9,9.8-1.2c3.3-0.3,6.6-0.8,9.8-1.6C542.9,114.9,542.9,114.8,542.6,114.7z M510.2,118.5l0.3,0.9
	c0.1-0.1,0.2-0.2,0.2-0.3C510.7,118.9,510.5,118.6,510.2,118.5z"/>
<path d="M1714.7,429.4c-2.6-1.8-5.1-3.6-7.7-5.4c-0.2-0.1-0.2-0.4-0.1-0.5l0.1-0.1c0.4-0.3,0.8-0.2,1.2,0.2c0.6,0.5,0.8,0.8,0.8,0.8
	c20.3,14.2,41.1,27.7,62.5,40.3c0.3,0.2,0.3,0.4,0,0.5c-0.5,0.1-1.1,0-1.7-0.3C1751,453.6,1732.6,441.9,1714.7,429.4z"/>
<path d="M839.3,469.8l-2.7-0.1c-0.5-0.2-0.5-0.4-0.1-0.6c0.8-0.3,0.9-0.7,0.2-1.2c-0.2-0.2-0.3-0.4-0.4-0.8c0-0.4-0.1-0.9-0.4-1.5
	c-4.2-11.2-7.6-22.7-10.2-34.4c-0.3-1.1-0.1-1.6,0.4-1.2c0.2,0.1,0.4,0.4,0.5,0.8C829.1,444.5,833.3,457.4,839.3,469.8z"/>
<path d="M1431.7,132.9c-0.2,0-0.4-0.1-0.6-0.1"/>
<path d="M1185.9,100c1.2,0.1,2.5,0.2,3.7,0.3c0.3,0,0.6,0.1,0.9,0.1c71.4,6.6,146.9,16.2,225.2,29.7c0.5,0.1,1,0.2,1.5,0.3
	c4.6,0.8,9.3,1.6,13.9,2.5L1185.9,100z"/>
<path d="M1181.4,99.6c-1.1-0.1-2.1-0.2-3.2-0.3h0c-2.2-0.2-4.3-0.4-6.5-0.6h0c-13.7-1.2-27.1-2.2-40.5-3.2h0L1181.4,99.6z"/>
<path d="M1123.8,95.1C1123.8,95.1,1123.8,95.1,1123.8,95.1c-6.4-0.5-12.8-0.9-19.1-1.3L1123.8,95.1z"/>
<path d="M1102.3,93.6c-17.1-1.1-33.9-1.9-50.4-2.7L1102.3,93.6z"/>
<path d="M1050.4,90.9c-6.5-0.3-13-0.6-19.4-0.8L1050.4,90.9z"/>
<path d="M1029.9,90.1c-14.9-0.6-29.5-1-43.9-1.3L1029.9,90.1z"/>
<path d="M985.2,88.8c-7.5-0.2-15-0.3-22.4-0.4L985.2,88.8z"/>
<path d="M872.4,88.4c28.1-0.5,57.7-0.6,88.7-0.1L872.4,88.4z"/>
<path d="M1399.1,163.8"/>
<polygon points="1421.1,184.9 1420.4,185.3 1420.2,185.4 1399.5,165 1399.4,164.9 1398.3,163.8 1399.2,163.3 1399.2,163.3 
	1399.4,163.5 1420.2,184 "/>
<polygon points="988.8,307.9 1008.5,311.8 1008,312.6 988.9,309.1 "/>
<path d="M1164.2,339.8c-0.6-0.1-0.9-0.2-1-0.2l-0.4-0.7l0.9,0.1c0.1,0.1,0.2,0.1,0.2,0.2l0.2,0.3
	C1164.2,339.7,1164.2,339.8,1164.2,339.8z"/>
<polygon points="824.8,423.1 826.7,431.6 825.9,431.7 824.1,423.2 "/>
<path d="M1432.2,365.3l-21.3-1.2c0,0,0.4,0.1,1.5,0.8c1.1,0.7,18.1,1.5,18.1,1.5L1432.2,365.3z"/>
<polygon points="1690.2,410.2 1709,424.3 1708.3,425 1688.8,410.4 "/>
<path d="M388.9,211.7l82.1,8.5l-0.2-1.3l-76.1-8c0,0-4.1,0.5-6.5-0.1L388.9,211.7z"/>
<path d="M484.7,220.7c-0.4,0.3-0.9,0.5-1.5,0.6l2.9,0.2c0.1-0.2,0.2-0.5,0.3-0.7L484.7,220.7z M483.2,221.2l-1.6-0.2
	C482.2,221.2,482.8,221.3,483.2,221.2z"/>
<path d="M1027.3,312.5c1.2,0,1.9,0,1.9,0c123.6-12.5,246.9-27.1,370-44c56.2-7.7,112.4-15.7,168.5-24c36.2-5.3,72.4-10.6,108.6-15.9
	c37.9-5.5,75.9-10.8,113.9-15.9c30.3-4,71.9-8.9,124.7-14.8c2.8-0.3,4.9-0.3,6.3,0.1v-1.7c-21.3,2.1-42.5,4.4-63.7,7
	c-45.3,5.4-90.6,11.4-135.7,17.9c-77.2,11.1-154.4,22.3-231.5,33.6c-53.9,7.9-117.9,16.5-192,26c-89.8,11.4-183,22-279.8,31.8
	c-2.3,0.2-4.4,0-6.2-0.8c-0.9-0.4-3.2-0.7-7-0.8c-0.4,0-0.5,0.1-0.2,0.4c0.4,0.5,1,0.8,1.6,0.8c1,0,1.5,0.1,1.6,0.1
	c7.3,1.4,14.7,2.8,22,4.2c0.3,0.1,0.6,0.3,0.6,0.6c0.3,1.2,0.3,2.8-0.1,4.7c-3.1,13.5-3.2,27.7-0.5,42.4
	c2.7,14.7,7.1,28.9,13.1,42.6c9.4,21.1,20.1,41.4,32.1,60.9c0.6,1,0.3,1.5-0.9,1.5H957.2c-0.9,0-1.7-0.5-2.1-1.3
	c-4.4-8.5-8.4-17.2-12-26.1c-6.1-15.2-10.3-30.9-12.5-47.1c-1.1-8.2-1.4-16.4-0.8-24.7c0.1-1,0.1-1.8,0.1-2.3
	c-0.3-5.4-0.2-10.7,0.4-16.1c1.7-16.6,4.9-33.6,9.6-50.8c0.2-0.7,0.9-1.2,1.7-1l48.7,9.3c0.4,0.1,0.7,0,0.8-0.2
	c0.2-0.2,0.1-0.5-0.1-0.7c-0.1-0.1-0.3-0.2-0.6-0.2c-19.4-3.4-38.8-7-58.2-10.9c-0.5-0.1-0.8-0.3-0.8-0.6c0-0.2,0.2-0.5,0.6-0.5
	c82.2-8,150.4-15,204.6-21.3c108.3-12.4,216.3-26.4,324.2-42c68.8-9.9,137.5-19.9,206.2-30c31.1-4.5,72.6-10.2,124.5-17
	c37.4-4.9,79.8-9.7,127-14.4h0.1c0.3-0.1,0.6-0.3,0.5-0.5l-0.1-0.2c0-0.1-0.2-0.2-0.4-0.2c-8,0.8-28.8,3-62.4,6.7
	c-10.6,1.2-19,2.1-25.1,2.9c-4.7,0.6-10.3,1.3-16.8,2c-4.4,0.5-10.1,1.2-16.8,2.1c-40.5,5.3-65.7,8.6-75.8,10
	c-40.8,5.7-81.5,11.5-122.2,17.5c-46.8,6.9-93.7,13.7-140.6,20.5c-126.6,18.3-250.4,33.9-371.2,47c-13,1.4-22.5,2.5-28.7,3.2
	c-1.8,0.2-4.9,0.5-9.1,0.9c-2.3,0.2-5.4,0.5-9.2,0.9c-21.4,2.2-42.8,4.4-64.2,6.6c-12.5,1.3-25,2.4-37.5,3.4c-1.8,0.1-4.5,0.5-8.1,1
	c-3.8,0.5-6.5,0.6-8.2,0.3c-7.6-1.4-15.2-2.8-22.9-4.1c-0.2,0-2.1-0.5-5.5-1.2c-1.4-0.3-3.2-0.7-5.5-1.1c-7.7-1.3-15.4-2.7-23.1-4.1
	c-0.3-0.1-0.5-0.3-0.5-0.6s0.2-0.5,0.4-0.8c0.2-0.2,0.5-0.3,0.9-0.3c7.5-0.2,15-0.7,22.5-1.3c12.2-1,18.8-1.5,19.9-1.6
	c14.5-1,31.2-2.4,50.3-4.1c68.4-5.9,135.1-13.2,200.1-21.7c67-8.8,137.1-18.6,210.5-29.5c21.7-3.2,76.4-11.2,163.9-24.1
	c57.1-8.4,114.2-16.4,171.3-24.1c0,0,3.9-0.4,11.5-1.2c2.8-0.3,5.5-0.7,8.2-1.2c3.4-0.7,6.2-1.1,8.2-1.3c13.1-1.5,26.2-3.1,39.3-4.8
	c44.5-5.6,93.2-11.1,146-16.3c0.3,0,0.5-0.2,0.5-0.5c0-0.2-0.3-0.4-0.6-0.4c-2.4,0.1-5.6,0.5-9.5,1c-2.9,0.4-6.8,0.7-11.7,0.9
	c-0.3,0-0.7-0.1-0.8-0.4c-0.4-0.6-0.1-0.8,0.7-0.7c0.3,0,0.6,0,0.9-0.1c6.5-1.8,12.9-3.7,19.4-5.6c0.3-0.1,0.6-0.1,0.9,0
	c0.6,0.2,0.9-0.1,0.8-0.7c-0.1-0.2-0.3-0.3-0.5-0.3c0,0-0.1,0-0.1,0c-10.4,2.6-20.7,5.5-30.9,8.6c-1.7,0.5-4.4,0.9-8.2,1.3
	c-17.9,1.7-35.9,3.7-53.7,6c-1.1,0.1-1.5-0.1-1.1-0.9c0.2-0.2,0.4-0.5,0.8-0.6c30.7-9.4,61.5-18.2,92.5-26.5c2.1-0.5,2-0.8-0.1-0.9
	c-0.2,0-0.4,0-0.7,0.1c-33.5,8.9-66.8,18.5-99.9,28.6c-3.3,1-6.7,1.7-10.2,2.1c-13.3,1.5-26.6,3.1-39.8,5c-2.1,0.3-2.8,0-2-0.8
	c0.2-0.3,0.6-0.5,1.1-0.7c50.2-16.7,101-31.7,152.3-44.7c0.3-0.1,0.6-0.3,0.6-0.6c0-0.4-0.2-0.5-0.7-0.4
	c-51.9,13.1-104.8,28.7-158.7,46.7c-3.5,1.2-7,2-10.4,2.5c-3.5,0.5-7.1,1.1-10.7,1.5c-3.9,0.5-7.7,0.4-11.5-0.3
	c-1.3-0.2-2.6-0.4-3.9-0.3c-0.1,0-0.2,0-0.2,0c-0.2-0.1-0.1-0.2,0.1-0.2c0.1,0,0.1,0,0-0.1c-2.1-0.3-4.3-0.6-6.5-0.9
	c-2.1-0.2-2.2-0.6-0.3-1.2c0.4-0.1,0.7-0.2,0.8-0.3c66.1-23,133.4-42.7,201.9-58.9c1.4-0.3,1.4-0.6,0-1c-0.5-0.1-1.1,0-1.7,0.2
	c-0.8,0.3-1.3,0.5-1.6,0.6c-70.6,16.8-137.8,36.5-201.7,59c-2.9,1-5.4,1.4-7.4,1.1c-6.3-0.8-12.7-1.6-19-2.3
	c-1.4-0.2-1.5-0.5-0.2-0.9c22.7-8.1,45.5-15.8,68.5-23c54.1-17,108.7-31.9,163.9-44.8h0.1c0.3-0.1,0.5-0.4,0.4-0.6
	c-0.1-0.2-0.2-0.3-0.4-0.4h-0.5c-39.1,9.2-76.4,18.9-111.7,29c-39,11.2-78.8,23.9-119.6,38.2c0,0-0.8,0.4-2.4,1
	c-1.8,0.7-3.6,1-5.4,0.7c-1.8-0.3-2.7-0.4-2.8-0.4c-3.8-0.3-7.6-0.8-11.4-1.5c-0.1,0-1.7-0.2-5-0.5c-1.7-0.2-3.4-0.6-5.2-1.3
	c-0.9-0.3-0.9-0.7,0-1c21.6-7.7,43.4-15.1,65.3-22.1c64.7-20.6,130.2-38.1,196.5-52.7c2.1-0.4,2-0.7-0.1-0.8c-1.3,0-3,0.2-5,0.6
	c-20.4,4.7-40.8,9.6-61.2,14.7c-66.5,16.6-132,36.3-196.6,59.3c-0.1,0-0.8,0.4-2.1,1.1c-0.9,0.4-1.8,0.6-2.8,0.4
	c-1.8-0.3-2.6-0.4-2.7-0.5c-4.8-0.2-10.5-0.9-17.3-1.9h-0.6c-0.6,0.1-1,0.1-1,0c-0.2-0.6,0.2-1.2,0.8-1.5
	c30.2-10.9,59.8-20.8,88.8-29.8c65.9-20.5,132.6-37.9,200.1-52.4c0.2,0,0.4,0,0.7-0.1c0.5,0,0.7-0.1,0.6-0.4v-0.1
	c-0.1-0.4-0.5-0.7-0.9-0.6c-39.1,8.4-76.7,17.4-112.8,27c-60.7,16.1-120.5,34.8-179.5,56.3c-2.3,0.8-4.8,1-7.5,0.4
	c-2.6-0.6-4.4-0.9-5.6-1c-4.3-0.3-8.6-0.9-12.9-1.7c-0.5-0.1-1-0.1-1.5-0.1c-3.1,0.8-3.5,0.3-1.2-1c0.3-0.2,0.7-0.4,1.2-0.5
	c46.5-17.1,93.6-32.4,141.3-45.9c59.4-16.8,119.3-31.2,179.8-43.3c0.4-0.1,0.7,0,0.9,0.1c0.2,0.1,0.4,0.3,0.6,0.6v-1.8
	c-2.1,0.2-7.2,1.2-15.3,2.9c-58,11.9-115.5,26-172.4,42.2c-47.1,13.5-93.6,28.7-139.6,45.6c-1.3,0.5-2.7,0.6-4.1,0.4
	c-5.9-0.8-11.8-1.7-17.6-2.6c-1.7-0.3-1.8-0.6-0.2-1.1c0.3-0.1,0.5-0.3,0.8-0.5c0.3-0.3,0.6-0.5,0.9-0.7
	c67.1-24.7,135.2-45.9,204.5-63.6c46-11.8,92.3-22.3,138.8-31.5c0.2-0.1,0.4-0.2,0.4-0.5c0,0,0-0.1,0-0.1c-0.1-0.3-0.4-0.4-0.8-0.3
	c-50.9,10.2-101.5,21.8-151.8,35c-35.4,9.3-70.6,19.5-105.5,30.5c-30.8,9.8-61.3,20.3-91.5,31.5c-1.3,0.5-2.6,0.6-3.9,0.4
	c-6.6-1-13.1-1.8-19.7-2.5c-0.8-0.1-1.7-0.3-2.6-0.5c-0.9-0.3-1.8-0.5-2.6-0.6c-1.1-0.2-1.1-0.4-0.1-0.8
	c51.6-19.4,104-36.6,157.1-51.5c73.2-20.6,147.1-37.7,221.9-51.4c0.3,0,0.5-0.1,0.7-0.2c0.9-0.3,0.9-0.6,0.2-0.9
	c-0.2-0.1-0.4-0.1-0.6,0c-61.8,11.4-124.7,25.5-188.6,42.2c-9.6,2.5-18,4.8-25.2,6.9c-6,1.7-12.4,3.5-19.2,5.4
	c-5.8,1.6-12.4,3.5-19.8,5.7c-43.6,13.1-85.5,27.2-125.8,42.3c-2.5,0.9-4.6,1.4-6.2,1.5c-1.5,0-2.9-0.1-4.4-0.4
	c-2.2-0.4-3.6-0.7-4.3-0.7c-2.8-0.3-5.7-0.6-8.6-0.9c-0.5,0-0.9-0.1-1.2-0.3c-1.2-0.5-1-1,0.4-1.6c31.3-12.3,63-23.5,95.1-33.7
	c24.7-7.8,49.5-15.3,74.4-22.5l0.2-0.1l0.4-0.1l3.4-0.7c0.6-0.1,0.8,0,0.6,0.5l-2.1,4.9c-0.1,0-0.1,0.1-0.1,0.2
	c-0.1,0.4,0.2,0.7,0.5,0.7c3.2,0.1,4.5-1.5,3.9-4.8c-0.3-1.5,0.3-2.4,1.7-2.9c1.8-0.5,2.5,0,2.2,1.7c-0.1,0.8-0.2,1.6-0.3,2.2
	c-0.1,0.8-0.3,1.6-0.6,2.4c-0.1,0.3-0.4,0.5-0.7,0.6c-0.7,0.3-0.8,0.7-0.3,1.3c0.2,0.1,0.5,0.2,0.9,0.2l2.3-0.2
	c1.4-0.1,1.9-0.7,1.5-1.9c-0.5-1.7-0.5-3.7-0.1-6.2c0.1-0.8,0.7-1.4,1.4-1.6c8.6-2.3,17.1-4.6,25.5-7c12.5-3.5,30.8-7.8,54.8-12.8
	c0.4,0,2.1-0.5,5-1.3c1.1-0.3,2.3-0.5,3.4-0.7c1.6-0.2,2.7-0.3,3.4-0.5c9.5-2.1,18.9-4.2,28.4-6.2c5.6-1.2,11.1-2.6,16.6-4
	c1.9-0.5,4.3-1,7.3-1.5c2.4-0.4,4.9-0.9,7.3-1.6c2.7-0.8,5.6-1.4,8.4-2c3.7-0.7,6.6-1.3,8.5-1.8c4.4-1.1,8.8-2,13.2-2.9
	c10.2-2,20.4-4,30.6-5.9c3.7-0.7,6.8-0.9,9.2-0.6v-1c0.1-1.5-0.6-2.1-1.8-2.1c-44,9.6-88,19.3-132,29.2c-20,4.5-49.3,10.9-87.9,19.1
	h-0.1c-0.2,0-0.4-0.2-0.4-0.4c0.1-1.6-0.1-3.1-0.5-4.6c-0.7-2.7-1-4.4-1.1-4.9c-0.3-2.9-0.2-5.6,0.3-8.1c0.3-1.7,0.6-1.7,0.9,0
	c0.3,2.4,0.4,4.7,0,7.1c-0.2,1.7,0.2,2.8,1.4,3.2h0.3c0.4-0.1,0.7-0.4,0.7-0.8c-0.6-5.7-1.1-10.9-1.4-15.5c-0.2-2.3-0.5-3.9-1.1-4.8
	c-1-1.5-2.6-2.4-4.8-2.4c-4.2-0.1-9.2,0.2-15,0.9c-6.6,0.8-11,1-13.3,0.6c-5.9-1-11.2-1-15.8-0.2c-4.4,0.8-8.9,0.6-13.5-0.5
	c-1.6-0.4-2.9-1.2-3.8-2.3c-0.2-0.3-0.5-0.4-0.8-0.3c-0.8,0.2-1.2,0.8-1.4,1.6c-0.1,0.4-0.2,0.7-0.4,0.9c-3.1,3.8-5.4,7.2-6.8,10
	c-1.3,2.7-0.5,4,2.6,3.9c2.5,0,5.1-0.5,7.7-1.5c0.8-0.3,1.6-0.2,2.3,0.3c1.8,1.4,2.9,2.7,3.5,3.8c0.8,1.5,3.3,5.5,7.7,11.8
	c0.2,0.2,0.4,0.4,0.8,0.6l1.4,0.8c0.2,0.1,0.4,0.4,0.5,0.8c0.8,3.1,1.2,6.2,1.2,9.3c0,0.4-0.1,0.7-0.4,0.8c-0.3,0.2-0.7,0.3-1,0.4
	l0.2,0.8c0,0-0.1,0-0.4,0.1c0.1,0,0.2,0.1,0.2,0.2c0.2,0.2,0.3,0.5,0.3,0.8c-0.3,2,0.5,2.7,2.4,1.9c0.5-0.2,0.9-0.6,1-1.2
	c0.4-1.8,1-2.5,1.8-2c0.4,0.2,0.7,0.4,0.9,0.4c1.3,0.2,2.2-0.3,2.7-1.5c0.2-0.3,0.4-0.6,0.6-0.7c-0.4,0.2-0.5-1.2-0.5-1.2
	s0.1,0,0.3-0.1c-0.1-0.2-0.2-0.3-0.2-0.5l0.1-11c0-0.4,0.4-0.8,0.9-0.8c3,0.1,5.7,0.4,7.9,0.9c4.3,1,8.3,0.6,11.8-1.3
	c1.9-1,3.7-1.2,5.5-0.5c0.3,0.1,0.7,0.1,1,0.1c1.3-0.2,2.2,0.4,2.6,1.8c0.6,2,1,3.5,1.1,4.7c0,0.3-0.1,0.6-0.3,0.8c0,0,0,0,0,0
	c-2.9,0.6-27.3,5.3-30.4,5.9c0.1,0.1,0.1,0.2,0.2,0.3c0.5,0.3,1.1,0.3,1.8,0l-1.8,1c0.4-0.1,25.5-5.3,30.1-6c0.3,0.2,0.5,0.6,0.6,1
	c0.1,0.3,0,0.6-0.3,0.7l-3.3,1v0l-0.7,0.2c0,0,0.1,0,0.1-0.1c-8.3,2.3-16.7,4.7-25,7c-1.1,0.3-3.1,1-6,2c-1.5,0.5-3.6,1.1-6.1,1.7
	c-2.4,0.6-5.5,1.5-9.1,2.6c-45.9,14.2-89.2,29.1-129.9,44.5c-0.3,0.1-0.6,0.2-1,0.1c-6.6-1.2-13.3-2.1-20-2.8
	c-1.7-0.2-3-0.5-3.9-0.9c-1.3-0.7-1.3-1.2,0.1-1.8c24.4-9.4,48.9-18.1,73.4-26.2c0.2-0.1,0.4-0.2,0.4-0.3c12.5-3.6,55.2-13,55.2-13
	s0.1-0.1,0.1-0.3c1.1-0.3,2.2-0.5,3.1-0.6c1.5-0.2,2.9-0.5,3.9-0.8c2.3-0.7,4.9-1.2,7.8-1.4c1.2-0.1,2.5-0.4,3.8-0.9c0,0,0,0,0.1,0
	c3.7-0.8,14.3-3.2,16.6-3.7c-0.6-0.3-1.1-0.5-1.8-0.4c-0.1,0-0.2,0-0.4,0c-4.8,1.2-14.6,3.3-17.1,3.8c-0.1,0-0.2,0.1-0.3,0.1
	l-16.3,3.2c-0.1,0-0.3-0.1-0.5-0.1c-0.8-0.1-13,2.9-27.6,6.5l-5.6-0.4c0,0-30,5-31.9,5.9l-1.4,0.4l-6.1,1.1h0c-4.5,0.5-9,1.1-9,1.1
	s-34.5,7.8-43.3,10.3c-0.7,0.2-1.2,0.4-1.6,0.5c0,0,0,0,0,0c-0.2,0.1-0.2,0.1-0.3,0.1c-10.3,3.8-20.6,7.6-30.9,11.5
	c-1.3,0.5-2.6,0.6-3.9,0.4c-6.2-1-12.5-1.9-18.7-2.7c-0.2,0-0.5,0-0.7,0.1c-0.2,0.1-0.3,0.1-0.4,0.2h0c-0.9,0.4-0.7,0.6,0.6,0.7
	c0.2,0,0.5,0,0.7,0.1c6.2,1,12.3,1.9,18.4,2.7c0.9,0.1,1.8,0.4,2.6,0.9c20,13,39.1,26,57.4,39.2c9.4,6.8,18.5,14,27.3,21.7
	c0.6,0.5,0.5,0.8-0.3,0.9l-35.9,5.2c-0.5,0.1-1-0.1-1.4-0.5c-7.7-8-15.2-15.8-22.6-23.6c-5.4-5.6-10.1-10.3-14.3-14
	c-12.7-11.3-26.2-21.6-40.3-31.1c-0.1-0.1-0.3-0.2-0.5-0.4c-0.1-0.1-0.2-0.2-0.3-0.2l0.9,0.8v0.9c13.7,9.4,26.8,19.7,39.1,30.8
	c0.2,0.2,0.3,0.5,0.4,0.8c0,0.5,0.3,0.8,0.7,1c0.4,0.2,0.7,0.3,0.9,0.4c3.2,2.8,6.3,5.7,9.4,8.7c8.6,8.5,17.1,17.1,25.3,26
	c0.6,0.7,0.5,1-0.4,1.2l-52.1,7.7c-0.9,0.1-1.9-0.2-2.5-1l-23.4-27.3c-0.2-0.3-0.4-0.4-0.7-0.4l0.9,0.9l-0.7,0.4
	c7.8,8.5,15.5,17.4,23.1,27l0.1,0.1c0,0.2-0.1,0.3-0.2,0.4c-9.7,2-19,3.4-28,4.2c-0.3,0-0.6-0.1-0.8-0.3
	c-12.3-13.8-23.1-25-32.2-33.8c-25.1-24.2-53-46.3-83.5-66.5c-1.1-0.7-2-1.3-2.7-1.6c-0.6-0.3-1-0.5-1.2-0.8c-1-1.1-0.5-1.6,1.5-1.5
	l-5.5-0.8c-0.3,0.3-0.2,0.6,0.5,1c29.1,18,56.7,39.2,82.8,63.8c5.6,5.2,10.4,9.8,14.4,13.8c8.6,8.4,16.6,17.1,24.1,26.1
	c0.5,0.6,0.4,1-0.4,1.1l-55.8,8.2c-0.3,0-0.6,0-0.9-0.3c-1.3-1.2-2.7-2.8-4.2-4.8c-14.2-19.6-30.2-38-48.1-55.2
	c-4.7-4.5-9.6-8.9-14.9-13.4c-19.2-16.1-38.9-30.2-58.9-42.2c-2.6-1.5-4.4-2.8-5.5-3.6c-0.2-0.1-0.3-0.2-0.4-0.2l-3.7-2.7l-2.3-0.2
	l7.2,5l0.7,0.5c0.4,0.2,0.7,0.4,1,0.6c22.2,13.3,43.9,28.9,64.8,46.8c11,9.4,20.5,18.5,28.6,27.4c11.9,13,23.1,26.8,33.5,41.3
	c0.8,1.2,0.5,1.9-0.9,2.1l-43.2,6.1c-1.4,0.2-2.5-0.3-3.3-1.5c-15-22.5-31.6-44.1-49.8-64.8c-21-23.9-42.9-44.4-65.7-61.4
	c0,0-0.5-0.3-1.4-0.9c-1.3-0.9-2.4-2.1-3.1-3.8c-0.1-0.2-0.1-0.3-0.1-0.4c-1.5-0.1-3-0.3-4.5-0.4c0.2,0.1,0.5,0.2,0.7,0.3
	c0.7,0.4,1.4,0.9,2,1.4c0.9,0.8,1.5,1.3,1.8,1.6c22.5,16.2,43.7,35.2,63.6,57.2c20.6,22.7,39.3,46.8,56.2,72.3
	c0.1,0.1,0.1,0.2,0.1,0.3c0.1,0.3-0.2,0.7-0.5,0.7l-59.6,8.4c-0.5,0.1-1-0.2-1.2-0.6c-10.7-19.1-22.1-37.7-34.2-55.8
	c-15.3-22.9-33.1-43.7-53.4-62.3c-9.4-8.6-18.7-17.3-28.1-26c-0.1-0.1-0.1-0.2-0.2-0.2c-0.1-0.3,0.1-0.6,0.4-0.7
	c0.8-0.2,1.5-0.5,2.2-0.6c-2.5-0.2-4.9-0.3-7.4-0.5c5.6,4.4,13.1,11.1,22.5,19.8c11.7,10.9,21.3,20.2,28.9,28
	c4.7,4.8,9.1,9.8,13.3,14.9c10.9,13.3,20.9,27.2,30,41.9c8.5,13.7,16.9,27.7,25,42.1c0,0.1,0,0.1,0,0.2c0,0.3-0.1,0.5-0.4,0.5
	l-32.8,4.5c-0.6,0.1-1.1-0.2-1.4-0.7c-6.3-12.3-12.6-24-18.9-35.4c-16.2-28.7-34.6-55.8-55.4-81.4c-9.1-11.2-18.9-22.7-29.5-34.4
	c-0.3-0.3-0.4-0.8-0.4-1.2c-0.8,0-1.6-0.1-2.4-0.1c2.1,1.9,4.1,3.9,5.8,6c3.4,4,5.2,6.1,5.2,6.2c15.6,17.3,29.5,34.5,41.6,51.6
	c19.5,27.5,37.1,57.2,52.8,89.2v0.1c0,0.2-0.1,0.4-0.3,0.4l-55.6,7.5c-1.2,0.2-2-0.3-2.5-1.5c-6.9-16.7-14.2-32.7-21.9-48.2
	c-11.6-23.4-25.3-46.3-41.1-68.6c-11.4-16.1-22.8-31-34.2-44.6c-0.2-0.2-0.3-0.5-0.2-0.7c-0.5,0-1,0-1.6-0.1
	c24.9,29.2,46.7,60.6,65.6,93.9c3.2,5.7,6.3,11.6,9.4,17.7c8.5,17,16.2,34,23.1,51.3c0,0.1,0,0.1,0.1,0.2c0.1,0.5-0.3,0.9-0.8,1
	c-15.8,2.3-30.9,4.1-45.2,5.5c-0.3,0-0.6-0.1-0.8-0.4c-1-1.5-2.2-4.1-3.8-7.8c-12.9-30.7-25.3-61.6-37.3-92.6
	c-8.9-22.9-18.6-45.4-29.3-67.5c-0.3-0.5-0.4-1.1-0.3-1.7c0-0.1,0-0.3-0.1-0.4c-0.4,0-0.8,0-1.2,0c0,0.1,0,0.1-0.1,0.2
	c0,0.2,0,0.5,0.2,0.8c8.5,17.8,15.2,32.7,20.1,44.5c3,7.2,10.4,25.8,22.3,55.8c9,22.6,18.2,45.5,27.8,68.5c0,0.1,0.1,0.2,0.1,0.2
	c0,0.4-0.3,0.8-0.7,0.9c-2,0.2-3.9,0.4-5.8,0.7c-5.7,0.9-11.4,1.5-17.1,1.8c-0.4,0-0.8,0.1-1.3,0.2c-0.5,0.1-0.9,0.2-1.4,0.2
	c-5.5,0.4-11.1,1-16.6,1.8c-5.7,0.8-11.6,1.4-17.6,1.8c-0.6,0-1.1-0.3-1.2-0.8c-1-2.7-1.9-5.3-2.5-7.8c-0.8-2.9-1.1-4.3-1.2-4.4
	c-8.1-28.6-16.2-57.3-24.3-85.9c0,0-1.5-5.5-4.5-16.3c-9.4-33.9-14.7-47.6-13-41.8c-2.4-7.5-5.8-17.8-7.1-21.7c-0.3,0-0.6,0-0.8,0
	c1.6,5.6,10,31.8,10.2,32.3c0.5,1,0.8,1.6,0.9,1.9c5.2,16.8,10.2,33.7,15,50.6c5.3,18.9,10.6,37.7,16,56.5
	c3.6,12.3,6.9,24.6,10.1,37c0,0,0,0,0,0.1c0,0.2-0.2,0.4-0.4,0.5l-34.1,3.6c-0.5,0.1-1-0.3-1.1-0.8c-6.1-23-12.1-45.8-18-68.3
	c-5.5-21.1-10.4-42.3-14.5-63.8c-2.5-13.2-4.4-26.4-5.8-39.8c0-0.1-0.2-1.5-0.6-4.4c-0.3-2-0.3-4-0.1-5.9c-0.6,0-1.1,0-1.7,0
	c0,0,0,0,0,0.1c0.7,2.1,1.2,4.7,1.5,7.7c1.6,16.8,4,33.5,7.4,50c4.3,21.2,9.2,42.2,14.7,63.1c5.4,20.5,10.8,41,16.2,61.4
	c0,0.1,0,0.1,0,0.2c0,0.4-0.3,0.7-0.7,0.7c-1.6,0-3.4,0.1-5.3,0.3c-17.3,1.7-34.7,3.2-52,4.5c-0.3,0-0.6-0.1-0.7-0.4
	c-1.3-3.7-2.4-7.4-3.2-11.3c-1.2-5.6-1.9-8.5-1.9-8.5c-1.2-5-2.4-10.1-3.5-15.1c-1.4-6.7-2.5-11.8-3.3-15.2
	c-7.8-34.6-14.2-68.8-19.1-102.6c-1.3-9.2-2.4-19.3-3.2-30.2v-0.8c0.1-1.1-0.6-4.3-1.1-3.8c-0.2,0.2,0.2,3.5,0.2,3.9
	c0.1,4.8,0.3,8.8,0.7,12c3.5,28.7,7.8,55.5,12.8,80.2c5.3,26.8,12,57.2,20.1,91.2c0.1,0.3-0.1,0.6-0.4,0.6c-1.4,0.4-2.7,0.6-4.1,0.7
	c-2.7,0.1-4.1,0.2-4.2,0.2c-7.1,0.7-14.1,1.3-21.2,1.7c-3,0.2-6.9,0.5-11.8,0.9c-3.8,0.3-7.7,0.6-11.8,0.7c-0.9,0-1.7-0.6-1.8-1.5
	c-0.4-2.9-0.7-5.6-0.8-8.2c-0.2-3.9-0.3-5.8-0.3-5.9c-1.6-21.7-3.4-43.3-5.5-65c-0.1-1.1-0.2-2.3-0.1-3.5c0-1.5,0-2.6-0.1-3.5
	c-2-23.7-4-47.4-5.9-71.1c-0.6-7.3-0.9-14.7-0.8-22c0-3-0.2-6-0.8-9c-0.1-0.3,0.1-0.9,0.4-1.8c0.1-0.2,0.3-0.4,0.6-0.5
	c0.1,0,0.2,0,0.3-0.1c-1.2,0-2.4,0-3.6,0.1l1,1.3c0.2,0.3,0.4,0.6,0.4,0.8c0.9,20.1,1.7,32.5,2.2,37.2c0.9,7.9,1.5,15.7,1.9,23.6
	c0.1,1.5,0.3,3.7,0.6,6.8c0.2,1.7,0.4,4,0.6,6.8c0.8,9.9,1.6,19.7,2.3,29.6c0.5,6.8,1,13.5,1.6,19.9c1.9,21.2,3.7,42.3,5.2,63.5
	c0.1,2-0.6,3-2.2,2.9h-2.2c-6.7,0.6-13.4,1.1-20.1,1.5c-2.6,0.1-5.3-0.1-8-0.6c-9.9-2-17.3-3.4-22-4.2c-4.7-0.7-8.8-1.6-12.3-2.6
	c-0.3-0.1-0.5-0.3-0.5-0.6c-0.6-8.8-0.6-17.7,0-26.5c0.5-6.8,0.8-13.5,0.9-20.3c0.1-3.7,0.2-7.3,0.4-11c0.1-2.4,0.3-6.1,0.4-11
	c0.1-3.3,0.3-7,0.6-11.2c0.4-6,0.8-16.2,1.2-30.8c0.3-13.9,0.8-27.8,1.4-41.8c0-0.1,0.2-4.5,0.5-13.3c0.2-6.8,0.7-12.2,1.3-16.2
	c0.2-1.2,0.9-2,2-2.3l-7.2,0.3c1.2,0,2.3,0.5,3.1,1.2c0.2,0.2,0.4,0.5,0.4,0.9c0.2,4.2,0.2,7.3,0,9.2c-1.2,12.3-1.7,25.6-1.7,39.7
	c0,4-0.1,8.7-0.4,14c-0.2,4.9-0.4,9.6-0.5,14c-0.2,6.3-0.4,12.5-0.8,18.8c-0.2,3.6-0.4,7.6-0.5,12.1c-0.1,4-0.3,8.1-0.5,12.1
	c-1.3,20.8-1.8,41.5-1.6,62v0.1c-0.1,0.4-0.4,0.6-0.8,0.5l-47-8.7c-0.6-0.1-1.1-0.6-1.1-1.2c-0.5-7.4-0.5-14.7-0.1-22.1
	c0.6-11.2,1.2-22.4,1.8-33.6c0.5-9.6,2.1-23.3,4.9-41c0.2-1.3,0.5-2.9,0.9-4.7c0.5-2.1,0.8-3.7,0.9-4.7c0.2-2.3,0.6-4.6,1.2-6.9
	c4.5-18.5,10-36.6,16.5-54.4c0-0.1,0.2-0.9,0.6-2.4c0.6-2.2,2.1-3.5,4.5-4c-3.5-0.2-7.1,0-10.5,0.7c0.6,0.5,1.6,0.6,3,0.3
	c2.5-0.5,3.2,0.6,2.2,3.2c-13.9,35.8-22.2,72.9-24.9,111.2c-1.2,18.1-2.1,36.3-2.5,54.5c0,0.1,0,0.8,0.1,2c0.1,1.8-0.7,2.5-2.5,2.1
	c-0.7-0.2-1.1-0.3-1.2-0.3c-1.4-0.2-2.8-0.5-4.2-0.8c-1.5-0.3-2.9-0.6-4.1-0.8c-5.1-0.7-10.2-1.6-15.3-2.6c-5.1-1-10.2-1.9-15.3-2.8
	c-6.2-1-12.5-2.2-18.9-3.7c-0.8-0.2-1.4-0.9-1.3-1.8c2.4-23.1,5.9-45.7,10.4-67.9c6.4-31.2,16.6-61.2,30.5-89.8l-8.4,0.9
	c1.2,0.5,2.5,0.7,4,0.4c1.6-0.3,2,0.2,1.4,1.7c-13.6,29.6-23.5,60.6-29.6,92.9c-4.4,23.3-7.4,43.1-9.1,59.6c0,0.5,0,1.3,0.2,2.3
	c0.3,1.5-0.4,2-2.1,1.5c-1-0.3-1.7-0.5-2.1-0.6c-11.3-1.9-22.4-3.8-33.4-5.8c-0.3-0.1-0.6-0.4-0.6-0.7c0,0,0-0.1,0-0.2
	c4.1-19.5,8.3-38.8,12.6-57.9c1.2-5.4,3-12,5.4-20c3.7-12.5,8.5-24.7,14.2-36.4c5.1-10.4,12.3-22.3,21.8-35.6l-8.8,1l4.3,0.3
	c1.3,0.1,1.6,0.7,0.9,1.7c-10.6,14.9-19.3,30.8-26.1,47.8c-2.2,5.4-4.3,11.7-6.5,18.9c-4,13.4-7.5,27-10.4,40.7
	c-2.8,13.2-5.5,26.2-8.3,39c-0.2,0.7-0.8,1.1-1.5,1l-60.8-10.1h-0.1c-0.8-0.2-1.3-1.1-1.1-1.9c8.2-32.2,19.5-62.3,33.9-90.3
	c7.6-14.9,16.5-29,26.6-42.4c-1.6-0.2-3.1-0.1-4.4,0.3c1-0.1,1.5,0.3,1.7,1c0.1,0.3,0,0.6-0.3,0.9c-7.7,10.2-14.2,20-19.4,29.4
	c-12.6,22.9-23.2,47.4-31.5,73.4c-1.1,3.5-2.5,8.3-4.2,14.3c-1.3,4.8-2.7,9.6-4.1,14.4c-0.1,0.3-0.4,0.6-0.8,0.5l-47.4-7.4H550
	c-0.4-0.1-0.7-0.6-0.6-1c1.1-4.2,2.3-8.4,3.8-12.6c0.9-2.6,2.4-6.8,4.5-12.4c13.7-36.7,35-68.7,63.9-95.9c0.3-0.2,0.6-0.4,1-0.4
	c4.2-0.3,4.4-0.6,0.5-0.9l-15,1.8l8.8-0.3c1.9-0.1,2.2,0.5,0.8,1.8c-6.8,6.6-13.3,13.7-19.5,21.1c-11,13.2-20.4,27.4-28.3,42.6
	c-8.7,16.7-16,35.2-21.9,55.5c-0.1,0.3-0.4,0.5-0.6,0.4l-61-8.2c-0.1,0.2-0.2,0.5-0.3,0.7l-2.9-0.2c-0.5,0-1,0-1.6-0.2l1.6,0.2
	c0.6-0.1,1.1-0.2,1.5-0.6l-2.8-0.2l-26-3.1c-0.1,0-0.2,0-0.3-0.1c-0.5-0.2-0.7-0.8-0.5-1.3c2.5-5.4,5-10.9,7.5-16.7
	c4.6-10.6,9.9-20.8,15.8-30.8c10.7-18.3,23.9-34.1,39.4-47.2c-0.1,0-0.3,0-0.4,0c-0.3,0-0.7,0.1-0.9,0.2
	c-7.1,5.7-13.3,11.7-18.6,17.9c-12.6,14.9-23,31.1-31.3,48.7c-4.4,9.3-8.7,18.8-12.9,28.5c-0.3,0.6-0.6,0.8-0.9,0.7
	c-3.5,0-6.8-0.2-9.8-0.7c-1.6-0.2-3.9-0.5-6.9-0.7c-2.3-0.2-4.6-0.6-6.8-1.2c-0.3-0.1-0.6-0.1-1,0c-1.1,0.2-2.2-0.1-3.1-0.8
	c-0.4-0.3-1-0.5-1.5-0.5c-4,0.2-8.1,0.2-12.2,0c-0.8,0-3.1-0.4-6.9-0.9c-2.3-0.4-4.6-0.5-7-0.4c-1.5,0.1-1.9-0.5-1.2-1.9
	c7.4-14.5,15.3-28.4,23.7-41.9c8.6-13.6,19.6-26.9,33.1-39.7c0.2-0.2,0.5-0.4,0.9-0.4l49.7-6.5l-5.1,0.3c14.3-1.9,35.4-4.5,50.1-6.3
	l2.9,0.2c0.8,0.3,1.7,0.4,2.5,0.2c0.7-0.1,1.1,0.1,1.1,0.6c0,0.2-0.1,0.5-0.4,0.8c-29.5,30-52.6,64-69.1,102c-0.3,0.5-0.6,1-1,1.2
	l1.7,0.1c7.2-17.1,16.5-34.2,27.9-51.3c10.3-15.4,21-29.2,32.1-41.4c0.8-0.9,2.7-3.1,5.5-6.4c2.3-2.6,4.3-4.6,6.1-5.9
	c1.6-1.2,4-1.8,7.2-1.9c0.1,0,0.2,0,0.3-0.1c0.2-0.2,0.3-0.3,0.1-0.3c0.1,0,0.2,0,0.2,0s-0.9-0.8-1.9-1.2c-0.4-0.2-0.7-0.2-1.1-0.2
	c-1.4,0-79.4,10.6-79.4,10.6s0,0.1-0.1,0.1l-0.5,0c-8.3,1.4-16.9,2.5-25.9,3.4c-0.5,0.1-1.1,0-1.6-0.2
	c-79-29.2-159.1-53.5-240.2-73.1c-24-5.8-48.1-11.2-72.3-16.4c-6.2-1.3-12.5-2.7-18.7-4.1c0,0-118.6-16.5-124.3-16.9l0.1,1.2
	c0,0,123.5,16.9,123.9,16.8C197.4,48.3,270.2,66.7,342,88.6c36.8,11.2,73.1,23.4,108.9,36.7c1.1,0.4,1.1,0.7-0.1,1l-4.7,1.1
	c0,0,0.1,0,0.1,0c-1.2,0.3-2.7,0.7-3.7,1c-3.3,0.5-6.7,0.8-10.1,1.1c0,0-0.5,0.1-1.5,0.2c-1.5,0.2-3.2-0.1-5.3-0.9
	c-33.7-12.7-71.6-25.3-113.9-37.9c-41.8-12.4-84-23.6-126.5-33.6C125.3,43.2,64.9,31,4.2,20.8c-1.4-0.3-2.8-0.6-4.2-1v12.1
	c0.1-0.2,0.2-0.4,0.3-0.5c0.2-0.1,0.5,0,0.8,0.2c0.3,0.2,0.6,0.3,0.9,0.3h0.9c7.3,1.1,19.1,3.3,35.3,6.3
	c68.3,12.9,135.9,28.6,202.9,47.1c31.2,8.6,60.3,17.3,87.3,26.2c0.4,0.2,0.7,0.4,0.7,0.8c0.1,0.3-0.2,0.5-0.5,0.6
	c-5.9,1-12.2,0.9-18.8-0.1c-1-0.1-4-0.5-8.9-1c0,0-1.6-0.1-4.6-0.2c-2-0.1-3.9-0.5-5.8-1.1c-2.2-0.8-3.4-1.2-3.4-1.2
	c-29.5-8.8-47.1-13.9-53-15.6c-24.1-6.8-52.6-14.2-85.6-22.1C100.3,60,51.8,49.8,3,40.8c-0.3,0-0.6-0.1-0.9-0.3
	c-0.7-0.4-0.9-0.1-0.7,0.8c0,0.2,0.3,0.5,0.6,0.5c5.4,0.8,11.9,2,19.5,3.7c34.5,6.7,67.2,13.6,98.2,20.6
	c56.3,12.8,111.6,27.5,165.8,44.2c2,0.6,2,1.1-0.1,1.4c-7,1.1-13.9,1.6-20.9,1.5c-4.3-0.1-7.5-0.1-9.4-0.1c-1.3,0-2.5-0.2-3.6-0.6
	s-2.3-0.8-3.5-1.2c-0.1-0.1-0.4-0.1-1-0.2c-0.4-0.1-0.7-0.3-1-0.6s-0.5-0.5-0.8-0.5c-2.4-0.4-5.2-1-8.5-1.9
	c-10.1-2.8-17.5-4.9-22.2-6.2C143.8,81.8,72.4,64.8,0.3,51c-0.2,0.7-0.2,1.1-0.1,1.3c4,0.3,7.8,0.9,11.7,1.7c9.9,2,19.6,4,29.4,6.1
	c56.9,11.8,113.3,25.7,169.1,41.6c0,0,3.8,1.1,11.1,3.1c5,1.4,10,2.9,14.9,4.5c0.4,0.1,0.6,0.3,0.5,0.6c0,0.2-0.3,0.4-0.7,0.4
	c-5,0.2-10,0.1-15-0.5c-4.5-0.5-9-0.3-13.4,0.5c-1.5,0.2-2.9,0.2-4.2-0.2c-12.1-3.3-24.1-6.7-36.2-10c-8.2-2.2-16.4-4.4-24.7-6.4
	c0,0-1.8-0.6-5.4-1.7c-1.2-0.4-2.4-0.6-3.7-0.8c-1.5-0.2-2.7-0.4-3.7-0.7c-2.6-0.7-7.6-1.9-14.9-3.7C70.7,76,32.5,67.5,0.3,61.2
	L0,63.9v9.9c1.5-0.1,2.9,0,4,0.2c54.4,11.5,109.5,25.1,165.4,41.3c11.8,3.3,21.6,6.3,29.5,8.9c0.3,0,0.6,0.3,0.6,0.6
	c0.2,1.3,0.3,2.5,0.3,3.8c0,1.8-0.2,3.5-0.7,5.1c-0.2,0.6-0.8,0.9-1.4,0.7C148.6,119.2,100,106,51.8,94.6
	c-16.5-3.9-33-7.6-49.5-11.3c-0.3-0.1-0.7,0-0.8,0.3c-0.6,0.9-0.2,1.2,1.2,1.1c0.6-0.1,1.1-0.1,1.5,0c65.5,14,130.1,31,193.9,50.8
	c0.6,0.2,1,0.8,0.9,1.4l-1.5,10.3c-0.1,0.3-0.3,0.5-0.6,0.5c-2,0.1-4.1-0.3-6-1c-2-0.7-3-1.1-3-1.1C126.6,126,64.6,109,1.8,94.6
	c-0.2,0-0.5,0-1,0.1C0.3,94.8,0,94.3,0,93.4v2.8c3.4-0.1,6.7,0.3,9.9,1.2c2.7,0.7,4.1,1.1,4.2,1.1c21.9,5.2,45.3,11.1,70.4,17.7
	c38,10.1,74.8,21,110.5,32.7c0.8,0.2,1.4,0.6,1.8,1c1.2,1.3,0.5,2.1-2.1,2.3c-5.5,0.4-10.9,0.8-16.4,1.1c-2.1,0.1-4.1-0.1-6.1-0.7
	c-8.2-2.5-16.3-5-24.5-7.6c-8-2.5-14.3-4.5-19.1-5.9c-38.7-11.4-77.7-21.9-117-31.4c0,0-1.5-0.2-4.4-0.8c-1.8-0.3-3.6-0.9-5.3-1.7
	c-0.2-0.1-0.5-0.1-0.9,0c-0.6,0.2-0.9-0.2-1-1.1l0.1,2.3c5,0.8,13.4,2.7,25.3,5.6c49.1,12.1,97.4,25.6,144.8,40.8
	c1.5,0.5,1.4,0.8-0.1,1c-5.8,0.7-11.5,1.1-17,1.4c-0.1,0-2.5,0.2-7.2,0.6c-2,0.1-4.1,0.2-6.2,0.1c-1.9,0-3.9-0.4-6.1-1.1
	c-38.8-12.1-77.8-23.2-117.2-33.3c-0.1,0-2-0.5-5.8-1.3c-3.7-0.8-7.3-2.1-10.7-3.7l0.1,9.2l-0.2,4.3c1.8,0.1,3.6,0.3,5.4,0.8
	c32.1,8.3,63.9,17.3,95.5,27c0.3,0.1,0.6,0.2,0.7,0.4c0.2,0.3,0.1,0.6-0.3,0.8c-0.2,0-0.4,0.1-0.7,0.1c-7.4,0.3-11.8,0.6-13.3,0.8
	c-5.8,0.8-11.7,1.1-17.5,1c-1,0-2.1-0.2-3.4-0.7c-0.9-0.3-2.1-0.7-3.4-1.1c-21.1-6.3-42.2-12.3-63.4-18.3l0.2,2.9
	c0-1.3,0.4-1.7,1.2-1.3c0.3,0.1,0.6,0.2,0.9,0.2c0.4-0.1,0.8,0,1.2,0.1c21.1,5.7,42.1,11.8,63,18.1c0.6,0.1,0.6,0.3,0.2,0.5
	l-0.6,0.3c0.4,0.1,0.7,0.2,1,0.5c3.1-0.5,6.3-0.5,9.5-0.2l2,0.5c1.6-0.8,3.1-1.2,4.5-1.3c19.5-1.3,38.9-2.7,58.4-4.2
	c0.1,0,0.6-0.1,1.6-0.3c0.8-0.2,1.6,0,2.4,0.4c0.3,0.2,0.6,0.3,0.9,0.2c4.7-1.2,9.5-1.8,14.4-1.9c1.9,0,4.1-0.1,6.6-0.4
	c2.3-0.3,4.5-0.3,6.6-0.1c1.2,0.1,1.3,0.5,0.3,1.1c-14.4,9-28.2,18.8-41.4,29.4c0,0-0.9,0.7-2.7,1.9c-1.4,1-2.6,2.3-3.6,3.8
	c0.6,0,1.1,0.1,1.7,0.4c1.5-2.3,2.8-3.7,3.8-4.2c1.3-0.6,2.5-1.4,3.6-2.3c1.9-1.7,3-2.6,3-2.6c12.4-9.4,25.1-18.4,38.2-26.8
	c1.3-0.8,2.8-1.3,4.3-1.5c5.2-0.6,10.2-1,15.1-1.2c0.1,0,0.1,0,0.2,0c0.6,0.1,1,0.7,0.9,1.3L196,160c-0.2,1.6,0.4,1.9,1.7,0.9
	c2-1.5,3.1-3.5,3.3-5.9v-1c0-1.2,0.7-1.8,2.3-1.8c0.5,0,1.1,0.4,1.2,1c0.4,1.7,0.3,3.4-0.3,5c-1.5,4.3-2.7,8.5-3.7,12.9
	c-0.2,0.8-0.2,1.6,0,2.3c0.2,0.7,0.4,1.5,0.6,2.3c-0.2,0.6-0.1,1.3,0.1,2.1c1,7,1.3,12.7,1.1,17.3c-0.1,1.3-0.8,1.4-2.3,0.5
	c-0.3,0.7-0.8,1-1.5,0.9l3.2,0.4c0.3,0,0.5,0.3,0.4,0.6l-0.9,5.6c-0.1,0.3,0.1,0.6,0.3,0.8c3.2,2.1,6.7,2.6,10.5,1.6
	c0.3,0,0.5-0.3,0.5-0.6c0-0.7-0.4-1.3-1-1.6c-2.1-1.1-3.4-2.6-3.8-4.6c-0.3-1.4,0.2-2,1.6-1.8l5.2,0.8c0.5,0.1,0.8,0.6,0.7,1.1
	c-0.5,2.7,0.5,4.5,2.8,5.4c1.9,0.7,4.3,0.7,7.2-0.1c0.3,0,0.5-0.3,0.5-0.6c0-1.3-0.6-2.3-1.6-3c-0.8-0.5-1.2-1.2-1.2-2
	c0-0.1,0-0.2,0-0.3c0.1-0.3,0.3-0.4,0.6-0.4c4.3,0.5,8.6,0.9,13,1.2c8,0.5,12,0.8,12.1,0.8c14.7,1.1,29.3,2.2,44,3.3
	c0.8,0.1,1.5,0.4,2,1.1c0.1,0.2,0,0.5-0.2,0.6c-38.8,23.5-75.6,49.8-110.5,78.8c-3.5,2.9-6.9,5.9-10.3,9c-4.7,4.3-8,7.4-10,9.3
	c-4.8,4.5-10.5,10.4-17.3,17.6c-14.7,15.7-27,30.8-36.8,45.2c-15.2,22.4-26.7,46.5-34.5,72.4c-1.2,4.1-2.4,9-3.5,14.6
	c-0.9,5-1.9,9.9-2.9,14.8c-0.1,0.1-0.1,0.4-0.3,0.7c-0.1,0.3-0.1,0.5,0.2,0.6c0.3,0.2,0.5,0.4,0.4,0.6c-0.2,0.6-0.6,0.9-1.4,0.9
	c-22,0-44,0.1-66,0.1l65.4,0.5h1.5c1-0.3,2-0.3,3-0.2c-1.6-1-2.2-2.3-1.8-3.9c0.4-1.8,0.7-2.7,0.7-2.8c0.3-2.6,0.9-5.6,1.6-9
	c5.2-23.8,13.7-46,25.5-66.8c15.8-27.9,35.4-53.4,59-76.5c18.7-18.3,37.5-34.7,56.5-49c26.7-20.2,54.7-39.1,83.9-56.8
	c0,0,0.1-0.1,0.2-0.1c0.7-0.2,1.4,0.2,1.6,0.8c0.6,1.9,1.8,2.9,3.5,2.9c1.2,0,2.7-0.2,4.5-0.5c0.1,0,0.1,0,0.1,0
	c0.3-0.1,0.4-0.4,0.3-0.6c-0.6-1.7-0.4-2.6,0.4-2.8c0,0,0.7,0,2,0.1c18.6,1.3,31.4,2.4,38.2,3.2c8.2,1,14.6,1.6,19,1.8
	c2.8,0.1,7.4,0.7,13.8,1.7c0.3,0.1,0.4,0.2,0.1,0.4c-7.8,5.5-18.7,13.6-32.9,24.4c-20.6,15.7-39,30.4-55.3,44.1
	c-5.9,5-10.9,9.4-15,13.2c-18.1,16.8-35.3,35.9-51.7,57.2c-14.4,18.7-26.1,38.9-35.2,60.6c-1.5,3.5-2.7,7.1-3.8,10.7
	c-4.5,15.1-7.4,30.6-8.9,46.3c0,0.3-0.2,0.6-0.5,0.6c-1.8,0.3-1.8,0.6-0.1,0.9v0.2h1.5l2.8-0.3l-1.4-0.4c-0.3-0.1-0.5-0.3-0.5-0.6
	c0.1-5.7,0.5-11,1.2-15.7c1-6.5,2.4-13.1,4.1-20c1.6-6.6,3.6-13,6-19.1c5.3-13.5,11.8-26.4,19.5-38.7c10.7-17,22.7-33,36.1-48
	c21.4-24.1,44-45.4,67.7-63.8c9.7-7.5,17.2-13.4,22.5-17.6c3-2.4,6.3-4.8,9.8-7.4c3.4-2.4,6.6-4.8,9.9-7.3c8.6-6.6,17-12.8,25-18.5
	c1.6-1.1,3.4-1.5,5.5-1.2l8.6,1.3c-0.1-1.3-1.1-1.7-2.7-1.2c-7.2-1-14.4-1.8-21.7-2.3c-2.2-0.1-5-0.4-8.4-0.9
	c-2.8-0.4-5.6-0.7-8.4-0.8c-1.2-0.1-1.4-0.6-0.8-1.5c10.1-15.1,21.6-29.1,34.6-41.9c10.3-10.1,21.1-20.5,32.5-31
	c0.6-0.6,1.4-0.9,2.2-1.1c8.1-1.5,16.3-2.4,24.6-3c0.2,0,0.4,0,0.6,0c0,0,0,0,0,0c0.1,0,0.2,0,0.2-0.1c0.7-0.2,1.6-0.4,2.1-0.5
	c0.1,0.1,0.1,0.2,0.2,0.3c0.1,0.3,0,0.6-0.2,0.8c-13.2,12.9-23.9,26.1-32.1,39.5c-9.5,15.7-17.1,29.2-22.8,40.7
	c-0.2,0.5-0.6,0.9-1,1.1c1-0.1,1.6,0.4,1.7,1.4c6.3,0.5,12.7,1.1,19,2c2.4,0.3,5.8,0.6,10.2,0.9c2.3,0.2,4.6,0.4,6.8,0.7
	c2.6,0.4,4.9,0.6,6.8,0.8c4,0.3,8,0.7,12,1.2c3.5,0.5,7.5,0.9,12,1.3c4.2,0.4,8.2,0.9,11.9,1.6c1.6,0.3,1.8,0.9,0.4,1.9
	c-25.7,18.1-49.4,38-71.3,59.7c-5.2,5.1-9.7,10-13.5,14.8c-6.2,7.6-11.9,15.5-17.2,23.7c-3.2,5-6.7,10.7-10.5,17
	c-11.2,19-20.3,38.7-27.4,59.1c-3.3,9.5-6.5,20.1-9.8,31.9c-3.3,11.7-5.7,23.6-7.2,35.7c0,0.2-0.1,0.5-0.4,0.9
	c-0.3,0.5-0.4,1.3-0.3,2.3c0,0.7-0.5,1.2-1.3,1.2l-4.5,0.1l5.9,0.3h0.2c0.1-0.2,0.4-0.2,0.8-0.2h1.7c-0.3,0-0.6-0.2-0.7-0.5
	c-0.7-2.3-0.9-4.3-0.7-6.2c2.2-14.1,5.6-29.1,10.3-44.8c9.8-33,24.8-65,44.9-96c9.4-14.4,19.4-27,30-37.8c3.2-3.2,8-7.9,14.3-14
	c5.6-5.4,11.4-10.5,17.4-15.4c3.2-2.6,8.4-6.7,15.6-12.5c8.7-6.9,17.7-13.5,27.1-20c0.3-0.2,0.6-0.3,0.9-0.2l79.7,10.8
	c1,0.1,1.1,0.5,0.3,1.1C541.2,249,524,265.5,508,282.9c-4.9,5.3-9.2,10.4-12.9,15.2c-17.5,22.5-31.5,47.2-42.3,74.1
	c-8.2,20.4-13.7,41.2-16.7,62.3v0.9c0.1,1,0,1.4-0.1,1.2c-0.1-0.2-0.3-0.1-0.3,0.1c-0.4,3.4-0.7,6.8-1.1,10.2
	c-0.2,1.8-0.4,5.3-0.6,10.7c-0.2,3.5-0.5,7.1-1.1,10.8c-0.1,0.3-0.2,0.5-0.5,0.7h3.2c-0.4-0.3-0.6-0.8-0.6-1.5
	c-0.1-1.2-0.1-1.9-0.2-2c-0.2-1.3-0.3-2.2-0.3-2.8c0.7-18.7,3.3-37.1,8-55.3c4.9-18.9,11.6-37.1,20.2-54.6c3-6,6.1-11.9,9.3-17.7
	c13.1-23.4,29.6-45,49.5-64.7c14.8-14.6,28.1-27,40.1-37.2c0.2-0.2,0.6-0.3,0.9-0.2c31.7,4.7,63,9.7,94,15.1
	c0.9,0.1,1.1,0.5,0.4,1.2c-17.5,19.1-32.1,39.8-44,62.1c-8.2,15.4-15.3,31.3-21.4,47.6c-2.2,5.9-4.3,11.8-6.4,17.8
	c-1.3,3.7-2.5,7.8-3.6,12.2c-0.7,2.7-1.4,5.5-2.1,8.2c-0.9,3.3-1.5,6-2,8.3c-1.7,8.4-3.1,16.8-4.1,25.3c-0.7,5.8-1,12.1-1.1,19
	c-0.1,6.4,0,12.8,0.2,19c0,0.2-0.1,0.3-0.2,0.4c0.2,0,0.4,0,0.5,0l0.1-0.2c0.5-1,0.6-2.1,0.4-3.2c0-0.2,0-0.2,0.1,0
	c0.3,0.4,0.5,0.3,0.6-0.2c0-0.1,0.1-0.3,0-0.5c-0.5-5.2-0.7-10.5-0.6-15.8c0.7-22.7,4.4-44.9,11.2-66.6c4.6-14.7,10-29,16.1-43.1
	c8.4-19.5,18.8-38.4,31-56.5c8.5-12.5,17.7-24.1,27.7-34.6c0.2-0.2,0.5-0.3,0.8-0.3l87,15.2c0.1,0,0.2,0.1,0.2,0.1
	c0.3,0.2,0.4,0.6,0.2,0.9c-7.6,11.4-14.3,23.5-20.3,36.3c-0.2,0.4-0.5,0.9-0.9,1.4c-0.3,0.5-0.6,0.9-0.9,1.4
	c-4.3,8.8-8.5,17.6-12.4,26.5c-6.1,13.8-11.1,28-14.9,42.6c-5.6,21.4-8.5,42.7-8.5,63.8c0,9.2,0.8,19.2,2.4,30.1
	c0,0.3,0.2,0.6,0.5,0.7c0.4,0.1,0.5-0.1,0.3-0.7c-0.5-2-1.1-6.4-1.6-13.3c-0.4-4.8-0.6-9.3-0.6-13.3c-0.2-22.3,2.6-44.4,8.3-66.1
	c4.6-17.4,10.7-34.3,18.3-50.6c9.3-19.9,19.7-39.4,31.3-58.4c0.4-0.7,1.2-1,2-0.9l95.8,17.8c0.1,0,0.2,0,0.2,0.1
	c0.4,0.2,0.6,0.7,0.4,1.2c-5.2,10.8-9.7,22-13.5,33.3c-3.1,9.3-5.7,18.8-7.8,28.3c-5.6,26.2-6,52.5-1.2,78.9c0,0.2,0.1,0.3,0.2,0.5
	c0.6,1.2,0.9,1.2,0.7,0c-2.2-12.4-3.2-24.5-3-36.2c0-1.4,0.1-5.1,0.4-11.1c0.2-4.1,0.4-7.8,0.9-11.1c3.7-28.4,12-55.9,24.9-82.6
	c0.3-0.5,0.8-0.8,1.4-0.7c11.1,2.3,22.2,4.4,33.4,6.3c0.7,0.1,2.5,0.5,5.5,1.1c1.4,0.3,3.2,0.7,5.5,1.1c14.4,2.7,29.2,5.5,44.4,8.5
	c0,0,0,0,0.1,0c0.4,0.1,0.7,0.5,0.5,0.9c-4.5,16.4-7.6,32.8-9.3,49.1c-2.3,21.5-1.1,42.6,3.4,63.5c1.4,6.3,3.2,12.7,5.5,19.2
	c4.1,11.8,9.1,23.3,15,34.4c0.9,1.8,0.5,2.7-1.4,2.8v0.2c0.4,0.1,0.8,0,1.2-0.1c39.7-0.1,79.4-0.2,119.1-0.1c0.4,0,0.6,0.1,0.7,0.2
	l2.2-0.1c30.7-0.1,61.5-0.2,92.2-0.1l-89.5-0.2c-0.6,0-1.2-0.3-1.6-0.8c-2.5-3.4-4.7-6.5-6.5-9.6c-10.3-17.6-19.5-35.7-27.5-54.4
	c-5.4-12.6-9.4-25.6-12-39c-2.6-13.2-2.5-26.9,0.2-41.1c0-0.1,0.1-1.1,0.2-2.9c0.1-1.4,0.7-2.5,1.7-3.5c0.2-0.2,0.5-0.3,0.9-0.2
	c5.1,0.9,10.1,1.8,15.2,2.8c25.9,5,51.9,9.6,77.9,13.9c0.4,0.1,0.8,0.4,0.8,0.9c2.9,25.1,9.8,48.7,20.8,70.9
	c10.6,21.3,22.6,41.7,36.2,61.3c0.9,1.2,0.5,1.9-1,1.9c0.4,0,0.6,0.1,0.7,0.2h0.2l0.1-0.1c0-0.1,0.1-0.1,0.2-0.1
	c39.9-0.1,79.9-0.1,119.8-0.1c0.4,0,0.6,0.1,0.7,0.2h0.2c0.1-0.2,0.4-0.2,0.8-0.2h119.2c-0.3,0-0.6-0.1-0.8-0.3
	c-17.3-17.5-33.1-36.1-47.5-55.9c-11.7-16-21.4-33-29.1-50.8c-0.1-0.1-0.1-0.3-0.1-0.5c0-0.6,0.5-1.1,1.1-1.1
	c6.8,0.2,13.6,0.7,20.4,1.6c3.9,0.5,7.8,0.8,11.6,0.8c5.8,0.1,11.5,0.4,17.2,0.9c6,0.5,12,0.9,18,1.2c0.4,0,0.6-0.1,0.4-0.5
	c-0.2-0.3-0.7-0.5-1.4-0.6c-12.9-0.9-25.8-1.7-38.7-2.5c-0.4,0-0.7-0.1-0.9-0.2c-0.9-0.4-0.7-0.9,0.6-1.2c0.8-0.2,1.5-0.4,2.3-0.5
	c22.1-2.9,44.1-5.9,65.9-9c15.4-2.2,30.8-4.3,46.2-6.5c6.9-0.9,13.5-1.9,19.8-2.8c73.2-10.9,146.3-21.5,219.6-32
	c62.9-9,126-16.8,189.2-23.5c0.1,0,0.1,0,0.2-0.1c0.2-0.1,0.3-0.3,0.2-0.5c-0.2-0.3-0.6-0.5-1.2-0.4c-47.7,5-95.2,10.8-142.7,17.2
	c-21.9,3-43.7,6-65.6,9.1c-25.7,3.7-51.4,7.4-77.1,11c-6.3,0.9-12.9,1.9-19.8,2.9c-73.1,11-155.5,22.7-247.2,35.2
	c-2.1,0.3-3.7,0.4-5,0.2c-7.2-0.7-14.5-1.4-21.8-1.9c-1.4-0.1-2.6-0.2-3.5-0.4c-2-0.3-3.1-0.5-3.4-0.5c-10-0.6-24.7-1.9-44.3-3.9
	c-14.8-1.5-26.3-2.9-34.4-4.2c-0.5-0.1-0.6-0.3-0.3-0.5c0.2-0.1,0.4-0.2,0.8-0.2c9.2-1,27.7-3.4,55.2-7
	c82.6-10.9,165.1-22.4,247.5-34.7c52.1-7.7,104.1-15.2,156.2-22.6c31.3-4.4,62.6-8.6,94-12.5c37.2-4.7,74.5-8.9,111.8-12.6
	c0.4,0,0.6-0.2,0.4-0.4c-0.1-0.1-0.3-0.2-0.5-0.2c-4.5,0.2-11.9,0.8-22.4,1.9c-60.6,6.4-117.5,13.4-170.8,21
	c-5.2,0.8-8.8,1.3-10.8,1.5c-55.5,7.8-111,15.8-166.5,24c-71.7,10.6-147.6,21.3-227.8,31.9c-24.7,3.3-46.2,6-64.6,8.1
	c-0.1,0-2.2,0.3-6.2,1c-4.5,0.7-9,0.6-13.6-0.2c-5.1-0.9-10.2-1.4-15.3-1.5c-0.6,0-1.1-0.2-1.5-0.5c-0.3-0.2-0.6-0.4-0.9-0.4
	c-8.3-0.6-16.5-1.6-24.7-2.9c-0.5-0.1-1-0.1-1.4-0.2l-15.4-2.1c6.8-0.8,29.7-3.7,32-4c0.2,0,0.6,0,1.1-0.1
	c38-4.2,75.9-8.8,113.8-13.8c77.9-10.2,155.6-21,233.3-32.5c37.1-5.5,74.3-10.9,111.4-16.4c0.1,0,0.2-0.1,0.3-0.1
	c0.1-0.2,0.2-0.2,0.3-0.3c6.9-0.7,16-1.8,27.4-3.5c71.1-10.6,145.3-20.1,222.7-28.3c0.1,0,0.1,0,0.2,0c0.2-0.1,0.3-0.3,0.2-0.5
	c-0.2-0.3-0.5-0.5-1.1-0.4c-62.6,6.6-125,14.4-187.3,23.2c-18.8,2.7-37.7,5.4-56.5,8.1c-53.6,7.9-107.2,15.7-160.8,23.5
	c-101.1,14.8-202.4,28.2-303.9,40.3l-0.6,0.1l-34.9,4.3l-10.9-1.5c0.1,0.1,0.2,0.1,0.2,0.2l0.2,0.3c0.1,0.1,0.1,0.2,0.1,0.2
	c3.9,0.6,18,2.6,24.5,3.5c0,0,0.1,0.1,0.4,0.1c27.8,3.9,55.5,7.3,83.2,10.2c28.7,3,50.8,5,66.3,6c3.4,0.2,5.8,0.5,7.3,0.9
	c0.3,0.1,0.6,0.3,0.7,0.6c8.7,20,19.6,38.7,32.7,56.2c12.3,16.5,25.6,32.1,39.9,46.9c1.1,1.1,1.9,2.4,2.5,3.8
	c0.1,0.1,0.1,0.2,0.1,0.4c0,0.5-0.4,0.9-0.9,0.9l-112.1-0.1c-0.3,0-0.6-0.1-0.9-0.3c-2.6-2.5-5.6-5.9-9-10.3
	c-11.9-15.2-22.2-30.5-31-45.8c-4.6-8-8.8-17.1-12.7-27.1c-4.2-10.9-7-22.1-8.4-33.7c0-0.2-0.1-0.3-0.2-0.5
	c-0.3-0.4-0.5-0.3-0.6,0.2v0.5c1.8,15.2,5.9,29.7,12.4,43.6c4.8,10.4,10.4,20.5,16.6,30.2c8.7,13.6,18.2,26.8,28.4,39.5
	c2,2.5,1.4,3.8-1.8,3.8l-113.3,0.2c-0.3,0-0.6-0.1-0.8-0.4c-12.8-18.1-24.3-37.1-34.5-56.8c-7.9-15.2-14-30.6-18.3-46.2
	c-2.6-9.4-4.3-19.5-5.3-30.3c0-0.3,0.2-0.5,0.4-0.5c2-0.1,3.9,0,5.8,0.3c9.4,1.7,18.9,3.2,28.4,4.4c0.1,0,0.2,0,0.2-0.1
	c-0.6-0.1-0.9-0.2-1-0.2l-0.4-0.7l0.9,0.1c-0.1-0.1-0.2-0.1-0.2-0.1l-78.7-13c-2.3-0.4-2.3-0.7,0-1.1c7.5-1.1,15.1-2.1,23-2.9
	c116-12.7,231.8-27.4,347.3-44c39.1-5.6,78.2-11.3,117.2-17.1c39.1-5.8,78.2-11.5,117.2-17c45.8-6.5,91.6-12.6,137.5-18.2
	c30.4-3.7,60.8-7,91.2-10c0.3,0,0.6-0.2,0.7-0.4c0.1-0.3-0.1-0.4-0.7-0.4c-13.9,1.2-22.2,2-24.9,2.3c-43.9,4.7-87.7,9.9-131.5,15.8
	c-57.7,7.8-115.4,15.9-173,24.5c-57.6,8.5-115.1,16.8-172.8,25c-3.1,0.4-5.3,0.7-6.9,0.8c-1.2,0.1-2.2,0.2-3,0.4
	c-1,0.2-2,0.4-3.1,0.6c-80.1,11.2-163.9,21.9-251.2,32c-27.1,3.1-49.5,5.6-67.4,7.4c0,0-0.9,0.1-2.7,0.4c-2.2,0.3-4.7,0.2-7.4-0.2
	c-16.5-2.9-33-5.9-49.5-8.9h-0.1c-0.2-0.1-0.2-0.3-0.2-0.5C1025.3,312.9,1026.1,312.5,1027.3,312.5z M1693.3,79.8L1693.3,79.8
	c0.1-0.3,0.3-0.3,0.4-0.2c0.4,0.3,0.6,0.7,0.7,1c0,0.4-0.3,0.7-0.6,0.7C1693.4,81.4,1693.2,80.8,1693.3,79.8z M1653.7,89
	c-0.3,0-0.5-0.2-0.6-0.5c-0.3-1.3-0.1-2.6,0.4-3.9c0.1-0.2,0.1-0.5,0.2-1l-0.1-1.9v-0.1c0-0.3,0.2-0.4,0.5-0.4
	c0.4,0.1,0.6,0.5,0.5,1.2c-0.1,0.4-0.1,0.7,0,1c0.3,0.9,0.6,1.9,0.8,2.8C1655.9,88.1,1655.3,89.1,1653.7,89z M1686,82.5
	c0.4-0.1,0.8-0.2,1.2-0.2C1686.8,82.4,1686.4,82.5,1686,82.5z M1685.1,168c0.2-0.2,0.5-0.3,0.9-0.2c12,1.6,24.1,3,36.2,4.2
	c0.3,0,0.5,0.1,0.6,0.3c0.1,0.1,0.1,0.2,0.2,0.3c0,0.2-0.1,0.4-0.3,0.4l-2.3,0.2c-0.3,0-0.6,0.2-0.8,0.3c-0.5,0.5-1.2,0.8-1.9,0.8
	h-2c-5.5,0.8-11,1.5-16.5,2.3c-0.3,0-0.6,0-0.9-0.2c-2.6-1.8-4.3-2.8-5.2-3.2c-2.2-0.8-4.1-1.9-5.9-3.4c-0.2-0.2-0.5-0.3-0.9-0.3
	C1684.4,169.5,1684,169,1685.1,168z M1657,165c2.2-0.2,4.4-0.1,6.5,0.2c5.6,0.8,11.3,1.5,17,2.1c0.8,0.1,1.9,0.7,3.3,1.8
	c1,0.8,2,1.4,3.1,1.9c1.9,0.9,3.6,2,5.2,3.3c0.5,0.4,1,0.7,1.5,1c0.6,0.2,1.2,0.5,1.7,0.7c0.4,0.2,0.6,0.4,0.5,0.7
	c-0.1,0.3-0.4,0.5-0.8,0.5l-17.8,2.2c-0.3,0-0.6,0-0.9-0.2l-19.6-13.4C1656.1,165.3,1656.2,165.1,1657,165z M1537.2,149
	c2.2,0.1,4.3,0.3,6.5,0.7c2.9,0.5,5.1,0.9,6.5,1c4.7,0.5,9.5,1.1,14.2,1.8c0,0,0.6,0.1,1.7,0.2c1.7,0.2,3.5,0.8,5.5,1.9
	c0.6,0.3,0.9,0.2,1.1-0.4c0.1-0.3,0.4-0.5,0.6-0.4c19.6,2.6,39.3,5.2,58.9,7.7c8.7,1.1,14.8,1.9,18.1,2.4c1.6,0.2,3,0.8,4.4,1.7
	c6.6,4.5,12.8,8.7,18.6,12.8c1.5,1,1.3,1.7-0.5,1.9l-50.4,7c-1.4,0.2-2.6-0.1-3.6-1c-13.8-10.8-28.3-20.9-43.7-30.4
	c-0.2-0.1-0.4-0.3-0.6-0.5c-0.4-0.6-0.7-0.6-0.9,0c-0.1,0.3,0.1,0.6,0.3,0.8c2.8,2,5.7,3.8,8.6,5.7c9.4,5.9,18.5,12.2,27.4,18.9
	c2.8,2.1,5.5,4.2,8.1,6.2c0.7,0.5,0.6,0.9-0.3,1l-22.1,3c-0.4,0.1-0.7,0-1-0.3c-18.4-15-37.6-28.5-57.8-40.4
	C1535.3,149.4,1535.4,149,1537.2,149z M1458.9,135.1c0.8-0.7,1.7-1.2,2.6-1.5c8.3-3.1,16.6-6.1,24.8-9.3h0c0,0,0,0,0,0
	s28-7.4,39-9.7c0,0,0,0,0,0c1.8-0.4,3.1-0.6,3.8-0.7c4-0.3,14.6-2.5,18.5-3.4l-0.6-0.1c1.1-0.1,1.9-0.2,2-0.2
	c-0.1,0-0.6,0.2-1.4,0.3l0.4,0.1l0.1,0c0.3,0,31.1-7.4,34.6-5.9c-13,3.2-27.5,6.6-27.5,6.6l0,0c-1.2,0.3-2.4,0.6-3.5,1
	c-2.8,1.1-4.2,1.6-4.3,1.6c-13.3,4.4-26.6,9.1-39.8,14c-7.8,2.9-15.7,5.9-23.5,8.7c-2.2,0.8-3.8,1.5-4.8,2.1
	c-0.3,0.2-0.6,0.2-0.9,0.2l-19.2-2.9C1458.3,136.1,1458.2,135.7,1458.9,135.1z M1504.5,170.5c-13.4-9.6-28.3-19.6-44.5-30.1
	c-0.6-0.4-1-0.7-1.3-1c-1.7-1.4-1-1.9,2.1-1.5c22.8,3.4,45.6,6.7,68.4,10c1.7,0.2,3.3,0.8,4.8,1.7c16.7,10.1,32.9,21,48.6,32.6
	c3.2,2.4,6.2,5,9,7.8c1.1,1.1,0.9,1.8-0.7,1.9c-3.9,0.4-7.9,1-11.8,1.6c-12.7,1.9-25.4,3.7-38.1,5.3c-0.3,0-0.6,0-0.9-0.3
	C1528.1,188.2,1516.3,178.9,1504.5,170.5z M131.1,157c-3.1,0.1-6.2,0.3-9.3,0.5c-0.1,0-1.7,0.2-4.9,0.6c-4.1,0.5-8.1,0.3-12.1-0.5
	c-0.4,0-4.3-1.2-11.5-3.3c-36-10.7-59.5-17.4-70.8-20.1c-7.1-1.7-14.3-3.6-21.5-5.8c-0.3-0.1-0.5-0.4-0.5-0.7l0.1-7.7
	c0-0.3,0.2-0.5,0.5-0.6c1.8-0.3,3.4-0.2,5.1,0.3c1.5,0.5,2.3,0.8,2.4,0.8c39.1,9.7,78.9,21,119.5,33.7c0.3,0,0.5,0.2,0.7,0.3
	c0.4,0.4,0.6,0.6,0.8,0.5c0.4,0.1,0.9,0.2,1.3,0.2c0.5,0.1,0.9,0.1,1.2,0.2C135.1,156.4,134.8,156.9,131.1,157z M199.9,121.9
	c-0.1,0.5-0.6,0.7-1.1,0.6c-27.3-8.1-54.6-15.8-82.1-23c-0.5-0.1-4.3-1.1-11.4-2.8c-2.6-0.6-5.1-1.3-7.6-2c-3-0.9-5.5-1.6-7.5-2
	c-17.3-4.1-34.6-8.2-51.9-12.2c-3.5-0.8-9.7-2.2-18.7-4.1C13.4,75.1,7.2,73.6,1,72.1c-0.3-0.1-0.5-0.3-0.5-0.6v-4.4
	c0-0.1,0-0.6-0.1-1.7c-0.1-2.1,1-2.9,3.2-2.5C67.7,75.5,131.2,90.7,194,108.4c3.2,0.9,6.4,1.9,9.3,3.1c0.1,0,0.1,0.1,0.2,0.1
	c0.2,0.2,0.2,0.5,0,0.7c-2.4,2.6-3.6,5.7-3.6,9.3V121.9z M203.4,150c-1.9,0.5-2.9-0.2-2.8-2.1c0.1-1.2,0.1-1.8,0.1-1.9
	c-0.2-4-0.1-7.9,0.3-11.8c0-0.1,0.1-0.1,0.2-0.2c0.2-0.1,0.3-0.2,0.3-0.4c0.6-2.5,0.7-4.2,0.5-4.9c-0.3-0.9-0.2-1.4,0.4-1.6h0.1
	c0.2,0,0.4,0.2,0.4,0.4l1,21.9C203.9,149.7,203.7,149.9,203.4,150z M207.4,191.9l0.1-8.4c0-0.7,0.2-1.4,0.6-2.1
	c1.3-2.4,2.3-3.8,3.1-4.1h0.1c0.2-0.1,0.5,0.1,0.5,0.4c0.5,2.8,1.1,5.6,1.9,8.3c0.3,1.1-0.2,1.9-1.5,2.6c-0.3,0.1-0.5,0.3-0.7,0.6
	c-0.6,1.1-1.7,2.2-3.3,3.1C207.7,192.6,207.5,192.5,207.4,191.9z M215,196.5c-3.4,0.1-5.5-0.1-6.2-0.4c-1.1-0.6-1-1.1,0.2-1.6
	c0.8-0.4,1.5-1.3,2.2-2.8c0.4-1,1.4-1.9,2.8-2.7c0.1-0.1,0.2-0.1,0.3-0.1c0.3,0,0.6,0.2,0.6,0.5l0.6,6.6
	C215.5,196.3,215.3,196.5,215,196.5z M221.8,174.4c0.5-1.6,0.8-2.4,0.8-2.4c0.4-1.7,0.9-3.5,1.4-5.2c0-0.3,0.3-0.5,0.6-0.5
	c3.5,0.1,6.9-0.5,10.2-1.9c0.1,0,0.1,0,0.1,0c0.3-0.1,0.6,0,0.7,0.2l0.1,0.3c0.1,0.2,0,0.3-0.2,0.5c-4,3.4-7.7,7-11.3,10.8
	c-0.5,0.5-0.9,1-1.3,1.5c-0.7,0.8-1.1,0.6-1.3-0.4C221.4,176.3,221.5,175.3,221.8,174.4z M265.6,200.1c-6.9-0.6-13.5-1.1-19.8-1.3
	c-0.4,0-1.4-0.2-2.9-0.6c-0.9-0.2-1.9-0.3-3.1-0.2c-2.1,0.1-6.8-0.2-14.2-0.9h-1.3c-1.5-0.1-2.5-0.9-2.7-2.5c-0.2-1-0.3-1.6-0.3-1.7
	c-0.8-3.3-1.2-6.7-1.3-10.1c0-0.4,0.1-0.7,0.3-0.9l16.6-16.1c0.9-0.9,1.9-1,2.9-0.2c9.2,5.2,18.7,6.5,28.7,4
	c3.4-0.8,6.8-1.4,10.2-1.7c2.8-0.2,5.5,0.1,8.2,0.9c0.3,0.1,0.5,0.3,0.5,0.6l-0.5,6.2c-0.1,0.5-0.4,1.1-0.9,1.6
	c-7,7.1-13.3,14.5-18.9,22.2C266.8,199.9,266.2,200.2,265.6,200.1z M288.4,202.2c-2.1-0.3-4.2-0.6-6.3-0.8c-1-0.1-2.9-0.2-5.7-0.2
	c-2.1,0-4-0.2-5.7-0.6c-1.5-0.4-1.8-1.2-0.9-2.4c5-6.7,10.4-12.9,16-18.5c0.1-0.1,0.2-0.2,0.3-0.2c0.3-0.1,0.7,0.1,0.8,0.4
	c1.4,5,1.7,10.2,0.8,15.7c-0.3,2,0,4,1,6.2C288.8,202.1,288.7,202.2,288.4,202.2z M298.7,193.2c-0.2,2-1.3,3.9-3.5,5.5
	c-0.1,0-0.2,0.1-0.4,0.2c-0.6,0.2-1.2-0.1-1.4-0.7c-1.6-4.4-1.1-8.7,1.4-13.1c0.2-0.3,0.2-0.6,0.2-0.9c-0.2-1.5-0.1-2.7,0.4-3.4
	c0.8-1.1,1.4-1,1.7,0.3c0.4,1.7,0.4,3.3,0.1,5c-0.1,0.6,0.2,1.8,0.8,3.6C298.5,191.2,298.8,192.4,298.7,193.2z M304.9,184.5
	c0.3-0.8,0.4-1.4,0.4-1.7c0.1-1.6,0.2-3.2,0.3-4.7c0-1.3,0.6-2.2,1.7-2.7c4.8-2.3,7.9-5.6,9.5-9.8c0.6-1.6,1.1-2.7,1.5-3.2
	c0.8-1.1,1.6-1.9,2.5-2.6c1-0.7,1.7-1.6,2.2-2.7c2.4-5.2,5.2-10,8.4-14.3c0.8-1.1,1.8-1.7,3.1-1.8c3.4-0.3,6.6-0.7,9.9-1
	c2.4-0.3,4.6,0,6.6,0.9c0.1,0.1,0.2,0.1,0.3,0.2c0.2,0.3,0.2,0.7-0.1,1c-5.3,4.7-10.5,9.3-15.6,13.8c-9.4,8.2-18.2,17-26.6,26.3
	c-0.4,0.5-0.7,1.1-1.2,1.8c-0.2,0.6-0.5,1.1-0.8,1.6c-0.2,0.3-0.5,0.4-0.8,0.5C305,186.2,304.5,185.7,304.9,184.5z M336.4,138.2
	c1.9-1.2,3.8-1.2,5.8,0.1c0.5,0.3,0.5,0.5-0.2,0.6c-1.8,0.3-3.5,0.5-5.1,0.6C335.1,139.6,335,139.2,336.4,138.2z M418.9,133.7
	c-0.4,0.6-0.9,1-1.5,1.3c-0.8,0.5-1.4,0.8-1.6,1c-4.1,3.5-8,7.1-11.8,10.9c-4.3,4.4-8.2,8.1-11.5,11.2c-15,14.1-27.9,29-38.4,44.7
	c-0.6,0.9-1.1,1.5-1.4,1.9c-0.3,0.3-0.4,0.6-0.5,1.1c-0.4,1.4-1.3,2-2.7,1.7c-1.3-0.3-2-0.4-2.1-0.4c-1.7-0.1-3.4-0.3-5.1-0.5
	c-2-0.2-3.7-0.4-5.1-0.5c-10.5-0.6-20.9-1.5-31-2.8c-0.9-0.1-1.6-0.8-1.7-1.6l-0.6-9.8c-0.1-1.2,0.4-2.2,1.5-3
	c0.5-0.4,1.1-1,1.7-1.9c0.6-0.9,1.1-1.6,1.5-2c9.7-11.2,20.1-21.5,31.3-31.2c4.6-4,9.2-8,13.7-12c0.6-0.5,1.4-0.6,2.1-0.4
	c3.3,1.1,6.5,0.3,9.6-2.4c0.7-0.6,1.5-1,2.4-1.2c3.3-0.6,6.7-1.1,10.2-1.4c13.5-1.3,27-2.7,40.5-4.3
	C419.6,131.9,419.8,132.5,418.9,133.7z M358,121.3l33.4,11.8c0.3,0.1,0.3,0.2,0,0.3c-3.8,1.2-7.6,1.8-11.6,1.8
	c-1.1,0.1-2.5,0.2-4.1,0.5c-0.9,0.2-1.9,0.3-2.8,0.3c-0.5,0-1.5,0.1-2.8,0.3c-1.4,0.2-2.6,0-3.8-0.6c-0.8-0.4-1.7-1.3-2.4-2.6
	c-2.1-3.6-4.3-7.2-6.8-10.6C356.1,121.1,356.4,120.7,358,121.3z M421.7,130.9c-1.3,0.4-2.5,0.5-3.8,0.5c-1.7,0-3,0-3.7,0.1
	c-4.2,0.6-8.5,1.2-12.8,1.7c-1.7,0.2-3.5,0.3-5.2,0.2c-1.5-0.1-3.1-0.4-5-1.1c-10.9-4-21.9-7.9-32.8-11.9c0,0-0.7-0.2-2.2-0.6
	c-1.7-0.4-2.8-1.4-3.4-3c-0.8-2.2-2.1-3.8-3.8-4.8c-0.2-0.1-0.4-0.4-0.5-0.7c-0.4-2-0.7-3.2-1-3.7c-1.7-2.8-3.5-2.5-5.6,0.9
	c-0.4,0.8-1.2,1.5-2.1,1.8c-2.8,1.1-5.7,1.4-8.4,1c-0.2-0.1-2.8-0.8-7.9-2.4c-11.9-3.7-23.7-7.4-35.6-11.1c-1.2-0.4-3.8-1.1-7.6-2.1
	c-2.5-0.7-5-1.5-7.5-2.4c-1.3-0.5-2.6-0.9-3.8-1.2c-1.3-0.4-2.6-0.7-3.9-1.1c-21.4-6.2-42.9-12-64.4-17.5
	C135.7,56.9,70.1,42.7,4.1,30.8c-0.3,0-0.6-0.2-0.9-0.4C2.6,30,1.8,29.8,1,30H0.9c-0.2,0-0.4-0.2-0.4-0.4v-7.2C0.5,22.2,0.7,22,1,22
	c5.1,0.3,10,0.8,14.7,1.6c61,10.6,121.5,23,181.3,37.5c76.1,18.3,151,40.8,224.7,67.4C424.1,129.4,424.1,130.2,421.7,130.9z"/>
<path d="M514.3,123.4c0,0,3.4-2.8,3.5-3.9l0.6-0.8h1.9c0,0-3.7,3.8-5.4,5.1L514.3,123.4z"/>
<path d="M1423.5,135.2v1c0,0-0.2-0.1-0.5-0.4c0,0-0.1,0-0.1-0.1c-0.2-0.1-0.4-0.3-0.6-0.4c-2-1.5-6.1-4.6-6.6-5.2
	c0,0-0.1-0.1-0.1-0.1c-0.1-0.2,0.9,0.1,1.6,0.4c0.4,0.1,0.7,0.3,0.7,0.3l4.7,3.8L1423.5,135.2z"/>
<path d="M1224.8,108c0,0.1,0.1,0.1,0.2,0.2c0.2,0.1,0.3,0.2,0.5,0.3L1224.8,108z"/>
<path d="M1486,123.2c-0.2,0.1-0.2,0.1-0.3,0.1C1485.8,123.3,1485.9,123.2,1486,123.2z"/>
<path d="M1549.1,110.2c-0.1,0-0.6,0.2-1.4,0.3l-0.6-0.1C1548.2,110.3,1548.9,110.2,1549.1,110.2z"/>
<path d="M1549.1,110.2c-0.1,0-0.6,0.2-1.4,0.3l-0.6-0.1C1548.2,110.3,1548.9,110.2,1549.1,110.2z"/>
<path d="M1649.2,90.8c0,0-0.1,0-0.4,0.1c-0.6-0.3-1.1-0.5-1.8-0.4c-0.1,0-0.2,0-0.4,0c0,0,0.1,0,0.1,0h0c1.1-0.3,1.9-0.5,2.3-0.6
	l0,0.1L1649.2,90.8z"/>
<path d="M1660.5,87.8l-1.8,1c-0.4,0.2-0.5-1.2-0.5-1.2s0.1,0,0.3-0.1c0.1,0.1,0.1,0.2,0.2,0.3C1659.2,88.1,1659.8,88.1,1660.5,87.8z
	"/>
<path d="M1687.2,82.3c-0.4,0.1-0.8,0.2-1.2,0.2C1686.4,82.4,1686.8,82.3,1687.2,82.3z"/>
<path d="M1226.5,109.1L1226.5,109.1l-1-0.6C1225.8,108.7,1226.1,108.9,1226.5,109.1z"/>
<path d="M447.9,129c-0.3,0.1-0.5,0.1-0.5,0.1l-0.1-0.1C447.5,129,447.7,129,447.9,129z"/>
<path class="st0" d="M-219.9-254.3L-219.9-254.3c-0.1,0-0.1-0.1-0.1-0.1c0-0.3-0.1-0.5-0.2-0.8c-0.1-0.1-0.1-0.1-0.1-0.2
	c0-0.2,0-0.4-0.1-0.5c-0.1-0.2-0.1-0.4-0.2-0.5c-0.2-1.5-0.3-3.5-0.3-6c0-35.3,0-70.7,0-106c0-8.1,0-16,0-24c0-0.2,0.1-0.3,0.2-0.4
	c1.1-0.7,2.1-1.2,3.1-1.4c1.2-0.3,2.4-0.5,3.7-0.6c0.1,0,1.2-0.1,3.3-0.2c1.6-0.1,2.7-0.1,3.3,0c1.2,0.2,2.5,0.2,3.7,0.1
	c0.8-0.1,1.6-0.1,2.3-0.1c0.9,0,1.8-0.1,2.6-0.2c0.1,0,0.4,0,1-0.1c0.3,0,0.6-0.1,1-0.1c2.9-0.5,5.6-1.3,7.9-2.5
	c0.3-0.1,0.6-0.4,1.1-0.7c0.2-0.2,0.5-0.3,0.7-0.5c0.3-0.2,0.5-0.3,0.7-0.5c1.9-1.5,3.8-2.9,5.7-4.4c0,0,0.1-0.1,0.3-0.3
	c0.1-0.1,0.3-0.2,0.4-0.2c0.1,0,0.2-0.1,0.2-0.1c0.2-0.2,0.3-0.3,0.5-0.5c0.4-0.2,0.6-0.4,0.6-0.4c1.1-0.9,3.1-2.3,5.9-4.4
	c2.8-2,5.6-3.6,8.4-4.7c0,0,0.2,0,0.5-0.1c0.1,0,0.2-0.1,0.3-0.2s0.1-0.1,0.2-0.1c0.3,0,0.7,0,1-0.1c0.4-0.1,0.7-0.2,1-0.2
	c0.6,0,1.1,0,1.7,0c0.6,0,1.1,0.1,1.6,0.2c2.7,0.6,5.4,1.8,7.9,3.4c2.4,1.6,3.9,2.6,4.5,3c4.5,3.2,9,6.3,13.5,9.5
	c6.4,4.4,12.6,9.3,18.8,14.6c1.5,1.3,2.9,2.6,4.2,4c1.5,1.5,2.6,2.8,3.4,3.9c1.3,1.7,2.3,3.5,3.2,5.5c1.4,3.2,1.4,6.2-0.2,9.2
	c-0.7,1.3-1.2,2.6-1.7,3.8c-0.6,1.6-0.9,2.9-1,4c-0.1,1.6,0.2,3.2,0.9,4.7c0.4,0.8,0.9,1.5,1.6,2.3c0.6,0.7,1.3,1.4,2,2
	c1,0.9,2,1.8,3,2.7c1,1,1.7,2,2.1,3.3c0.4,1,0.6,2.2,0.6,3.8c0,2.1-0.2,4.3-0.7,6.4c-0.3,1.2-0.6,2.3-1,3.4
	c-0.3,1.1-0.8,2.2-1.3,3.3c-3.9,8.8-9.4,16.5-16.5,22.9c-1.6,1.5-2.9,2.6-3.9,3.4c-3.1,2.4-6.5,4.2-10.2,5.4c-3.7,1.2-7,2-9.9,2.2
	c-1.2,0.1-4.2,0.2-9,0.2c-12.5,0.1-24.9,0.1-37.4,0.1c0,0-0.4,0-1.1,0c-1.3,0-2.5,0.2-3.6,0.6c-0.8,0.3-1.7,0.8-2.5,1.5
	c-0.9,0.8-1.6,1.5-2.1,2.1c-0.4,0.5-0.8,1.4-1.1,2.7c-0.2,0.8-0.4,1.7-0.5,2.9c-0.1,0.8-0.1,1.8-0.1,2.9c0,3.4,0.1,6.7,0.4,10.1
	c0.2,2.2,0.2,5,0.1,8.3c-0.1,1.9-0.3,3.8-0.8,5.5c-0.5,2-1.3,3.6-2.3,4.6c-1.3,1.4-3,2.3-5.2,2.5c-1.5,0.2-3,0.1-4.4-0.3
	c-1.2-0.3-2.4-0.9-3.9-1.9c-2.5-1.7-4.8-3.7-6.8-5.9c0,0-0.1-0.1-0.4-0.3c-0.2-0.2-0.3-0.3-0.3-0.6c0-0.1-0.1-0.1-0.1-0.2
	c-0.2-0.1-0.3-0.3-0.3-0.6C-219.8-254.2-219.9-254.2-219.9-254.3z M-207.5-329.4c-0.1,0.4,0.1,0.5,0.4,0.4c0.3,0.2,0.5,0.5,0.4,0.9
	c0,0.4,0,0.6,0,0.6c0.1,1.8,0.4,5.7,0.8,11.5c0.1,1.4,0.6,2.6,1.4,3.5c0.3,0.3,0.7,0.6,1.2,0.7s0.9,0.2,1.4,0.3
	c0.2,0,0.3-0.1,0.3-0.3l0,0l-0.8-19.3c0-0.1,0-0.2,0.1-0.2c13.4-13.4,26.8-26.9,40.1-40.4c0.2-0.2,0.5-0.3,0.7-0.1
	c0.1,0,0.2,0.2,0.3,0.5c0.1,0.2,0.2,0.3,0.4,0.5c0.7,0.6,1.7,1.4,2.8,2.4c0.4,0.3,0.7,0.5,1,0.6c0.4,0.1,0.8,0.1,1.2,0
	c1.1-0.3,2.1-0.8,3-1.4c0.7-0.5,1.3-1,1.9-1.5c0.5-0.5,1.1-1.1,1.6-1.8c0.3-0.4,0.5-0.8,0.6-1.2c0.1-0.3,0-0.7-0.2-1.2
	c-0.8-1.8-1.9-3.8-3.4-6c-2.5-3.8-5-7.1-7.6-9.8c-0.5-0.5-1.1-1-1.8-1.6c0,0-0.2-0.2-0.5-0.5c-0.3-0.2-0.6-0.4-1-0.5
	c-0.1,0-0.2,0-0.2,0c-0.4,0.2-0.9,0.5-1.3,0.7c-0.3,0.1-0.6,0.4-0.8,0.6c-0.1,0.1-0.1,0.1-0.2,0.2c-0.5,0.2-0.9,0.6-1.3,1.1
	c-1,1.2-1.9,2.5-2.5,3.7c-0.3,0.5-0.6,1.3-0.8,2.2c-0.2,0.6-0.1,1.2,0.2,1.6c0,0.1,0.1,0.1,0.1,0.2c0,0.2,0.1,0.4,0.2,0.6
	c1.2,2.4,2.6,4.5,4.1,6.5c0.2,0.3,0.2,0.6-0.1,0.8c-4.9,4.5-9.6,9.1-14.4,13.7c0,0-0.1,0.2-0.3,0.4c-0.1,0.2-0.3,0.3-0.5,0.3
	c-0.1,0-0.2,0.1-0.2,0.1c-7.9,7.8-15.9,15.6-24,23.2c-0.9,0.8-1.7,1.6-2.6,2.4c-1.1,1.1-1.4,2.4-0.9,3.8
	C-208.4-330.4-208-329.8-207.5-329.4z M-170.8-339.6c0.4-0.3,0.7-0.7,1-1.2c1.2-2,1.4-3.9,0.5-5.9c-0.4-1-1.1-1.8-1.9-2.4
	c-1.4-1.1-2.9-1.5-4.5-1.4c-1.2,0.1-2.2,0.5-3.2,1.2c-1,0.7-1.7,1.6-2.2,2.8c-1,2.5-0.6,4.7,1.3,6.7c1.2,1.3,2.7,2,4.5,2.1
	c0.4,0,1.1-0.1,1.9-0.3c0.6-0.2,1-0.4,1.4-0.6C-171.6-339.1-171.2-339.3-170.8-339.6z"/>
<rect x="-175" y="-143.9" class="st1" width="118.1" height="64"/>
<path d="M559.6,114.9l-1.5,0.1l1.9-2.8l85.2-10.9c0,0,213.4-15.5,225.5-13.4l-0.6,2.7l-0.8-0.2c-168.3,3-280.9,19.8-304.9,23.7
	C561.3,114.7,559.6,114.9,559.6,114.9L559.6,114.9z"/>
<path d="M866.9,86.5c-17.6,0.7,175-4.6,260.5,7.6l-5.3,0.1c0,0-235.8-8.6-256.1-5.8L866.9,86.5z"/>
<polygon points="1122.1,93.7 1122.8,93.8 1191.6,99.8 1184,100.3 1125.9,95.6 "/>
</svg>
