<?xml version="1.0" encoding="utf-8"?>
<!-- Generator: Adobe Illustrator 25.4.1, SVG Export Plug-In . SVG Version: 6.00 Build 0)  -->
<svg version="1.1" id="Capa_1" xmlns="http://www.w3.org/2000/svg" xmlns:xlink="http://www.w3.org/1999/xlink" x="0px" y="0px"
	 viewBox="0 0 512 512" style="enable-background:new 0 0 512 512;" xml:space="preserve">
<style type="text/css">
	.st0{fill:#355A50;}
</style>
<circle class="st0" cx="256" cy="100.2" r="88.7"/>
<circle class="st0" cx="99.9" cy="160.6" r="66.3"/>
<circle class="st0" cx="412.1" cy="160.6" r="66.3"/>
<path class="st0" d="M153.1,445.8c-11.6,0-16.1-7.8-16.2-18.3c-0.2-46.8-0.2-93.5-0.1-140.3c0-4.3,0.2-8.7,0.6-13
	c3.2-34.6,29.6-61.6,63.9-66.2c3.8-0.5,10.5-0.8,19.9-0.8c24,0,48,0,71.9,0c6,0,14.3,0.1,20.6,1.2c33,5.6,56.9,32.5,60.7,64.9
	c0.5,3.8,0.7,10.5,0.7,20c0,45.1,0,90.1,0,135.2c0,8.2-3,13.4-9.1,15.8c-2.5,1-7.8,1.4-16,1.4C284.5,445.7,218.8,445.8,153.1,445.8z
	"/>
<path class="st0" d="M0,401.4v-82.5c1.3-35.1,25-65,59.6-71.6c4.3-0.8,11-1.3,19.9-1.4c11-0.2,22-0.2,33-0.1c0.4,0,0.7,0.3,0.7,0.7
	c0,0.1,0,0.1,0,0.2c-4.8,14-6,26-6,42.1c0,46.9,0,93.8,0,140.7c0,5.3,0.8,10.5,2.4,15.6c0.1,0.2-0.1,0.5-0.3,0.6c0,0-0.1,0-0.1,0
	c-19.3,0-38.6,0-58,0c-5.2,0-12.8-0.2-18.2-1.8c-15.6-4.5-26-14.6-31.1-30.3C0.7,409.8,0.5,405.6,0,401.4z"/>
<path class="st0" d="M512,318.3v83.2c-1.4,26.5-21,44.2-46.9,44.3c-20.8,0-41.6,0-62.4-0.1c-0.2,0-0.4-0.2-0.4-0.4c0,0,0-0.1,0-0.1
	c1.7-5.8,2.4-10.9,2.4-17.4c0-48.7,0-97.4,0-146c0-11.8-2-23.6-6.1-35.3c-0.1-0.4,0-0.6,0.4-0.6c13.1-0.4,26.1-0.4,39.1,0.1
	c7.9,0.3,14.2,1.1,19.1,2.4C489.4,257,510.4,285.1,512,318.3z"/>
</svg>
