<svg width="55" height="48" viewBox="0 0 55 48" fill="none" xmlns="http://www.w3.org/2000/svg">
<path d="M31.4286 0C18.4119 0 7.85714 10.7467 7.85714 24H0L10.1881 34.3733L10.3714 34.7467L20.9524 24H13.0952C13.0952 13.68 21.2929 5.33333 31.4286 5.33333C41.5643 5.33333 49.7619 13.68 49.7619 24C49.7619 34.32 41.5643 42.6667 31.4286 42.6667C26.3738 42.6667 21.7905 40.56 18.4905 37.1733L14.7714 40.96C19.0405 45.3067 24.9071 48 31.4286 48C44.4452 48 55 37.2533 55 24C55 10.7467 44.4452 0 31.4286 0ZM28.8095 13.3333V26.6667L40.019 33.44L41.9048 30.2133L32.7381 24.6667V13.3333H28.8095Z" fill="#355A50"/>
</svg>
