<svg width="60" height="60" viewBox="0 0 60 60" fill="none" xmlns="http://www.w3.org/2000/svg">
<circle cx="30" cy="30" r="30" fill="white"/>
<path d="M23.5417 16C18.825 16 15 19.7317 15 24.3333V37.6667C15 42.2683 18.825 46 23.5417 46H37.2083C41.925 46 45.75 42.2683 45.75 37.6667V24.3333C45.75 19.7317 41.925 16 37.2083 16H23.5417ZM40.625 19.3333C41.568 19.3333 42.3333 20.08 42.3333 21C42.3333 21.92 41.568 22.6667 40.625 22.6667C39.682 22.6667 38.9167 21.92 38.9167 21C38.9167 20.08 39.682 19.3333 40.625 19.3333ZM30.375 22.6667C35.0917 22.6667 38.9167 26.3983 38.9167 31C38.9167 35.6017 35.0917 39.3333 30.375 39.3333C25.6583 39.3333 21.8333 35.6017 21.8333 31C21.8333 26.3983 25.6583 22.6667 30.375 22.6667ZM30.375 26C29.0158 26 27.7122 26.5268 26.7511 27.4645C25.79 28.4021 25.25 29.6739 25.25 31C25.25 32.3261 25.79 33.5979 26.7511 34.5355C27.7122 35.4732 29.0158 36 30.375 36C31.7342 36 33.0378 35.4732 33.9989 34.5355C34.96 33.5979 35.5 32.3261 35.5 31C35.5 29.6739 34.96 28.4021 33.9989 27.4645C33.0378 26.5268 31.7342 26 30.375 26Z" fill="#233C36"/>
</svg>
